<svg xmlns="http://www.w3.org/2000/svg" xmlns:xlink="http://www.w3.org/1999/xlink" xml:space="preserve" id="Layer_1" version="1.1" viewBox="-52.05 0 684.34 684.34"><defs><path id="SVGID_15_" d="M0 0h580.24v684.34H0z"/></defs><clipPath id="SVGID_2_"><use xlink:href="#SVGID_15_" overflow="visible"/></clipPath><g clip-path="url(#SVGID_2_)"><path d="M409 487.54c2.05-6.48 4.39-12.9 6.09-19.45 7.18-27.66 12.28-55.58 15.64-83.74.91-7.63-1-14.45-5.63-20.94-1.54-2.15-2.71-4.48-3.03-7.15 2.24 2.85 4.48 5.71 6.72 8.56.4-.15.81-.3 1.21-.45-5.13-8.52-10.25-17.03-15.38-25.55.71-.32 1.41-.64 2.12-.97 4.25 5.62 8.5 11.24 13.04 17.24-.77-6.25 1.12-12.31-2.35-18.38-2.64-4.62-3.82-9.81-5.65-14.75l1.77-.78c2.15 2.37 4.31 4.73 6.46 7.1.2-.04.41-.09.61-.13-2.32-7-4.64-13.99-6.96-20.99.44-.12.87-.24 1.31-.37 2.79 6.95 5.58 13.89 8.76 21.78-1.56-13.83-3.02-26.81-4.49-39.79l1-.21c.95 2.6 1.91 5.19 3.06 8.33 2.42-10.42 4.68-20.14 7.18-30.9-2.01 19.25-3.89 37.37-5.78 55.49l1.39.33c4.03-5.54 8.06-11.09 12.1-16.63.39.1.77.19 1.16.29-6.09 16.85-18.08 32.63-13.64 50.86 5.79-6.05 12.14-12.68 18.49-19.31.26.12.53.24.79.36-.76 1.58-1.36 3.23-2.31 4.72-5.2 8.12-10.72 16.11-15.64 24.34-1.87 3.12-3.06 6.71-3.53 10.18-3.03 22.34-5.71 44.72-8.66 67.07-.77 5.86-2.11 11.67-3.31 18.19 2.04-2.38 3.63-4.23 5.21-6.08-10.31 16.63-8.34 35.28-12.75 52.9 5.75-8.6 11.51-17.19 17.26-25.79.35.14.7.27 1.04.41-.26.62-.39 1.3-.78 1.85-13.82 19.5-20.72 40.84-25.1 62.99-4.59 23.2-10.08 46.28-15.16 69.41-.29 1.3-.48 2.62-.71 3.93.42.09.85.18 1.27.28 3.47-9.55 6.94-19.11 10.42-28.66l1.65.33c-1.04 4.71-2.07 9.42-3.11 14.12.36.07.71.15 1.07.22 2.03-6.26 4.23-12.49 6.06-18.8 9.86-33.93 20.28-67.76 29.26-101.85 10.04-38.08 22.14-75.63 37.29-112.5 3.09-7.52 7.11-14.78 11.29-21.99-10.08 21.57-18.32 43.6-24.46 66.13-6.18 22.64-11.77 45.4-16.76 68.3 14.76-37.59 29.94-74.96 52.14-110.02C462.7 443.86 443.2 514.06 426 584.8c7.37-20.76 14.23-41.65 22.26-62.23 8.15-20.91 16.88-41.69 26.41-62.19 9.47-20.38 20.65-40.17 34.02-59.7.21.91.47 1.3.33 1.52-19.52 30.23-31.59 62.78-42.52 95.63-9.33 28.06-18.07 56.25-27.13 84.37-1.18 3.68-2.72 7.27-3.63 11.15 18.7-20.45 38.3-40.14 60.27-58.16 21.87-17.94 44.26-35.3 71.72-47.48-3.54 2.25-7.11 4.45-10.6 6.75-3.52 2.31-7.23 4.48-10.38 7.11-13.01 10.85-26.36 21.46-38.58 32.9-11.1 10.39-17.6 23.26-23.9 36.02-9.79 19.81-19.38 39.69-28.97 59.57-.74 1.53-.85 3.26-1.25 4.89.56.16 1.12.31 1.68.47l9-17.79.96.27-2.88 9.43c.31.16.62.33.93.49 2.24-3.39 4.73-6.68 6.69-10.18 5.51-9.84 10.32-19.98 16.29-29.62 7.52-12.14 16.94-23.31 28.21-33.42-16.34 17.96-26.99 38.35-37.75 59.97 19.87-18.34 40.94-33.68 66.92-43.89-1.87 1.13-3.74 2.26-5.61 3.4-19.53 11.94-37.19 25.54-50.95 42.2-6.84 8.29-8.85 18.33-11.13 28.17 1.11-1.98 2.22-3.97 3.54-6.32.24 3.05.44 5.57.62 7.8 3.25-3.86 6.53-7.76 9.81-11.67l.9.39c-2.59 3.99-5.19 7.98-7.78 11.96 13.63-12.51 28.59-23.68 45.32-33.26-13.49 11.73-27.45 23.1-37.92 36.71 1.95 1.71 3.38 2.97 5.21 4.57.91-2.21 1.68-4.09 2.92-7.09v7.58c.44.1.88.19 1.32.29 1.41-2.75 2.81-5.51 4.48-8.78-.19 2.69-.34 4.78-.48 6.87.39.17.78.34 1.18.51l6.42-6.12c.21.11.42.23.64.34-2.27 3.1-4.53 6.19-6.79 9.29 8.13 3.12 10.74 1.58 17.45-10.85v6.9l1.23.21c-2.23 2-4.46 3.99-7.36 6.59 10.97.64 21.24 1.23 31.52 1.83-176.98 6.58-353.94 5.92-530.9.08 14.42-.56 28.83-1.13 43.44-1.7-.24-.69-.5-1.41-.8-2.24h2.22v-5.11c2.31 6.71 2.91 6.96 14.57 6.1-1.73-2.09-3.27-3.93-4.8-5.78.12-.14.25-.28.37-.42 1.55 1.17 3.09 2.34 5.27 3.98v-8c.26-.03.52-.05.79-.08l2.01 8.61c.66.01 1.32.03 1.98.04.36-2.18.73-4.36 1.18-7.03 1.62 2.12 3.06 4.01 4.5 5.89-7.48-16.64-23.77-27.45-37.61-39.97 18.42 9.99 33.55 23.05 48.62 36.37-7.11-18.51-16.16-36.23-26.75-53.46 14.21 15.46 25.85 32.18 36.31 49.59-11.28-46.13-21.63-92.41-47.68-134.91.53-.18 1.06-.37 1.59-.55 5.46 9.64 11.33 19.14 16.31 28.95 13.22 26.05 22.35 53.21 30.98 80.5a247.83 247.83 0 0 0 5.53 15.62c.67 1.71 2.13 3.2 3.22 4.8.41-.11.82-.23 1.23-.34-1.09-7.57-1.68-15.22-3.37-22.7-4.77-21.21-10.36-42.3-14.95-63.54-7.75-35.84-25.36-68.65-43.99-101.19-1.17-2.04-2.36-4.08-2.95-6.33 40.38 58.55 72.04 120.2 94.71 185.06.42-.04.85-.09 1.27-.13.13-1.51.46-3.03.35-4.52-1.35-18.11-6.72-35.59-12.1-53.06-14.27-46.4-31.47-92.03-52.95-136.49-5.3-10.96-12.18-21.4-18.33-32.08-.47-.82-.99-1.61-1.01-2.61 21.28 29.27 37.96 60.38 53.09 92.15-10.71-39.08-24.44-77.43-39.89-115.38.4-.12.81-.23 1.21-.35 3.62 8.05 7.45 16.04 10.83 24.15 8.17 19.62 16.12 39.29 24.21 58.94.47 1.13 1.07 2.36 2.04 3.2 7.8 6.75 15.71 13.41 23.96 20.41-2.35-17.37-1.52-35.07-6.4-52.01.37-.96 1.09-1.85.99-2.68-1.84-16.62-3.71-33.24-5.8-49.84-.22-1.78-1.87-3.44-2.89-5.14-5.84-9.78-11.69-19.55-17.53-29.33.5-.22 1.01-.45 1.51-.67 6.58 8.33 13.15 16.65 19.51 24.7 2.25-7.21-.06-17.18-4.41-23.7-4.2-6.29-7.32-13.07-10.92-19.63.51-.21 1.01-.42 1.52-.64 4.83 5.68 9.65 11.37 14.48 17.05.3-.05.61-.1.91-.16l-7.14-27.32c.8-.26 1.59-.51 2.39-.77 1.4 2.08 2.79 4.16 4.08 6.07 1.47-8.46 2.98-17.07 4.48-25.68 1.02 13.31-2.46 26.7 2.81 38.81-1.31 3.34-2.99 5.86-3.21 8.46-1.04 12.2-2.58 24.45-2.2 36.65.39 12.59 2.79 25.14 5.47 37.61 0-15.15-.16-30.3.05-45.45.17-12 .8-23.99 1.23-35.99.02-.69.16-1.39.06-2.07-3.61-25.2 3.87-49.18 11.78-73.09 1.78-5.38 4.07-10.65 6.67-15.85-7.86 23.64-15.09 47.33-16.48 72.46 2.16-2.7 4.04-5.06 5.93-7.41-1.94 12.9-9.06 24.86-6.03 37.76 2.35-2.51 5.08-5.43 7.81-8.35.44.22.87.44 1.31.67-.2 5.53-2.63 10.63-6.35 15.08-3.75 4.47-4.95 9.13-4.63 14.39 1.53 25.51 2.95 51.03 4.41 76.55.17 3.03.42 6.06.52 7.61 10.08 7.86 19.14 14.92 26.62 20.75.08-9.17 1.97-21.35-5.33-33.02-6.22-9.94-11.25-20.39-16.8-30.62.41-.18.83-.36 1.24-.55 6.95 11.04 13.91 22.08 21.3 33.81 0-2.3 0-3.9.29-5.99.29-1.47.28-2.46.28-3.44-.51-3.96-.75-7.95-1.62-11.85-.57-2.57-1.4-5.42-3.25-7.42-5.7-6.18-10.12-12.8-11.79-20.85 4.7 4.61 9.41 9.21 13.94 13.66 0-4.26.73-9.29-.2-14.11-.94-4.86-3.52-9.5-5.39-14.24.41-.16.83-.32 1.24-.48 1.63 2.34 3.26 4.67 4.84 6.93-1.57-18.03-3.14-36.05-4.72-54.06.61-.05 1.21-.09 1.82-.14 1.92 13.88 3.83 27.76 5.75 41.64.54.03 1.07.06 1.61.08 1.21-4.19 2.43-8.39 3.64-12.58 4.59 15.08-6.11 28.67-5.75 43.28.44.07.87.15 1.31.22.49-1.87.98-3.74 1.67-6.4.71 1.09 1.06 1.63 1.68 2.58 4.02-8.71.68-18.82 9.48-26.74.32 3.92.73 7.46.87 11.01.15 3.53.03 7.07.62 10.55 5.8-25.82 1.41-50.41-14.32-73.61l1.61-.48c1.42 1.96 2.88 3.9 4.27 5.88 1.48 2.1 2.89 4.23 5.37 6.08-3.59-12.77-7.18-25.54-10.77-38.32.44-.1.89-.21 1.33-.31 2.69 7.73 5.37 15.47 8.06 23.2.27-.01.53-.03.8-.04l-10.41-52.66c.08-.04.16-.09.24-.13 1.72 4.98 3.61 9.92 5.13 14.94 1.58 5.2 2.95 10.46 4.14 15.73 1.19 5.27 2.15 10.58 3.02 15.9.86 5.27 1.48 10.56 2.37 16.97 1.65-2.38 2.64-3.8 3.63-5.23.32.04.64.07.96.11-.77 6.74-1.54 13.47-2.41 21.04 4.61-5.95 4.07-13.26 13.36-15.99-1.71 3.71-3.42 7.42-5.64 12.23 2.3 3.35 5.46 7.97 9.14 13.34.23-15.45-.15-29.94-5.01-44.16-1.43-4.19-2.03-8.66-2.17-13.03-.08-2.51 1.52-5.07 2.66-8.5 2.66 12.06 5.15 23.38 7.65 34.71l1.27-.06 1.32-6.55c-.22-.05-.44-.09-.67-.14-.31.57-.62 1.14-1.24 2.29-.28-1.06-.7-1.69-.55-2.2 3.81-12.79.59-25.59.02-38.36-.53-11.87-1.75-23.71-2.28-35.58-.34-7.68-3.79-14.41-7.85-21.06-1.01-1.66-1.51-3.53-1.75-5.29.99.44 1.48.88 1.97 1.32 1.86 2.75 3.71 5.51 5.57 8.26.35-.03.71-.07 1.06-.1l-1.89-31.24c5.99 10.15 4.05 20.94 4.49 32.24 4.3-4.94 8.1-9.31 11.91-13.68.5.2 1 .41 1.5.61-2.47 4.56-4.26 9.52-7.58 13.6-5.07 6.24-6.21 12.84-5.63 20.03 1.41 17.5 2.47 35.01 4.12 52.49.34 3.64 2.64 7.15 4.36 10.82.32.1.25.06.25.06-.33 3.1-.65 6.19-.98 9.29-.35-.02-.71-.03-1.06-.05v-5.2c-.23-.01-.46-.03-.68-.04-.15.62-.28 1.23-.44 1.85-1.46 5.58-3.35 11.11-4.29 16.75-1.02 6.19-1.17 12.47-1.69 18.71l2.51.21c.87-4.78 1.76-9.56 2.59-14.34 1.51-8.69 2.82-17.42 7.99-25.31.46-.7.97-1.36 1.86-2.61 2.43 4.14.46 7.47-.97 10.58-1.49 3.25-3.89 6.22-6.03 9.51l14.21-7.46c.36.43.72.86 1.08 1.3-2.24 1.36-4.25 3.24-6.75 3.99-9.31 2.78-10.88 8.74-10.22 16.01 5.52-5.07 10.93-10.05 16.35-15.03.63.21 1.27.42 1.9.63-11.07 13.41-7.01 28.01-6.49 43.45 3.25-4.89 5.86-8.81 8.47-12.74.59.22 1.18.44 1.77.65-1.77 5.32-3.54 10.63-5.56 16.68 1.98-1.02 3.28-1.69 5.08-2.62-4.18 5.66-8.01 10.85-10.98 14.88 4.85 27.34 9.48 53.44 14.11 79.55.49-.03.98-.05 1.48-.08 1.47-44.29-.76-88.57-.54-132.87l7.44 152.44c.54.01 1.08.02 1.62.02.32-2.6.9-5.2.91-7.81.14-46.29.27-92.58.23-138.87-.01-10.99-.49-21.99-1.04-32.97-.11-2.22-1.48-4.4-2.35-6.58-1.34-3.33-2.75-6.64-4.14-9.96l1.29-.48c2.2 3.11 4.39 6.22 6.59 9.32.36-.12.73-.24 1.09-.36-4.06-7.63-8.13-15.26-12.19-22.89.65-.24 1.29-.48 1.94-.72 3.65 6.54 7.29 13.08 10.53 18.89.52-13.74.91-28.43 1.7-43.1.31-5.69-3.31-9.53-7.25-13.5-9.21-9.27-16.73-19.31-19.96-31.19.43-.23.87-.46 1.3-.69 7.43 9.44 14.85 18.89 22.28 28.33.1-.03.21-.05.31-.08-4.18-7.8-9.25-15.38-12.3-23.47-3.05-8.11-4.09-16.74-6.01-25.15.65-.14 1.3-.29 1.95-.43 3.42 7.04 6.83 14.08 10.25 21.11.31-.09.62-.17.93-.26-.31-1.58-.63-3.16-.94-4.74.47-.12.94-.25 1.41-.37 2.69 6.56 5.37 13.12 8.06 19.68 2.29-12.01.75-24.08.05-36.39-.01-.25-.06-.21-.06-.21 3.73-5.06 4.27-10.38 1.86-15.98-.3.61-.58 1.19-.87 1.77-.33.05-.65.09-.98.14l-8.61-34.66 1.03-.24c2.64 7.58 5.29 15.17 7.93 22.75.6-.1 1.19-.21 1.79-.31-3.41-15.21-6.81-30.42-10.22-45.63l.42-.18c1.06 2.55 2.17 5.09 3.16 7.66 1.05 2.75 2.24 5.49 2.92 8.32 2.43 10.12 4.74 20.26 6.96 30.42 1.35 6.19 3.22 12.4 3.44 18.64.24 6.69-1.31 13.41-1.84 20.13-.28 3.52-.05 7.07-.05 10.07 12.42-13.06 25.17-26.45 37.91-39.85l.81.3c-4.9 9.1-9.5 18.33-14.8 27.26-3.42 5.77-7.59 11.27-11.99 16.57-2.2 2.64-5.41 4.87-8.63 6.73-6.48 3.74-8.2 8.76-3.75 14.38 4.01 5.06 8.65 9.78 12.9 14.72 3.93 4.58 7.69 9.25 12.01 14.46 0-7.11.19-13.77-.12-20.42-.09-1.92-1.54-3.83-2.55-5.67-3.67-6.71-7.43-13.39-11.15-20.08.49-.2.99-.41 1.48-.61 3.7 5.86 7.41 11.72 10.83 17.14-1.12-7.88-2.29-16.09-3.46-24.29l2.02-.18c.66 6.61 1.31 13.22 1.97 19.83.27.01.53.02.8.02V225l1.05-.09c.53 2.45 1.05 4.89 1.55 7.18l15.21-17.58c1.02 6.77-.9 12.13-3.75 17.12-2.8 4.91-6.59 9.43-10.05 14.28 2.1 1.57 4.13 3.08 6.34 4.73 3.85-4.96 9.24-9.64 11.31-15.18 2.25-6.01 1.44-12.82 1.87-19.28.08-1.23-.26-2.47-.37-3.71-.47-5.47 1.42-11.33-3.55-16.3l4.09 2.95c0-10.11.28-19.17-.21-28.2-.11-2.1-2.37-4.48-4.39-6.08-11.06-8.78-17.72-20.03-25.06-30.93 6.84 7.93 13.67 15.86 20.51 23.79.24-.11.47-.23.71-.34-6.79-10.34-13.58-20.69-20.37-31.03l1.77-1.05c8.17 8.07 16.6 15.98 24.3 24.35 1.83 1.99 1.22 5.54 2.33 8.41v-31.25c.07-.02.14-.03.21-.05-.16 1.62-.33 3.24-.56 5.57-6.67-5.18-7.2-11.98-10.15-17.86.35-.19.69-.37 1.04-.56 3.3 3.03 6.6 6.05 9.9 9.08.38-.04.75-.08 1.13-.11-.44-3.29.1-6.96-1.49-9.81-7.04-12.66-14.48-25.18-22.22-37.56-2.76-4.41-6.76-8.29-9.72-12.67 10.58 9.36 22.06 18.13 25.65 31.55 1.22 4.56 4.01 8.84 6.83 13-.97-4.71-1.94-9.41-2.96-14.37-.93-.38-2-.81-3-1.22V78.5c7.19 4.13 5.6 10.47 8 16.53 3.2-13.07 5.92-25.33 9.26-37.46 3.3-11.98 7.62-23.73 14.69-34.68-7.58 19.82-14.29 39.78-17.11 61.61 2.34-2.67 3.88-4.43 5.43-6.19.62.16 1.24.31 1.86.47-5.7 15.63-10.09 31.39-7.51 48.24 5.81-4.06 11.44-8 17.03-11.91 2.22 5.26-9.54 19.1-22.28 25.79v19.4c6.67-13.47 20.01-21.63 31.59-31.12-6.46 15.1-14.82 29.17-30.61 39.28-.48 8.46-.94 16.71-1.41 24.96.32.08.64.17.96.25 5.61-9.52 11.22-19.04 17.27-29.31-3.11 14.35-12.28 25.93-18.69 38.37.47.18.94.35 1.4.53 4.77-5.71 9.53-11.42 15.15-18.16-.17 2.04.02 2.96-.35 3.68-4.14 8.04-8.53 16-12.47 24.11-1.31 2.7-1.79 5.75-2.18 8.69-.56 4.19-.68 8.42-1.05 13.53 4.39-3.49 7.95-6.3 11.5-9.13 4.89-3.9 4.41-9.32 5.68-14.21 3.17-12.23 6.69-24.35 13.39-35.69-4.36 13.63-8.72 27.26-13.08 40.9.42.12.84.24 1.25.35 3.86-3.52 7.71-7.04 11.57-10.56.25.15.5.3.75.44-.42.61-.7 1.35-1.28 1.83-8.8 7.16-14.02 15.64-15.67 25.93-1.81 11.3-4.33 22.54-7.13 33.71-1.34 5.33-4.17 10.38-6.09 15.62-.85 2.32-1.49 4.78-1.54 7.19-.18 8.96-.07 17.93-.07 26.06 11.5-7.73 11.62-20.12 13.97-31.85 2.7-13.44 5.62-26.86 8.5-40.28.31-1.43 1.02-2.79 2.03-4.07-3.32 17.61-6.64 35.22-9.96 52.84.47.11.95.22 1.42.34 2.67-6.1 5.33-12.21 8-18.31.24.03.47.07.71.1-.09.8.04 1.68-.29 2.4-5.15 10.99-8.08 22.38-9.16 34.11-1.47 15.96-2.73 31.93-4.39 47.88-1.78 17.09 3.47 32.69 13.4 47.48 3.3 4.91 6.12 10.03 9.6 15.77-.61-6.6.74-12.35-3.77-18.34-5.26-6.98-8.34-15.1-12.23-22.77-.58-1.13-.44-2.51.43-4.24 1.39 1.01 2.78 2.02 5.11 3.71-.21-3.96-.25-7.36-.61-10.73-.35-3.3-1.03-6.57-1.56-9.86.84-.21 1.67-.41 2.51-.62 1.81 3.26 3.62 6.52 5.42 9.77.3-.04.59-.09.89-.13-.42-7.61-.85-15.22-1.28-23.04 1.31-.1 2.16-.17 2.77-.21.55-2.26 1.07-4.43 1.6-6.6l1.18.09c1.91 9.9 3.83 19.8 6 31 2.18-7.52 4.57-13.75 11.04-18.51-.5 8.69-5.06 20.17-12.33 20.64-.16 2.66-.32 5.36-.49 8.05.33.1.67.19 1 .29 1.51-1.82 3.01-3.65 4.52-5.47.45.22.9.44 1.36.66-2 2.69-4 5.37-6.65 8.93 0 3.39 0 7.81.01 12.23 0 .24.19.47.36.86 6.2-6 12.35-11.94 19.29-18.65.01 7.34-3.12 12.67-7.01 17.73-1.69 2.19-3.47 4.68-6 6.02-13.04 6.88-7.41 17.08-8.02 26.84 11.95-14.45 23.37-28.26 34.78-42.07-9.55 18.25-13.08 39.13-33.81 52.14 1.53 9.88-1.82 19.77 5.19 29.66-.46-7.58-.86-14.06-1.25-20.53.55-.02 1.1-.04 1.65-.05 1.01 7.33 2.03 14.66 3.04 21.99-.05-14.46 2.52-28.65 11-41.79-1.23 4.07-2.51 8.12-3.66 12.2-1.21 4.29-2.54 8.57-3.35 12.91s-1.05 8.76-1.62 13.88c2.88-1.61 5.1-2.85 7.31-4.09l.75.39c-1.29 2.46-2.14 5.2-3.99 7.33-2.96 3.41-3.31 6.77-1.43 10.46 1.8 3.53 3.7 7.01 6.36 10.4l3.81-33.76c.97 2.86 1.93 5.71 2.9 8.59 4.36-24.05 9.78-47.89 12.74-71.94 3.19-25.93 4.21-52.05 5.79-78.1.18-2.93-1.8-6.08-3.34-8.91-2.48-4.57-5.43-8.96-7.6-13.77 2.18 2.42 4.36 4.83 6.18 6.84-3.49-7.79-7.17-16-10.85-24.22.66-.26 1.32-.53 1.97-.79 4.35 5.97 8.69 11.94 13.7 18.82 0-8.7-.23-16.85.07-24.98.29-7.91-.77-15.41-4.13-23.01-3.43-7.76-4.8-16.15-7.07-24.26.85-.21 1.7-.41 2.55-.62 1.79 4.28 3.58 8.57 5.37 12.85l1.06-.09c-1.26-10.51-2.52-21.02-3.77-31.53.66-.15 1.33-.29 1.99-.44 1.47 4.13 3.32 8.19 4.31 12.4 1.05 4.41 1.28 8.95 1.94 13.99 5.5-7.2 7.83-14.6 8.44-22.6.18.56.37 1.12.55 1.68l.45.03-2.34-17.94c6.35 4.76 6.75 5.93 7.71 17.24.99-4.68 1.81-9.38 3.01-14.03 1.21-4.7 2.59-9.39 4.27-13.99 1.72-4.7 3.9-9.28 6.48-13.75-3.55 11.3-7.1 22.6-10.65 33.89.56.18 1.11.36 1.67.54l7.69-8.71c-2.76 9.24-5.11 18.5-12.71 26.06-1.96 1.95-2.71 4.74-3.08 7.56l7.67-5.66c.22.13.43.26.65.39-4.35 6.04-8.69 12.09-13.34 18.55 2.25-9.18 4.41-18.02 6.58-26.85-.53-.1-1.06-.21-1.59-.31-2.75 8.98-5.51 17.97-8.26 26.95-.31-.01-.62-.01-.92-.02-.4-.97-.79-1.94-1.19-2.92-.33.03-.66.05-1 .08v15.66c10.6-9.56 21.78-19.63 33.14-29.88.1 9.69-14.78 27.33-33.28 39.67v13.09c1.59-1.18 2.84-2.1 4.08-3.01-6.54 6-3.76 13.14-4.18 21.12 8.09-8.89 15.33-16.85 22.58-24.82-3.57 9.4-7.98 18.39-13.91 27.04-4.28 6.24-7.79 13.62-8.4 20.68-1.92 22.31-2.3 44.71-3.33 67.07-.15 3.16-.61 6.31-.32 9.68.95-1.42 1.89-2.84 2.84-4.26l-.76.03c-3.77 27.07-7.54 54.13-11.32 81.2.58.02 1.17.03 1.75.05v13.7c4.41-2.53 8.67-4.98 13.33-7.66-4.55 5.42-10.12 10.05-12.67 15.64-2.6 5.7-2.22 12.34-3.26 19.33 7.54-8.56 14.42-16.36 21.42-24-1.74 2.89-3.46 5.71-5.49 8.36-10.83 14.12-17.96 29.37-19.26 46.14-1.55 19.95-2.46 39.93-3.59 59.89-.05.79.42 1.61.64 2.41 1.52-1.5 2.26-3 2.63-4.55 7.58-31.22 15.2-62.43 22.58-93.68 1.43-6.27 1.94-12.7 2.9-19.06zm-203.86-35.48c1.66 2.48 3.32 4.96 4.53 6.75v-21.59c-.59-.02-1.18-.03-1.78-.05-.64 3.78-1.2 7.56-1.96 11.32-.25 1.24-1.01 2.4-1.13 2.81.22-3.44-.13-6.99.78-10.29 1.99-7.21 1.07-13.85-3.63-20.16-1.65-2.22-2.94-4.62-3.67-6.75 3.63 4.44 7.26 8.89 10.51 12.86.65-3.95 2.1-8.59 2.04-13.21-.22-14.76-.98-29.52-1.64-44.28-.06-1.44-.5-3.14-1.53-4.22-3.95-4.14-8.22-8.08-13.44-13.14.71 12.85 1.38 24.84 2.08 37.58 3.45-4.44 6.3-8.09 9.14-11.75.47 1.97.23 3.69-.46 5.27-2.9 6.71-6.22 13.31-8.76 20.12-.95 2.54-.16 5.53-.94 8.65-.8 13.97-.71 27.79 9.86 40.08zm105.05-3.47c-.23.94-.65 1.87-.65 2.81-.19 21.79-.58 43.57-.3 65.36.06 4.49 2.68 8.95 4.12 13.43 1.14-.9 1.25-1.57 1.29-2.23 1.05-19.7 1.94-39.4 3.27-59.09.31-4.64-1.01-8.57-3.51-12.55-1.66-2.64-2.62-5.58-3.16-8.17 2.18 3.15 4.35 6.3 6.49 9.39 1.54-15.68 2.76-31.2-6.42-45.58-.5.02-.99.03-1.49.05.26 12 .55 24.02.36 36.58zm-38.31-171.71c5.4 6.8 10.79 13.59 15.8 19.91V276.4c-9.6-7.23-18.87-14.21-28.38-21.36v47.87c2.36-5.29 4.65-10.39 6.93-15.5l1.74.39c-.23 1.82-.3 3.67-.72 5.46-1.37 5.88-4.57 11.84-4.03 17.57 2.09 21.98 5.36 43.89 8.22 65.82 1.05 8.08 2.96 16.14 3.07 24.22.15 11.3-.66 22.64-1.71 33.92-1.18 12.74 5.02 23.9 9.86 35.39.36.86 1.05 1.62 2.18 3.32.35-3.29.76-5.59.8-7.89.2-11.74.64-23.49.3-35.21-.16-5.49-1.61-11-3.01-16.41-.76-2.93-2.64-5.66-4.01-8.48.29-.11.57-.23.86-.34 1.8 2.49 3.59 4.99 5.8 8.04 0-1.62-.03-2.56.01-3.49.69-16.28 1.49-32.56 2.05-48.85.27-7.69-.43-15.2-5.82-22.01-2.72-3.44-4.26-7.52-6.34-11.31.49-.21.97-.42 1.46-.64l9.45 12.81c.49-.07.98-.14 1.47-.22 0-7.86.26-15.72-.12-23.57-.15-3.19-1.09-6.56-2.71-9.45-5.24-9.32-11.08-18.42-16.45-27.69-1.97-3.41-3.27-7.08-4.88-10.63.35-.12.7-.24 1.04-.36 2.23 2.87 4.49 5.73 7.14 9.08zm-99.12 216.54c.92-5.22-.9-9.71-4.96-13.71-2.88-2.84-5.4-5.95-8.34-8.75-3.74-3.55-7.75-6.9-12.25-10.87-.12 17.23 26.27 155.56 30.67 160.3-.4-4.19-.79-7.98-1.12-11.78-1.55-18.16-3.92-36.3-4.36-54.48-.35-14.14-2.32-28.32.44-42.53 1.1-5.64.03-11.57-.08-18.18zm118.12-168.4v27.11c3.86-4.76 8.27-9 8.06-15.15-.19-5.52.63-11.06 1.09-17.81 1.65 2.49 2.51 3.79 3.3 4.97-6.6 9.68-2.45 29.79 8.52 36.44 0-8.95.17-17.06-.11-25.16-.08-2.36-1.23-4.75-2.28-7-2.62-5.64-5.47-11.2-8.23-16.79.5-.19 1.01-.38 1.51-.57 2.21 3.27 4.42 6.54 6.63 9.82 1.51-10.57 2-21.04 2.24-31.51.03-1.31-1.22-2.69-2.02-3.97-2.07-3.33-4.23-6.62-6.35-9.93.43-.22.85-.43 1.28-.65 1.61 1.63 3.22 3.25 5.6 5.66.63-13.71 1.23-26.55 1.85-40.12-17.36 18.18-24.62 37.87-20.33 60.02 2.3-2.28 4.28-5.22 7.27-6.93 3.46-1.97 5.32-3.88 3.67-7.68 1.65.07 2.81.12 5.67.23-3.66 6.46-5.79 12.8-10.31 17.55-5.24 5.49-7.84 10.94-6.96 17.74.13.96-.05 1.94-.1 3.73zm-31.97 45.6c.09 16.57.59 33.15.06 49.71-.24 7.47 5.14 12.17 8.96 18.5 7.08-44.66-4.21-87.73-7.95-131.25-1.88 4.27-3.31 8.63-3.2 12.96.44 16.43 1.37 32.84 2.13 50.08zm-25.94 136.22c3.85-12.63-5.71-21.17-13.36-31.27v32.18c2.44-2.48 4.03-4.09 5.62-5.71.44.14.89.28 1.33.41-.51 2.18-.37 4.69-1.65 6.49-5.09 7.12-6.82 14.72-6.02 22.85.09.89-.24 1.81-.49 3.51 3.61-3.16 6.64-5.82 9.67-8.47.35.21.69.43 1.04.64-.94 1.85-1.49 3.93-2.89 5.5-4.15 4.64-3.87 9.86-3.06 15.04 1.62 10.38 3.58 20.71 5.48 31.06.7 3.81 1.61 7.59 2.42 11.38.65-.05 1.29-.1 1.94-.16-.02-27.56-.02-55.11-.03-83.45zm72.8-142.78c-2.5-2.82-5-5.64-8.62-9.72-1.61 6.87-3.94 12.66-4.16 18.51-.57 15.3.37 30.65-.48 45.93-.44 7.9 5.72 12.09 9.96 17.59 1.32-11.7 1.93-23.27 3.11-34.8.43-4.23-.62-7.86-2.97-11.43-1.92-2.91-3.85-5.81-5.78-8.71.26-.13.53-.25.79-.38 3.04 3.61 6.07 7.23 9.77 11.63.65-7.56 1.53-14.12 1.62-20.68.02-2.51-1.76-5.02-3.24-7.94zM178.06 464.33c-.77 12.58.7 24.61 9.97 35.35 3.55 4.12 5.63 9.12 8.38 13.72.26-.05.51-.11.77-.16l-1.23-7.51c.89-2.31 1.12-4.63.85-6.91-1.46-12.21-3.21-24.4-4.49-36.62-.46-4.36-1.26-8.32-5.39-11.52 1.22.66 2.44 1.32 4 2.16v-24.35c-6.68 11.21-15.18 21.81-12.86 35.84zm171.27 89.97c.5-9.09.55-18.22 1.61-27.26 1.09-9.32-4.5-16.67-9.06-24.34-1.92-3.22-4.84-6.04-7.31-9.04l-1.46.24c2.23 33.65 4.46 67.31 6.68 100.96.53-.01 1.05-.03 1.58-.04 2.09-19.77-1.72-39.51-.64-59.34 1.74 11.56 3.47 23.12 5.33 35.5 1.15-5.9 2.11-10.92 3.27-16.68zm-222.36-76.48c-2.64-2.44-5.28-4.88-7.92-7.31-.27.13-.54.26-.8.39 11.78 34.71 23.56 69.41 35.68 105.12 0-1.88.11-2.71-.02-3.52-3.27-21.44-6.51-42.89-9.91-64.32-.77-4.86-.99-10.12-3.5-14.36-3.33-5.61-8.65-10.39-13.53-16zm166.14 12.19c.21 5.38.5 10.75.62 16.13.12 5.38-.11 10.77.17 16.14.28 5.36.91 10.72 1.56 16.06.63 5.11 1.5 10.2 2.26 15.29.51-.04 1.03-.07 1.54-.11 0-7.31-.24-14.62.04-21.92 1.08-27.85 2.13-55.71 3.63-83.54.4-7.38-5.23-11.84-9.85-17.12.02 19.42.02 38.83.03 59.07zm-103.19 53.2-10.54-21.02c-1.49 16.81 7.64 85.63 13.15 88.94v-37.64c.64-.01 1.28-.01 1.92-.02.28 2.1.57 4.2.85 6.29.88-4.55 1.18-9.08 1.75-13.59 1.01-8.18.04-15.9-7.13-22.96zM366.17 515c-.43-3.56-.85-7.12-1.37-11.42 1.95 2.1 3.33 3.57 4.71 5.05-.44.01-.88.03-1.32.04v38.25c.56.05 1.12.09 1.68.14 1.25-10.46 2.79-20.9 3.6-31.39.25-3.22-1.12-6.65-2.43-9.79-2.88-6.9-6.19-13.68-8.85-19.48-.61 3.56-.89 8.34-2.33 12.86-3.11 9.74-5.65 19.46-4.12 29.63.92 6.14 1.6 12.3 2.38 18.45.36-.05.72-.09 1.07-.14v-18.52c.19-.05.37-.09.56-.14l5.49 22.55c.31-.02.62-.05.92-.07 0-11.77 0-23.53.01-36.02zm-34.37-60.56c5.16-5.37 10.31-10.74 16.21-16.87-8.18-9.33-19.86-17.55-23.55-30.01-1.14 18.24-1.92 36.26-2.5 54.28-.08 2.43.82 4.88 1.26 7.32.74-.06 1.47-.11 2.21-.17v-43.47l1.8-.06c.74 10.58 1.48 21.16 2.24 31.92.62-.76 1.31-1.59 2.33-2.94zm-67.76 102.74c.32-18.78.51-37.57.98-56.35.37-14.5.85-29 1.72-43.48.51-8.55-1.64-16.47-6.7-24.11l2.4 134.37c.53 0 1.07.01 1.6.01.01-3.21.01-6.41 0-10.44zm194.32 26.52c-11.69 14.42-16.32 31.05-22.4 47.24.62.24 1.25.47 1.87.71 15.41-25.34 30.82-50.69 46.23-76.03-.29-.16-.57-.33-.86-.49-8.16 9.35-16.33 18.69-24.84 28.57zM348.82 448.07c-3.99 5.37-7.43 11.1-12.11 16.02-4.82 5.06-5.46 10.11-4.06 16.14 1.84 7.93 4.95 15.19 11.94 21.1-.42-2.72-.67-5.58-2.14-7.91-3.16-4.99-1.62-9.08 1.97-13.32 4.06-4.8 6.76-10.09 6.33-14.94-1.88-4.13-3.27-7.17-4.65-10.22.33-.09.65-.19.98-.28.77.42 1.53.84 2.41 1.32-.01-2.83-.01-5.3-.67-7.91zm-69.97 75.13c3.99-16.44.6-53.77-6.08-63.92.61 25.51-.99 50.6 1.28 75.61.62.04 1.23.09 1.85.13.96-3.71 1.92-7.41 2.95-11.82zm-51.2-159.56v-15.03c-.47-.06-.94-.13-1.41-.19-3.96 5.14-7.93 10.27-11.85 15.42-.33.43-.41 1.05-.39 1.58.34 8.03.72 16.05 1.1 24.25 3.55-1.47 6.44-2.67 9.83-4.07v-9.98h.68c.57 4.63 1.14 9.27 1.7 13.9l.34-.03v-25.85zm1.39 49.16c-.62-6.06-1.25-12.11-1.87-18.17l-1.28-.12c-3.21 5.61-6.93 11.06-9.42 16.88-1.18 2.76-1.16 6.64.27 9.27 4.23 7.79 9.44 15.21 14.26 22.77.29-.1.58-.21.87-.31-.93-9.84-1.86-19.69-2.83-30.32zm-26.3 78.33c.81 12.48 1.61 24.96 2.42 37.45l1.47.15c1.16-7.05 2.31-14.11 3.34-20.38l-4.91-4.76c1.18-.12 1.79.27 2.46.53.72.28 1.5.45 2.8.82 2.49-16.65-1.71-31.88-9.87-46.52-.48.05-.97.11-1.45.16 1.22 10.59 2.45 21.18 3.74 32.55zM190 419.72v-15.54c-1.58-.85-2.78-1.49-3.98-2.13v-15.51c-1.72 2.08-2.77 4.31-3.03 6.61-.83 7.43-1.84 14.68-4.2 22.04-2.65 8.28-1.69 17.35-2.3 26.08.53.03 1.05.07 1.58.1 1.36-2.93 2.51-5.94 4.13-8.77 2.38-4.13 5.11-8.13 7.8-12.88zm43.68 62.92c-.58-12.49.16-25.16-7.5-37.65-2.46 8.52-4.74 16.08-6.74 23.69-.31 1.2.26 2.82 1.07 3.91 4.14 5.55 8.48 10.99 13.24 17.08 0-2.57 0-4.42-.07-7.03zm-18.89 99.94c-.25-1.21-.5-2.43-.74-3.64l.62-.09c.6 1.8 1.2 3.6 1.81 5.4l1.03-.06c-.51-12.71-1.01-25.41-1.51-37.84-1.39 1.8-4.35 3.95-4.7 6.36-1.07 7.46-2.02 15.07-1.37 22.52.7 7.97 3.26 15.82 5.02 23.72-.45.07-.9.13-1.36.2-.74-3.46-1.3-6.95-2.27-10.36-.96-3.37-2.32-6.66-3.51-9.99l-1.31.3c2.59 9.72 5.19 19.44 7.78 29.15l1.63-.24c1.02-8.27 1.73-16.55-1.12-25.43zm110-337.9c1.4-5.5 2.81-11 4.21-16.5-.39-.16-.79-.31-1.18-.47-2.85 2.45-6.01 4.71-8.47 7.4-1.89 2.07-3.95 4.65-4.12 7.09-.52 7.76-.19 15.56-.19 22.53 5.42-4.88 8.26-11.86 9.75-20.05zM180.93 518.93c5.1 6.34 10.19 12.69 15.89 19.78.72-6.47-1.47-10.97-4.52-15.58-2.86-4.34-4.39-9.31-6.22-14.08-1.95-5.07-3.56-10.24-5.32-15.36-.55.11-1.09.23-1.64.34 0 6.16-.1 12.31.06 18.47.05 1.99.78 3.97 1.75 6.43zM321.71 337.4l3.39-22.82c-.56-.08-1.12-.16-1.68-.25-1.5 7.32-9.17 13.12-7.36 22.11-3.6 7.08-2.29 24.77 2.7 29.77.97-9.39 1.94-18.72 2.95-28.81zM127.12 617.87c-5.96-20.71-12.37-41.31-21.45-61.27-.15 1.28.2 2.44.59 3.59 3.7 10.99 7.78 21.9 11.01 32.99 3.73 12.8 6.68 25.76 10.09 38.63.49 1.85 1.67 3.58 2.54 5.36.55-.17 1.1-.33 1.65-.5-1.46-6.03-2.9-12.07-4.43-18.8zm196.7-88.03c.02 7.32.07 14.65.07 21.97 0 7.46-.07 14.92-.06 22.38.01 7.05.09 14.1.14 21.14.64-.02 1.29-.04 1.93-.05v-96.94c-1.52 2.8-2.61 5.75-2.64 8.71-.08 7.32.34 14.64.56 22.79zm-7.18-139.91c-1.41-1.8-2.82-3.6-4.32-5.51-2.26 11.71.21 25.11 6.86 34.47.52-6.33.82-12.68.39-19-.21-3.16-1.75-6.25-2.93-9.96zm-95.3 67.1c.56-3.67.53-7.49 1.8-10.98 2.63-7.2-1.72-12.54-6.04-18.1-.44 6.27-.65 12.52-.38 18.75.26 6.17 1.01 12.32 1.54 18.49.19.01.38.01.57.02.79-2.5 1.56-4.99 2.51-8.18zm66.58 142.2c.64 1.65 1.28 3.31 1.93 4.96.56-.1 1.12-.2 1.68-.29l-4.17-61.09c-1.27 18.58-1.53 37.15.56 56.42zm54.47-109.13c2.33 6.43 4.65 12.86 6.98 19.29 1.05-3.89 1.14-7.67 1.56-11.42.55-4.96 1.51-9.92-4.53-13.17 1.69-3.2 3.15-5.95 4.61-8.71-2.87 1.98-5.22 4.14-6.76 6.65-1.26 2.05-1.54 4.51-1.86 7.36zm-101.37 25.52c-.44-2.09-.89-4.17-1.07-5.05 0 4.24.01 9.6 0 14.96-.02 12.13-.07 24.26-.02 36.38.01 1.53.57 3.07.88 4.6l1.62-.12c.17-1.44.47-2.88.48-4.33.08-7.58.35-15.17.06-22.74-.31-7.67-1.18-15.33-1.95-23.7zm105.49-132.3v-4.01c-1.4-.8-2.46-1.4-3.64-2.08-1.95 7.85-.37 15.14 3.67 23.14 0-6.1 0-11.19-.03-17.05zm-29.85-279.59v26.3c.69-.01 1.38-.01 2.06-.02 0-6.56.16-13.12-.08-19.67-.09-2.4-1.12-4.79-1.98-6.61zm-11.99 446.15v-5.69c-.44.01-.88.01-1.32.02v30.45l1.32.03c-.01-8.01-.01-16.02 0-24.81zm31.59 45.23v-7.1h-1.88v23.19c.59.01 1.19.02 1.78.02 0-5.12 0-10.24.1-16.11zM201.82 454.05c2.45 5.47 4.91 10.94 7.72 17.21 1.38-8.32-3.19-13.89-8.38-19.29.11.52.22 1.04.66 2.08zm147.78-61.92v10.34l.96.03v-28.52c.01-.01-.67.22-.67.47-.14 5.62-.21 11.24-.29 17.68zm126.41 238.54c.94-2.11 1.87-4.22 2.81-6.32-.4-.15-.81-.3-1.22-.46l-11.85 19.05c.59.26 1.19.52 1.78.79 2.69-4.18 5.37-8.36 8.48-13.06zM293.92 262.68c1.71-3.18 3.42-6.36 5.24-9.75-2.18-.55-3.66-.92-5.64-1.42-.63 4.65-1.2 8.92-1.93 14.36 1.2-1.6 1.61-2.14 2.33-3.19zm139.58 88.77c-.04-3.64-.07-7.29-.11-10.93l-1.74.09v24.07c.71-.7 1.16-1.44 1.21-2.19.26-3.42.4-6.83.64-11.04zm-212.55 38.53c-1.86 4.44-3.71 8.87-5.57 13.31.57.17 1.14.35 1.71.52 2.51-5.14 5.01-10.28 7.52-15.42l-1.08-.39c-.7.53-1.39 1.06-2.58 1.98zm132.58 83.62c.36 2.96.72 5.92 1.21 9.89 3.98-7.64 3.8-9.65-.97-14.87-.12 1.66-.2 2.96-.24 4.98zm-53.82-124.62c-.06-.78-.13-1.55-.19-2.33-.29-.08-.58-.17-.88-.25-2.83 4.92-5.67 9.84-8.5 14.76.5.2 1 .39 1.51.59 2.59-4.07 5.19-8.14 8.06-12.77zm15.21 25.99c-.33-.52-.67-1.04-1.35-2.09-1.99 5.66.36 9.66 4.82 13.22-1.03-3.54-2.06-7.08-3.47-11.13zm-71.09 118.41c-1.04-4.67-2.07-9.33-3.11-14l-1.08.15 3.03 18.28c.4-.04.8-.09 1.2-.13 0-1.2 0-2.41-.04-4.3zm56.62-141.33c-.21.89-.97 2.08-.54 2.61 2.87 3.57 5.98 7.01 9.02 10.49.42-.22.83-.45 1.25-.67-3.01-4.1-6.03-8.19-9.73-12.43zm-93.43 184.23v-4.82l-1.72-.12c-2.78 4.09-.85 8.67-.3 13.13.63-2.5 1.26-4.99 2.02-8.19zm116.56-47.25v6.41c3.11-5.55 3.04-12.21.01-18.7 0 4.41 0 7.96-.01 12.29zm-70.72-264.9c-.52-1.16-1.05-2.32-1.57-3.48l-1.45.42c2.04 5.49 4.08 10.98 6.11 16.48.48-.12.96-.23 1.44-.35-1.46-4.15-2.94-8.3-4.53-13.07zm8.88-31.42c-.21-.04-.42-.11-.62-.09-.07 0-.16.24-.15.36.45 7.59.9 15.18 1.36 22.77l1.03-.03c-.5-7.49-.99-14.98-1.62-23.01zm-52.43 342.34c-.4 1.69-.8 3.39-1.19 5.08l1.47.3c1.27-3.93 2.55-7.87 3.82-11.8-.43-.1-.85-.21-1.28-.31-.84 2.05-1.67 4.09-2.82 6.73zm109.93-215.47c.63-1.46 1.26-2.93 1.89-4.39-.47-.15-.94-.31-1.4-.46-1.92 3.57-3.83 7.13-5.75 10.7.48.17.97.35 1.45.52 1.16-1.94 2.31-3.88 3.81-6.37zm60.47 189.38v4.81c.2 0 .4.01.61.01.46-4.44.91-8.87 1.37-13.31-.48-.03-.95-.06-1.43-.1-.17 2.62-.34 5.23-.55 8.59z"/><path d="M203.29 220.89c-.91-.43-1.4-.87-2.09-1.46-3.24-6.87-6.29-13.58-9.34-20.3.63-.23 1.26-.47 1.89-.7 3.3 4.29 6.61 8.59 10.43 13.56-1.82-17.17-7.72-32.75-13.4-48.48.99 1.87 2.04 3.71 2.96 5.61.99 2.04 1.85 4.12 2.76 6.19 5.01 11.39 9.57 22.89 10.28 35.13.17 2.98-.35 6.01-.82 8.98-.08.55-1.47.98-2.67 1.47zM303.17 101.5c2.43 4.89 4.62 9.53 6.82 14.17-.27.13-.54.26-.81.38-2.48-2.74-4.97-5.47-7.53-8.3-6.46-2.38-9.44-6.09-15.56-21.03 5.62 4.84 11.24 9.69 17.08 14.78zM471.34 541c7.32-9.92 14.52-19.55 21.71-29.19.33.18.67.35 1 .53-11.11 16.41-22.22 32.81-33.33 49.22-.44-.19-.87-.38-1.31-.57 3.94-6.56 7.87-13.13 11.93-19.99zM270.53 193.34c-.09-5.02-.32-9.74-.64-16.49 1.51-2.68 4.11-7.33 6.71-11.97.9.26 1.79.52 2.68.77-2.57 9.94-5.14 19.87-7.7 29.81l-1.65-.3c.17-.5.32-1.02.6-1.82zM257.46 189.2c-3.04-6.15-6.2-12.25-9.02-18.45-1.21-2.65-1.72-5.51-2.08-8.4 6.97 7.74 13.61 15.55 11.15 26.5-.09.4-.03.35-.05.35zM327.48 113.84c4.33-5.02 8.45-9.8 12.56-14.58.37.2.74.4 1.11.61-1.91 10.2-11.5 16.47-19.35 23.78.84-1.61 1.64-3.23 2.54-4.81.92-1.61 1.95-3.18 3.14-5zM252.95 284.81c-5.02-13.97-10-27.6-14.95-41.24-.07-.2.18-.49.64-1.61 7.29 16.14 16.33 31.07 15.64 48.3-.44-1.7-.87-3.4-1.33-5.45zM212.05 205.74c-.02-.97.11-1.68-.04-2.34-1.35-5.93-1.27-11.51 6.41-15.93-.54 3.7-.67 7.11-1.61 10.37-.83 2.89-2.55 5.6-3.89 8.39-.05.1-.29.24-.32.22-.19-.12-.35-.28-.55-.71zM203.89 327.38c-4.32-4.51-4.71-9.55-4.23-14.76 4.51 4.35 6.67 9.19 4.23 14.76zM173.48 437.58c.38 1.14.38 2.13.36 3.29-1.13-1.03-2.36-2.17-3.31-3.45-3.31-4.48-6.52-9.01-9.17-13.84 6.01 3.39 8.51 8.84 12.12 14zM221.12 314.06c-2.92-5.18-.49-9.55 3.65-13.64 1.53 4.76.08 9.08-3.49 13.35-.25.21-.18.25-.16.29zM211.1 187.08c1.13-2.86 2.22-5.38 3.32-7.91l1.36.24c1.31 3.56.94 6.94-2.99 10.8-.77-1.25-1.24-2.03-1.69-3.13zM247.55 198.17c-.88-.94-1.5-1.7-2.12-2.46.3-.27.6-.53.9-.8 3.19 2.32 6.38 4.64 9.57 6.95l-.81.87c-2.43-1.45-4.86-2.91-7.54-4.56z"/></g></svg>