<svg xmlns="http://www.w3.org/2000/svg" xmlns:xlink="http://www.w3.org/1999/xlink" xml:space="preserve" id="Layer_1" version="1.1" viewBox="-52.05 0 684.34 684.34"><defs><path id="SVGID_11_" d="M0 0h580.24v684.34H0z"/></defs><clipPath id="SVGID_2_"><use xlink:href="#SVGID_11_" overflow="visible"/></clipPath><g clip-path="url(#SVGID_2_)"><path d="M449.22 595.09c.92-2.26 1.87-4.5 2.75-6.78 2.97-7.7 5.91-15.41 9.3-23.06-2.43 9.67-4.85 19.35-7.4 29.53-.35-.98-.48-1.35-.61-1.72-.29-.07-.57-.13-.86-.2l-3.57 22.46c.42.1.84.2 1.27.3l2.67-18.87c.19.03.39.07.58.1l-2.34 21.06c-.11-.04-.23-.08-.34-.11-.54 2.09-1.5 4.17-1.56 6.28-.29 10.75-.36 21.51-.48 32.26-.01.79.25 1.58.86 2.38 2.45-10.9 2.78-22.01 3.05-33.33.6 3.41 1.29 6.8 1.78 10.24.52 3.66.93 7.34 1.24 11.04.31 3.69.43 7.4 1.14 11.16 6.27-22.35 7.7-45.74 11.27-68.7l-.9 17.91c.21.05.43.09.64.14.45-1.38.89-2.76 1.34-4.14.23.05.47.09.7.14-2.44 19.61-4.89 39.23-7.35 58.96H86.34c-1.41-6.5-2.84-13.13-4.48-20.74 1.31 1.04 1.73 1.38 2.89 2.3-1.14-3.26-1.98-5.65-2.82-8.04-.3.05-.61.11-.91.16.66 8.72 1.32 17.43 1.99 26.31H71.96c-.59-2.75-1.18-5.48-1.77-8.2h-.42v6.7c-.09-.01-.17-.01-.26-.02-2.26-16.58-4.52-33.16-6.71-49.26-8.17-10.58-16.05-20.8-23.94-31.02.26-.29.52-.58.78-.88 7.73 8.69 15.46 17.37 23.3 26.2 0-.79 0-1.49.06-2.43.06-.24.02-.2.02-.2l2.61 9.43c-.68-8.73-1.29-16.6-1.9-24.47.16-.03.32-.05.48-.08 2 8.49 4.14 16.95 5.93 25.5.85 4.05 2.15 7.46 5.13 9.99-.75.13-1.38-.06-1.5-.1 1.46 5.64 2.94 11.4 4.39 17.01.62-2.52 1.31-5.29 2.07-8.33-1.17-2.24-2.34-4.49-3.52-6.75.67.27 1.34.53 2.85 1.14-14.39-41.47-25.1-83.71-32.13-127.24 5.25 20.07 10.15 40.27 15.85 60.16 5.74 20.01 12.27 39.71 18.45 59.55.5-.21.99-.42 1.49-.63l-22.17-71.88c.36-.16.72-.31 1.09-.47 9.14 25.96 18.28 51.93 27.3 77.56.68-1.7 1.64-4.11 2.71-6.78-1.65-4.07-3.38-8.35-5.11-12.62l.52-.37c.75 1.23 1.49 2.45 2.24 3.68.35-.18.69-.35 1.04-.53-.25-4.69-3.8-7.92-4.9-12.27-1.24-4.89-2.95-9.64-4.61-14.36-1.63-4.6-3.41-9.13-5.22-13.64-1.81-4.47-3.74-8.87-5.38-13.46 10.12 14.17 15.55 31.58 23.11 47.5.4-.21.8-.43 1.21-.64-7.12-21.79-14.23-43.58-21.35-65.37.13-.08.26-.15.4-.23 3.85 9.44 8 18.73 11.5 28.36 5.36 14.77 10.07 29.86 15.49 44.6 1.75 4.74 4.87 8.78 7.77 12.86-6.56-26.72-15.58-52.17-25.79-77.22 2.51 5.15 5.11 10.24 7.5 15.46 2.41 5.27 4.66 10.64 6.86 16.04 2.25 5.52 4.38 11.11 6.5 16.7 2.06 5.43 4.04 10.9 6.67 16.11-1.02-5.35-2.05-10.7-3.07-16.05 7.33 16.33 8.05 34.99 14.03 51.89-.26-2.21-.47-4.44-.79-6.64-.36-2.52-.8-5.04-1.24-7.54-.42-2.37-.71-4.81-1.39-7.08-6.04-20.08-12.17-40.14-18.26-60.2-1.62-5.35-3.2-10.72-4.61-16.29.71 1.16 1.17 2.58 1.76 3.91.76 1.7 1.64 3.32 2.48 5.28 4.04 8.91 8.06 17.52 12.08 26.13-2.2-7.94-4.92-15.59-7.96-23.06-.86-2.13-2.62-3.75-3.98-5.92-1.57-4.21-3.13-8.1-5.03-12.83.11 2.72.17 4.39.24 6.07-3-10.16-6.2-20.25-8.95-30.5-1.7-6.32-4.24-11.87-8.04-16.7-3.19-4.06-6.34-8.16-8.96-12.97 3.55 3.88 7.4 7.46 10.61 11.7 9.7 12.8 17.89 26.87 24.46 42.23.8 1.87 1.99 3.49 3.07 5.77 5.89 11.65 7 25.65 15.89 35.03-2.41-9.38-4.82-18.75-7.24-28.13h2.03v-6.6c.34-.2.67-.39 1.01-.59-1.72 9.59 4.92 12.68 9.25 18.37v-16.95c1.3 9.45-.84 19.76 6.34 27.54v-20.11c1.52 27.44 8.68 53.24 17.71 78.46-2.18-9.13-4.44-18.24-6.51-27.4-2.12-9.34-4.06-18.74-5.4-28.37 4.02 12.49 8.04 24.98 12.07 37.47.26-.06.51-.13.77-.19-1.19-7.52-2-15.15-3.63-22.53-7.54-34.07-15.33-68.06-22.99-102.09-.83-3.68-1.45-7.42-1.8-11.21 4.32 15.69 8.63 31.38 12.95 47.06 3.24 11.78 6.48 23.56 9.94 35.88 2.45 7.73 4.65 14.92 6.94 22.07.13.41.9.55 1.37.81 2.83 11.85 5.65 23.7 8.48 35.55.48-.12.96-.23 1.43-.35-.98-6.39-1.44-12.96-3.03-19.13-6.25-24.33-12.51-48.66-19.39-72.75-12.55-43.94-25.54-87.7-38.34-131.55-.38-1.29-.62-2.64-.57-4.13 16.89 46.13 32.12 93.12 53.83 136.65-14.72-40.25-29.44-80.49-44.17-120.74.3-.16.61-.32.91-.48 13.69 35.09 27.37 70.17 41.06 105.26.19-.09.37-.18.56-.26-4.1-12.49-8.19-24.97-12.29-37.46.35-.17.7-.33 1.06-.5 1.07 3.13 2.16 6.25 3.19 9.39 5.38 16.41 10.73 32.84 16.15 49.23.32.95 1.17 1.66 1.68 2.93-.03 1.73-.14 3.06.12 4.29 3.37 16.04 6.83 32.06 10.19 48.1.96 4.57 1.62 9.23 2.55 13.82.92 4.56 2 9.08 3.08 13.95.75-22.28-4.7-42.84-9.46-63.53 1.4 3.38 2.8 6.76 4.21 10.14.34-.2.69-.4 1.03-.6-3.46-8.94-4.53-19.26-11.55-26.15.68.17 1.37.34 2.79.69-1.5-6.05-2.85-11.89-4.38-17.65-10.9-41.05-22.61-81.83-32.55-123.2-9.17-38.15-16.46-76.93-24.55-115.43-.19-.89-.12-1.86.32-2.95 18.03 84.26 45.66 164.85 67.46 247.66-15.4-61.45-34.13-121.74-46.14-184.4 3.18 12.18 6.38 24.35 9.53 36.54 3.21 12.4 6.15 24.9 9.62 37.19 3.47 12.28 7.46 24.35 11.42 36.46-8.44-34.73-17.91-69.14-22.64-105.03 14.76 54.58 29.51 109.15 44.27 163.73l.59-.09c-1.63-10.91-3.09-21.86-4.93-32.73-1.89-11.17-4.11-22.27-6.25-33.38-2.11-10.99-4.33-21.94-6.43-32.93-2.13-11.14-4.12-22.32-6.26-33.45-2.11-10.98-4.35-21.92-5.74-33.17.65 2.28 1.4 4.53 1.95 6.84 8.57 35.82 17.52 71.53 25.54 107.52 6.08 27.26 10.25 55.12 17.94 81.9 1.18 4.11 2.24 8.28 3.94 12.47.39-4.36.94-8.72 1.14-13.09 1.16-25.58-5.76-49.35-11.88-73.3-.9-3.52-1.77-7.05-2.65-10.58.31-.14.62-.28.93-.41 3.57 10.29 7.13 20.57 10.7 30.86h.34c-2.55-20.35-5.05-40.71-7.76-61.03-.27-2.03-1.69-4-2.91-5.67-1.82-2.49-3.92-4.68-5.47-7.63 2.48 2.4 4.96 4.79 7.71 7.45-.57-7.7-1.12-15.16-1.68-22.61-.05-.71-.29-1.43-.24-2.13 1.08-14.29-5.03-25.44-11.28-36.59-2.45-4.37-4.45-9.09-6.79-13.55-8.33-15.89-19.1-29.21-31.28-41.01-.47-.45-.93-.9-.95-2.2 3.81 2.9 7.76 5.59 11.4 8.76 3.8 3.31 7.42 6.95 10.93 10.69 3.6 3.85 7.04 7.92 10.42 12.05 3.25 3.98 6.58 7.93 9.42 12.3 2.83 4.36 5.09 9.24 7.66 13.99 1.53-6.74-2.31-11.2-5.14-16.43l2.72-1.4c-1.76-2.9-3.46-5.72-5.17-8.54.15-.16.29-.33.44-.49.63.58 1.26 1.15 2.11 1.92 0-.7.1-1.12-.02-1.44-1.26-3.36-2.43-6.8-3.91-10.02-.65-1.42-1.96-2.42-3-3.58-3.22-3.57-6.59-6.97-9.6-10.77-.97-1.22-1-3.48-.67-5.59-.79-1.7-1.58-3.4-2.9-6.22 1.59 1.25 2.29 1.8 3.19 2.5-.2-1.17-.38-2.17-.55-3.17l.66-.9c1.83 1.48 4.48 2.48 5.36 4.53 4.94 11.53 9.46 23.32 14.13 35.02.29.72.69 1.38 1.02 2.03 1.05-1.8 1.99-3.42 2.94-5.04.35.01.7.03 1.05.04-2.52-18.15-5.05-36.3-7.37-53-4.17-3.58-7.04-6.04-9.91-8.51.23-.46.45-.92.68-1.38 1.93 1.19 3.85 2.38 6.24 3.85-2.57-4.67-4.81-8.74-6.18-11.24-4.05-2.79-7.01-4.82-10.32-7.09.93-1.28 1.35-1.85 1.86-2.55-1-2.21-2.05-4.54-3.1-6.87.19-.24.37-.48.56-.72 1.49 1.09 2.97 2.18 4.84 3.55-.92-2.74-1.73-5.13-2.56-7.59-7.1-5.67-8.41-7.6-6.34-9.85-.99-2.09-2.01-4.25-3.02-6.41.11-.12.22-.24.34-.36.77.73 1.54 1.46 2.77 2.63-.67-2.42-1.15-4.19-1.64-5.96.19-.11.37-.21.56-.32.65 1.09 1.31 2.18 2.15 3.58.21-.75.36-1.3.76-2.71 1.03 1.61 2.05 2.73 2.56 4.11.91 2.46 1.47 5.11 2.27 7.64 1.96 6.19 3.97 12.36 6.26 19.46.75-1.67 1.03-2.3 1.39-3.1 6.68 4.86 6.05 14.46 9.73 21.16.3-.09.6-.19.91-.28-.8-5.91-1.48-11.84-2.42-17.72-1.06-6.6-2.21-13.19-3.6-19.7-.64-2.98-2.21-5.68-2.88-8.65-.63-2.79-.63-5.78-.91-8.68.41.06.81.11 1.22.17.35-3.51.7-7.02 1.13-11.37.66 3.19 1.19 5.75 1.93 9.29l.8-8.98c1.3 3.97 2.87 7.16 3.33 10.56.8 5.93 1.07 12.04-3.4 17.24 1.2 5.5 2.64 11.23 3.67 17.06 1.22 6.97 2.27 13.99 3.05 21.04.58 5.18 1.33 7.34 4.36 8.47v-11.4c6.61 4.24 10.12 10.19 11.08 18.51.33 2.88 1.81 5.58 2.72 8.38 1.03 3.18 1.92 6.42 3.04 9.55 2.16 6.08 4.44 12.1 6.67 18.15.56-.23 1.12-.46 1.69-.69-.49-2.54-.47-5.44-1.56-7.54-3.35-6.46-2.46-13.15-1.8-20.33.99.23 1.69.4 3.57.84-2.08-8.49-3.97-16.17-6.13-24.99 1.82 1 2.51 1.37 3.7 2.02V258.3c.36-.05.73-.1 1.09-.14l1.2 7.75.92-.27c-1.79-17.72-8.45-34.1-10.7-52.27-12.34-4.21-20.68-13.77-26.02-26.57 1.02-1.26 1.75-2.16 2.48-3.07 1.87 1.09 3.81 2.23 5.99 3.51-.63-2-1.23-3.89-1.82-5.77 6.13 6.48 10.71 14.09 13.09 23.49.29-.19.59-.38.88-.57-.23-2.6-.46-5.21-.74-8.36 3.65 1.59 3.77 5.17 4.58 8.04 3.08 10.88 6 21.82 9.26 33.74.62-2.74 1.01-4.47 1.52-6.73 1.4 1.16 2.45 2.02 3.49 2.88.26-.13.52-.27.78-.4-8.78-23.2-17.11-46.67-26.52-69.5-6.12-14.84-13.08-29.38-21.01-42.95-10.88-18.6-24.53-34.41-40.16-48.08 11.92 4.2 41.89 33.1 57.31 60.35 14.58 25.78 22.33 54.93 29.41 84.43.68-.36 1.28-.67 2.26-1.19 0 6.82-.66 13.35.16 19.6 1.04 7.97 3.62 15.64 4.92 23.58 1.72 10.48 3.45 20.9 1.6 31.88-.93 5.51.66 11.63 1.16 17.47.91 10.82 2.23 21.62 2.7 32.47.93 21.37 3.68 42.42 7.13 63.37.22 1.33.4 2.66.77 5.11 3.09-8.19 5.86-15.41 8.53-22.68.42-1.13.6-2.5.55-3.74-.48-12.9-.97-25.79-1.63-38.67-.08-1.49-1.05-3.05-1.88-4.32-2.83-4.31-5.78-8.5-8.84-12.95 1.44-1.38 2.11-2.03 2.5-2.4-1-1.91-2-3.81-3.23-6.17 1.41-.24 1.98-.34 2.66-.46-.71-2.35-1.41-4.67-2.11-7 .15-.09.3-.18.46-.27 1.54 2.48 3.08 4.95 5.25 8.44-.65-2.64-1.03-4.19-1.61-6.53 2.42 4.01 4.38 7.27 6.34 10.52.36-.13.71-.26 1.07-.39.87 18.58 1.73 37.17 2.64 56.69 1.19-3.03 2.11-5.37 3.25-7.86.22-.14.18-.17.18-.17-3.72 11.7-1.56 23.72-1.08 35.73 2.06-7.81 4.28-15.56 6.14-23.43 1.47-6.24 2.25-12.71 3.8-18.92.87-3.48 2.27-7.02 4.17-9.85 2.39-3.58 2.8-7.43 2.83-11.6.07-10.04.18-20.08.2-30.12.03-22.95.01-45.89.01-69.16-6.35-5.05-12.74-10.12-19.13-15.2.14-.33.27-.65.41-.98.85.17 1.69.34 2.6.52-2.03-2.81-4.11-5.45-5.96-8.3-1.81-2.78-4.95-4.64-4.94-9.26 2.64 2.15 4.97 4.04 7.3 5.94l.55-.61c-3.03-4.97-6.05-9.94-9.08-14.91l.96-.81c2.6 3.29 5.21 6.57 7.81 9.86.18-.15.37-.3.55-.44-1.53-3.6-3.05-7.2-4.77-11.25 3.48-.03 3.91 3.4 5.34 5.29 1.48 1.96 2.62 4.28 4.51 6.13l-2.1-6.63.72-.51c3.53 5.96 7.91 11.48 10.35 18.01 2.36 6.32 2.74 13.67 3.99 20.58.32-.06.65-.11.97-.17 0-3.5.01-7 0-10.51-.08-22.51-.22-45.02-.19-67.53 0-3.68-.61-6.67-3.73-7.91-9.39-3.73-12.82-13.68-17.24-22.63-.67-1.35-1.35-2.7-1.86-3.72 1.91-4.34-2.55-6.04-2.37-9.7l2.72 2.51c.52-.87 1.03-1.7 1.6-2.66 1.5 1.6 2.91 3.12 4.33 4.63l.68-.8c-1.65-3.1-3.31-6.2-4.96-9.31 4.92 4.52 10.59 8.29 11.52 16.54-.18-1.61-.36-3.22-.56-4.99 3.67 3.68 4.1 8.78 4.93 13.71.59 3.48 1.11 7.02 2.06 10.37.56 1.98 1.91 3.64 3.48 5.19-.18-12.95-5.46-25.18-2.5-38.94-4.46-2.42-8.98-4.87-13.62-7.39.25-8.86-7.39-10.72-10.23-17.16 1.41.77 2.83 1.54 4.24 2.31.1-.15.19-.31.29-.46l-5.98-5.59c.2-.36.41-.71.61-1.07 1.27.81 2.54 1.62 3.8 2.44.13-.14.26-.28.4-.41-2-2.17-4-4.34-6.16-6.67.48-.7.89-1.31 1.38-2.04 1.04.81 1.93 1.51 3 2.35.34-1.62.65-3.09 1.07-5.11 4.98 5.36 12.22 7.83 14.13 17.19 1.76-16.96 1.05-33.68 1.16-50.14 1.37-5.16 2.75-10.33 4.12-15.49.2.04.39.08.59.11.13 2.31.27 4.62.46 8.08 1.1-4.98 1.97-8.89 2.84-12.8.14.04.29.09.43.13v15.85c.2.06.41.13.61.19.76-3.36 1.51-6.71 2.27-10.07.15.06.3.13.45.19 0 4.28.01 8.56 0 12.84-.01 3.11.04 6.23-.13 9.34-.39 7.16-3.21 12.35-10.12 15.38l4.14 42.36c.34.06.68.12 1.02.17 1.56-20.66 3.92-41.12 11.06-61.18-.65 5.88-1.22 11.01-1.79 16.14.24.1.47.21.71.31 1.45-4.22 2.9-8.45 4.36-12.67.25.06.5.13.75.19l-.87 14.28c.37.24.73.48 1.1.72 1.04-1.58 2.08-3.16 3.49-5.31-1.27 11.64-5.44 30.92-15.65 33.96-.58 8.49-1.17 17.15-1.76 25.82.38.08.76.17 1.15.25 1.75-5.56 3.51-11.11 5.5-17.43.24 1.98.76 3.25.43 4.02-2.16 5.02-.08 10.03.02 15.15.19.13.14.09.14.09 1.49-.76 2.99-1.51 4.91-2.48.25 1.06.97 2.41.79 3.56-1.38 8.69-2.65 17.47-8.92 23.64-.75.74-1.52 2.08-1.53 3.16-.11 11.72-.07 23.43-.07 35.15.3.05.6.1.91.15 1.75-7.58 3.51-15.15 5.27-22.79h4.26c2.9-2.62 5.54-5.01 8.93-8.06-.42 2.51-.62 3.76-1.02 6.2 2.65-2.38 4.54-4.08 6.43-5.78.3.27.6.54.91.8-2.11 3.55-4.23 7.11-7 11.77 2.34-1.32 3.81-2.15 4.88-2.76-2.99 9.65-9.85 14.95-17.35 19.62-2.19 1.36-3.91 3.77-5.55 5.41v33.44c.39.14.78.28 1.17.41 1.04-12.23 2.54-24.22 11.47-32.38-.66 2.31-1.31 4.63-1.97 6.94l.51.42c3.2-4.63 6.39-9.26 9.59-13.9l.92.77c-1.35 3.34-2.69 6.67-4.04 10.01l.7.52 7.31-9.83c.35.34.71.67 1.06 1.01-2.03 4.14-4.07 8.27-6.1 12.41l.53.44c1.11-.94 2.21-1.89 3.32-2.83.21.19.43.37.64.56-1.35 2.12-2.77 4.18-4.04 6.36-1.83 3.13-3.45 6.43-5.35 9.49-1.26 2.03-2.64 4.11-4.33 5.59-3.69 3.24-7.6 6.11-11.07 8.85v83.67c.2.03.4.06.6.08 2.04-5.64 4.09-11.28 6.13-16.92.24.1.48.21.72.31l-.91 5.77c1.45-2.41 2.38-3.96 3.31-5.51.18.09.36.17.54.26-1.19 4.65-2.39 9.3-3.66 14.25.93-.28 1.51-.46 2.97-.9-2.87 7.09-5.51 13.43-7.99 19.84-.88 2.26-1.93 4.7-1.97 7.08-.19 13.19-.09 26.38-.09 39.08 7.23-9.84 6.91-22.81 8.46-35.01 5.39-42.25 14.48-83.31 27.59-123.14.34-1.04.74-2.06 1.41-2.99-10.47 47.9-22.38 95.38-27.96 144.58 3.93-19.43 7.32-39.03 11.92-58.23 4.69-19.6 10.13-38.99 16.03-58.13 5.86-19.02 12.07-37.95 19.26-56.3 7.2-18.37 15.81-35.97 24.23-53.66-22.28 70.35-46.63 139.79-61.22 213.63 2.8-4.16 5.32-8.17 8.08-11.94 2.84-3.88 5.92-7.52 8.89-11.26.23.23.47.46.7.69-3.39 5.19-6.86 10.3-10.13 15.59-3.31 5.35-6.42 10.87-9.62 16.31.31.33.63.66.94.99 1.54-1.4 3.08-2.79 4.73-4.3-6.11 16.54-12.13 32.84-18.15 49.15.38.24.77.48 1.15.72 2.17-3.83 4.51-7.55 6.49-11.51 12.26-24.44 24.71-48.76 36.51-73.5 4.23-8.86 6.34-19.09 10.26-28.19 11.5-26.67 23.81-52.8 40.54-75.59 2.93-3.99 5.96-7.89 9.18-11.62-21.02 33.7-36.82 71.06-55.08 106.68.31.23.62.45.93.68 6.82-12.79 13.63-25.57 20.45-38.36.25.18.5.36.76.54-2.3 4.59-4.62 9.17-6.88 13.78-6.9 14.06-14.6 27.68-20.4 42.35-4.7 11.9-7.58 24.91-10.42 37.69-3.64 16.4-6.44 33.06-9.59 49.61-.13.68-.08 1.41-.15 3.03 2.3-4 4.2-7.29 6.1-10.58-2.73 9.68-8.99 17.6-9.86 29.02.91-1.29 1.37-1.94 1.83-2.59-5.94 12.19-6.58 26-9.33 39.13.28.12.56.24.84.37 3.51-9.63 7.01-19.26 10.52-28.89.46.17.93.34 1.39.5-14.05 33.17-19.13 69.04-22.98 105.28 4.33-20.16 8.66-40.32 12.67-58.98v8.96c.28.1.57.2.85.3 1.96-6.54 4.1-13.02 5.85-19.63 9.76-36.87 18.55-74.14 29.37-110.56 10.51-35.38 23.05-69.93 34.78-104.8 1.2-3.55 2.98-6.83 4.92-10.02-2.92 9.49-5.86 18.98-8.77 28.47-19.25 62.85-38.29 125.77-54.64 189.79-3.17 12.39-7.89 24.23-11.1 36.6-3.55 13.65-5.69 27.69-6.45 42.05-.36 6.86-2.34 13.6-3.58 20.4l1.25.33c.98-5.46 1.96-10.93 2.96-16.48.41 1.16.87 2.43 1.8 5.06 1.6-7.79 3.13-14.4 4.3-21.1 12.62-72.22 31.46-142.2 54.71-210.56 4.77-14.02 10.13-27.77 15.22-41.64.09-.25.28-.45.7-1.1-10.54 38.36-20.94 76.23-31.35 114.11.17.09.34.19.52.28 1.15-1.87 2.3-3.74 3.19-5.2-14.25 46.02-23.74 94.14-34.45 141.96 1.11-2.45 2.22-4.91 3.33-7.36.3.1.6.21.9.31-.53 2.74-.93 5.52-1.6 8.21-3.02 12.09-6.12 24.15-9.2 36.21.39.16.77.32 1.16.47 1.01-2.36 2.01-4.71 3.02-7.07.31.07.62.13.93.2-5.95 16.89-8.45 34.4-7.54 52.53 4.3-25.69 12.05-50.58 13-77.11v13.86c3.81-13.87 5.65-28.13 7.34-42.51 1.18-9.99 3.97-19.72 6.03-29.56l1.06.3c-2.12 13.98-4.23 27.96-6.35 41.94.57.17 1.15.33 1.72.5 1.8-7.4 3.76-14.75 5.37-22.21 6.97-32.26 15.78-63.87 28.62-93.46 8.85-20.4 19.46-39.92 30.71-58.64 10.7-17.81 21.74-35.54 35.76-50.24 23-24.12 49.48-41.11 78.12-53.74 15.8-6.97 31.94-12.55 48.56-16.07.81-.17 1.64-.23 3.49-.49-26.86 9.32-51.33 22.14-74.57 38.04-26.41 18.07-50.54 39.8-70.23 67.53-13.2 18.59-25.01 38.53-35.27 59.6-7.39 15.18-14.26 30.72-21.24 46.17-1.32 2.93-2.05 6.24-3.05 9.38.38.25.76.49 1.14.74 9.41-16.24 18.83-32.48 28.24-48.72-.34-.29-.68-.59-1.03-.88l-3.46 5.23c-.22-.15-.44-.29-.66-.44 1.16-2.36 2.32-4.73 3.48-7.09-.11-.14-.22-.28-.33-.41l-3.57 3.49c6.41-18.11 16.03-32.52 25.35-47.27-1.49 5.01-3 10.01-4.47 15.03-6.39 21.86-9.49 44.48-11.69 67.38-1.66 17.35-4.07 34.6-6.06 51.91-1.73 15.02-3.33 30.05-4.38 45.34 1.19-1.97 2.37-3.94 3.56-5.91.36.12.72.25 1.08.37-7.7 9.29-6.69 20.68-6.51 32.46 3.46-4.24 4.07-9.36 5.32-14.26 4.43-17.45 8.92-34.88 13.7-52.19 11.54-41.78 23.23-83.49 34.92-125.21 1.32-4.72 3.02-9.3 4.78-13.84-14.77 60.56-33.16 119.78-48.59 180.08.43.21.86.43 1.29.64l7.05-11.43c-3.83 11.19-13.17 19.95-9.99 34.73 2.52-7.97 9.94-11.88 10.33-21.1.39 1.84.77 3.68 1.17 5.54-4.96 28.24-8.33 56.78-9.06 86.57 4.33-26.14 8.54-51.49 12.74-76.84l1.59.33c-2.08 15.9-4.15 31.79-6.36 48.67 3.97-13.84 7.67-26.72 11.37-39.6l.38.09c-.25 1.75-.51 3.5-.87 5.97 6.31-10.01 6.86-21.31 8.92-32.25-.13 2.05-.23 4.11-.39 6.16-.17 2.2-.4 4.4-.22 6.76 5.51-10.71 10.64-21.57 18.92-31.02-3.71 7.66-6.84 14.52-10.29 21.15-3.53 6.79-3.11 14.57-4.25 21.93-1.48 9.55-2.41 19.22-3.5 28.85-.24 2.12-.2 4.28.05 6.56 6.34-20.36 11.91-41.07 21.96-59.53-9.86 30.53-21.05 60.61-22.44 93.89.33.08.66.15.99.23.92-7.24 1.51-14.56 2.84-21.69 1.36-7.34 3.13-14.62 5.3-21.68 2.14-6.95 4.7-13.77 7.63-20.3 2.97-6.63 6.62-12.84 9.97-19.23.34.22.68.44 1.01.66-2.09 6.32-4.19 12.64-6.28 18.96.31.16.63.31.94.47 6.47-10.22 10.96-21.65 14.53-34.19.26.97.43 1.61.69 2.61 1.49-2.37 2.9-4.62 4.31-6.87l.23.23c-5.77 14.22-11.54 28.45-17.64 42.72-.42-.33-.51-.71-.84-2.1-3.99 11.19-7.67 21.54-11.36 31.89.51.25 1.02.49 1.53.74 2.23-6.68 4.41-13.38 6.72-20.02 1.21-3.5 2.64-6.89 3.97-10.32-1.67 10.4-3.48 20.76-4.95 31.2-.81 5.76-1.04 11.63-.72 17.72.38-.9.79-1.79 1.14-2.71 2.27-5.97 4.73-11.86 6.71-17.96.94-2.91 1.95-6.6 1.22-9.3-1.98-7.33-1.44-14.21.63-21.21.91-3.07 1.68-6.19 3.09-9.17-.62 3.82-1.12 7.66-1.89 11.44-1.8 8.93-1.85 8.91.98 18.98 2.33-5.61 4.31-10.85 6.65-15.85 1.86-3.98 3.86-7.97 6.33-11.43 4.28-6 5.95-13.28 8.14-20.36.57-1.86 1.1-3.74 2.22-5.44l-1.59 8.3c.38.17.75.33 1.13.5 2.96-9.07 5.93-18.13 8.89-27.2.12.04.25.08.37.12-1.23 5.15-2.46 10.29-3.73 15.62 5.86-7.91 11.59-15.64 17.31-23.36.27.28.55.56.82.84-2.96 3.96-5.99 7.85-8.88 11.88-11.01 15.34-16.63 33.9-22.3 52.4-.77 2.51-.69 5.39-.93 8.47-.74 4.66-1.57 8.95-2.39 13.24l.64.12c1.25-4.82 2.49-9.64 3.8-14.72-.76.64-1.24 1-1.72 1.37zm-250.5-226.72c2.15 5.36 4.29 10.72 6.44 16.08.14-3.78-.03-7.19-.69-10.46-.51-2.5-1.65-4.82-2.05-7.61-.05-1.03.24-2.36-.2-3.04-2.02-3.13-4.25-6.08-6.4-9.1-.26.16-.52.32-.77.48.58 4.39 1.17 8.78 1.74 13.09.8.01 1.4.01 1.93.56zm37.15 113.44c-1.04-.79-2.08-1.58-3.3-2.51v12.16c1.22-3.05 2.5-6.27 3.5-8.82-3.57 12.25-3.29 24.43.68 37.21 6.51-13.13 1.75-25.48-.88-38.04zm204.6 123.44c-1.73 3.66-4.44 7.13-5 11.03-1.39 9.72-1.79 19.64-2.59 29.47.46.08.93.15 1.39.23.78-3.93 1.89-7.81 2.26-11.8.39-4.22.09-8.52.09-12.79.14-.01.29-.02.43-.02l1.15 11.08c1.78-7.69 3.48-14.06 4.67-20.57.74-4.03.72-8.27 1.2-12.96 1.06-6.43 2.12-12.87 3.19-19.3-3.41 8.35-7.55 16.34-9.62 25.99 1.45-.53 2.12-.78 2.83-.36zM213.5 543.09c1.52 23.83 1.06 48.02 9.36 70.67.22-8.32-.09-16.58-.67-24.82-.61-8.8-1.43-17.58-2.26-26.36-.33-3.48-.96-6.93-.86-10.7-.69-9.49-1.41-18.98-2.05-28.47-1.23-18.4-2.4-36.8-3.6-55.31-.25 1.74-.62 3.41-.72 5.09-.62 10.84-1.82 21.7-1.58 32.51.27 12.32 1.84 24.62 2.38 37.39zm65.74-19.99c-1.82 3.52-3.93 6.89-5.38 10.61-2.28 5.86-5.56 11.88-5.84 17.99-.71 14.98-.01 30.05.27 45.08.06 3.43.72 6.85 1.11 10.27.39-.01.77-.03 1.16-.04.24-3.02.37-6.06.74-9.07 2.19-17.82 4.56-35.61 6.59-53.45.83-7.32.97-14.74 1.34-22.68.43-1.31 1.03-2.58 1.28-3.94 1.62-8.93 3.13-17.89 4.76-26.82 1.23-6.69 2.63-13.34 3.88-20.03 1.25-6.67 2.41-13.37 3.61-20.06l-1.02-.45c-7.18 16.9-18.71 31.28-19.67 51.8-.44 9.35-2.25 18.59 1.65 27.53 1.85-2.5 3.73-5 5.52-6.74zm66.88 35.69c-2.56 9.24-5.12 18.47-7.67 27.71.4.16.81.32 1.21.49 2.64-8.74 5.34-17.46 7.9-26.23.81-2.76 1.26-5.66 2.17-9.03 1.36-2.78 2.73-5.56 4.09-8.34-6.02 18.77-10.99 37.89-16.08 56.97.32.13.64.26.96.4 1.61-2.8 3.21-5.6 4.82-8.4-.62 3.9-1.9 7.43-2.69 11.1-.76 3.55-1 7.26-1.47 10.9l.7.09c.16-.67.33-1.35.49-2.02h.5v20.07c.7-1.75 1.14-3.53 1.26-5.34 1.1-17.81 4.81-35.04 10.68-51.27 6.7-18.53 8.28-38.06 10.58-57.51 1.71-14.47 2.89-29.02 4.17-43.55.68-7.69 1.06-15.42 1.58-23.12l-.52-.06c-6.73 27.71-13.46 55.42-20.39 83.94 2.14-2.1 3.69-3.63 5.23-5.15-2.61 5.41-5.76 10.17-8.05 15.44-2.23 5.16-3.62 10.84-5.31 16.31-1.73 5.6-3.6 11.16-4.98 16.88-1.33 5.51-2.13 11.2-3.15 16.81 3.6-9.33 6.42-18.86 9.56-28.26 1.11-3.35 2.98-6.33 4.41-8.83zM234.29 372.95l-7.2-75.33c-.38-.06-.76-.13-1.14-.19-3.4 6.01-8.11 10.7-7.72 19.58.9 20.75.82 41.56 1.26 62.35.07 3.11.31 6.41 1.27 9.26 4.3 12.81 8.88 25.49 13.39 38.28 4.1-8.56 4.67-11.93 3.86-19.06-1.31-11.37-2.44-22.75-3.72-34.89zm-30.32-65.83c-5.43-3.01-5.03-9.73-7.58-15.84 2.49 1.77 4.16 2.96 5.87 4.18 1.2-4.12-.33-7.58-3.69-9.49-3.67-2.1-7.25-4.43-10.75-6.59 2.14 21.93 6.95 44.43 5.74 68.64 2.83 3.13 6.34 7 10.63 11.74-.53-4.1-.89-6.89-1.22-9.48-6.29-3.81-10.06-16.5-6.62-23.39.29 2.71.51 4.81.76 7.12 1.3.18 2.43.34 4.1.57.87 3.03 2.36 6.17 2.61 9.44 1.15 15.02 7.49 27.36 14.37 39.63-.06-18.04-.1-36.06-1.11-54-.54-9.75-4.26-18.12-13.11-22.53zm72.7 155.77-1.65 11.7c1.18-.45 1.66-1.18 2.08-1.97 5.07-9.56 10.16-19.09 15.14-28.71.93-1.79 1.6-3.85 2.03-5.89 3.6-17.16 7.02-34.37 10.68-51.51 2.52-11.83 5.34-23.58 8.01-35.32-.13.16-.37.39-.52.67-9.5 17.74-18.95 35.53-28.51 53.23-8.71 16.15-11.95 32.19-9.56 48.2 4.31-17.85 11.91-34 19.71-50.08-.27 2.55-.9 4.94-1.64 7.28-5.46 17.14-12.97 33.4-15.77 52.4zm68.71 27.64c-3.36 10.67-6.72 21.33-10.08 32 .4.2.8.4 1.19.6 2.6-4.63 5.21-9.25 7.31-12.98-2 13.72-4.13 28.27-6.25 42.82.31.07.61.13.92.2 12.77-35.06 18.08-72.7 27.51-108.91-.42-.21-.84-.42-1.27-.63-6.37 15.43-12.74 30.87-19.33 46.9zm22.26-64.76c-4.15 7.15-7.77 14.84-12.57 21.32-8.26 11.15-16.18 22.2-19.1 37.22-1.74 8.93-4.54 17.58-6.86 26.35.29.15.58.31.87.46 4.76-8.74 9.77-17.3 14.18-26.27 3.26-6.64 5.48-13.98 8.64-20.7 3.79-8.06 7.72-16.1 12.27-23.56 3.17-5.2 3.94-10.7 4.53-17.82-.95 1.46-1.3 2-1.96 3zm-168.88 13.18c1.96 17.56 3.81 35.13 5.97 52.66.64 5.15 2.16 10.15 3.28 15.22l1.49-.3v-64.59c-3.94-5.5-6.09-13.15-12.64-17.68.7 5.23 1.27 9.58 1.9 14.69zM256.58 456c1.37-7.57 3.13-15.08 4.04-22.73 2.35-19.8 4.23-39.67 6.52-59.47.54-4.62 1.98-9.09 3.01-13.63-1.89 2.89-3.41 5.98-4.31 9.29-2.98 10.95-5.86 21.93-8.51 33-1.3 5.43-2.84 11.08-2.77 16.61.14 12.15 1.22 24.29 2.02 36.93zm76.25 87.7c-7.5 28.25-9.91 57.41-11.28 86.8a4.42 4.42 0 0 0 1.2-2.53c1.25-9.02 2.52-18.04 3.66-27.08 1.87-14.79 4.26-29.32 8.36-43.62 3.32-11.62 4.39-24.13 6.46-36.24-.31-.12-.62-.24-.94-.36-1.54 3.49-3.35 6.85-4.53 10.49-1.24 3.81-1.88 7.89-2.93 12.54zm-69.94-89.89c-2.48 9.88-2.7 20.01-2.47 30.29 2.55-4.19 5.96-8.22 6.77-12.88 3.1-17.84 3.44-36.02 2.93-54.53-.34.54-.61.8-.69 1.13-2.61 10.83-5.24 21.65-7.74 32.52-.17.79.62 1.88 1.2 3.47zm-37.38 31.67c.22.56.44 1.13.76 1.98 3.86-16.15.51-39.4-8.91-60.68 0 7.06-.78 13.22.16 19 2.13 13.14 5.09 26.09 7.99 39.7zm17.51-58.26c.83 6.79 1.67 13.58 2.5 20.37 5.08-16.72 5.42-33.73 4.04-51.86-2.1 4.64-3.67 8.62-5.63 12.31-2.1 3.96-2.88 8.01-1.98 12.56.39 1.95.56 3.94 1.07 6.62zm-88.3 122.3c1.58 5.52 3.11 11.06 4.75 16.56 1.63 5.49 3.36 10.94 5.04 16.41.46-.2.92-.4 1.37-.6-6.08-32.46-16.37-63.18-28.7-93.04 5.77 20.03 11.52 40.04 17.54 60.67zm68.18-301.77c-.6-2.6-1.21-5.2-1.81-7.8-.3.03-.59.07-.89.1-.22 1.99-.44 3.99-.69 6.33-.95-1.99-1.77-3.69-2.58-5.39-.34.18-.69.37-1.03.55 1.75 9.79 3.51 19.57 5.11 28.54 5.68 4.43 4.18 12.32 7.17 17.5.33-.08.66-.15.99-.23-2.04-12.96-4.08-25.94-6.27-39.6zm-97.2 354.99c-3.36-12.23-7.83-23.82-14.23-34.36 5.37 20.03 10.75 40.06 16.12 60.09.47-.16.94-.33 1.42-.49a37388 37388 0 0 0-4.4-21.16c.83 1.2 1.57 2.26 2.32 3.33.15-.09.29-.18.44-.28-.52-2.15-1.04-4.3-1.67-7.13zm84.16-181.15c-.47-8.38-7.13-27.08-12.03-33.36 3.03 16.13 5.1 32.17 12.11 47.15 0-4.86 0-8.94-.08-13.79zm15.13 104.93c.07.66.14 1.31.32 3.14 1.15-9.31-5.08-55.86-8.91-68.73-.25 22.35 2.89 43.88 8.59 65.59zm13.44 68.76c-1.85-22.44-3.7-44.88-5.56-67.31-.41.05-.83.09-1.24.14.23 29.15 4.26 57.9 7.41 86.75 1.82-6.42.3-12.63-.61-19.58zm152.09 34.59c-.2 2.49-.41 4.97-.61 7.46.24.03.48.05.73.08.52-3.92 1.05-7.85 1.69-12.63l1.43 5.85c.61-6.8 1.16-12.92 1.72-19.03l.92.12-.63 9.15c.16 0 .32.01.47.01l6.06-37.44c-7.14 14.13-10.89 29.39-11.78 46.43zm-146.78-47.66c.33 4.41.48 8.86 1.05 13.22.55 4.27 1.53 8.46 2.31 12.69.48-.1.96-.21 1.44-.31l-3.27-55.17c-.35.02-.7.05-1.05.07-3.17 9.46-1.02 19.12-.48 29.5zM265.4 404.8c-.94 8.48-1.88 16.96-2.83 25.43 7.19-17.08 8.17-41.17 7.14-60.82-1.39 11.55-2.79 23.09-4.31 35.39zm1.25 80.62c.46-3.02.92-6.05 1.45-9.49-7.7 7.02-12.04 24.39-8.82 37.74 2.43-9.18 4.87-18.36 7.37-28.25zm87.06 100.25c-1.05 5.26-2.29 10.48-3.08 15.8-.8 5.33-1.17 10.75-1.7 16.14-.51 5.16-.98 10.33-1.47 15.49.57.08 1.15.16 1.72.25 2.79-19.82 5.57-39.64 8.36-59.45-.3-.07-.6-.14-.9-.22-.9 3.78-1.79 7.57-2.93 11.99zm-73.42-16.96c-4.59 19.86-6.24 43.16-4.21 50.01 2.4-19.66 5.01-40.99 7.61-62.33-.11-.04-.22-.09-.32-.13-.98 3.92-1.95 7.84-3.08 12.45zm88.56 2.38c-.56 2.58-1.36 5.12-1.64 7.74-1.22 11.17-2.41 22.35-3.36 33.56-.65 7.62-.88 15.3-1.3 22.95l.74.03c2.55-22.01 5.09-44.03 7.64-66.04l-.69-.27c-.38.48-.75.97-1.39 2.03zM239.78 457.31c2.28 9.45 4.55 18.91 6.83 28.36 1.74-12.4-1.1-24.06-2.63-35.9-.34-.1-.68-.2-1.02-.31-1.16 2.45-2.31 4.9-3.18 7.85zM87.64 515.22c5.44 15.1 11.23 29.98 19.29 43.42.32-.2.64-.39.97-.59-1.73-3.9-3.46-7.8-5.15-11.6.35.1.86.24 1.72.48-2.66-5.76-5.08-11.28-7.72-16.64-2.6-5.26-5.42-10.38-8.2-15.51-.13-.24-.79-.06-.91.44zm37.26 57.4c1.1 4.8 2.15 9.62 3.33 14.4 1.13 4.59 2.41 9.12 3.7 13.94 1.15-17.18-2.97-32.01-12.15-44.83 1.63 5.28 3.26 10.57 5.12 16.49zm247.4 11.64-2.31 23.97.78.12 8.97-46.15c-4.22 6.35-7.04 13.27-7.44 22.06zM140.45 609.3c-2.09-7.71-4.19-15.42-6.28-23.13l-1.38.54c2.17 15.62 7.07 30.22 11.98 44.82.3-.1.6-.21.9-.31-1.67-7.08-3.34-14.18-5.22-21.92zm196.26-104.7c-4.71 10.26-8.98 20.71-10.97 32.8 4.77-3.04 8.69-14.44 12.92-36.54-.72 1.38-1.21 2.3-1.95 3.74zm-94.91 21.52c-.26-2.56-.52-5.11-.83-8.09-4.07 6.53-2.94 24.75-.92 33.87.34.01.68.03 1.02.04.25-8.33.49-16.67.73-25.82zm-23.72-232.61c.53-.58 1.05-1.16 2.16-2.38.38 4.31.68 7.68 1.02 11.43 1.77-4.27 3.32-8 5.49-13.22-2.07-1.6-4.81-3.71-7.94-6.13-.13.33-.87 1.49-.98 2.73-.24 2.4-.12 4.84.25 7.57zm-20.66 253.72c-2.57-9.99-5.13-19.97-7.7-29.96-.37.13-.74.26-1.1.39 3.46 15.32 6.91 30.64 10.37 45.97.4-.12.8-.23 1.21-.35-.85-5.14-1.68-10.27-2.78-16.05zm-3.07-150.79c.19 11.13-1.01 22.79 8.84 30.27-1.48-5-2.98-9.86-4.34-14.78-1.43-5.11-2.72-10.27-4.5-15.49zm69.57 125.47c.95-7.57 1.89-15.14 2.84-22.7-5.16 10.51-6.26 34.21-5.18 43.24.73-6.6 1.47-13.2 2.34-20.54zm22.77 86.19c.5-2.94 1.05-5.87 1.49-8.82.42-2.82.77-5.65 1.05-8.49.28-2.78.43-5.58.64-8.38l-.94-.12c-2.83 11.07-5.72 22.14-4.08 34.16.54-2.55 1.08-5.11 1.84-8.35zm-181.28 18.5 5.04 17.97c.47-11.2-.66-21.77-8.3-30.23 1.12 4.08 2.15 7.83 3.26 12.26zm101-46.8c-.6-2.51-1.19-5.02-1.79-7.53-.53.16-1.06.31-1.6.47l5.52 35.8 1.23-.24c-1.05-9.27-2.09-18.54-3.36-28.5zm30.25-139.26c.25 1.13.49 2.25.74 3.38.26-.04.51-.09.77-.13l1.8-22.78c-.35-.04-.69-.07-1.04-.11-2.95 5.93-4.48 12.12-2.27 19.64zm205.23 204.43v11.44c.44-.01.89-.02 1.33-.02l2.1-34.96c-.28-.04-.56-.07-.84-.11-.87 7.62-1.73 15.24-2.59 23.65zM252.54 452.55c-1.87 6.7-3.93 13.37-2.21 21.12 4.31-7.87 3.11-16.09 2.55-24.21-.07.82-.13 1.65-.34 3.09zm56.66 122.22-.18 2.8c.3.08.6.17.9.25l6-25.18c-.45-.16-.9-.32-1.35-.47-2.85 6.91-4.18 14.4-5.37 22.6zm-57.36-74.4c3.97-7.77 1.39-16.36 2.18-24.54-2.53 7.93-2.76 16.21-2.18 24.54zm74.53 59.3c.2-.66.49-1.31.59-1.99.1-.68.02-1.41.02-2.98-3.3 8.19-6.26 15.54-5.48 24.02.4.12.81.23 1.21.35 1.16-6.25 2.33-12.49 3.66-19.4zm-74.45-114.32v-12.31c-1.02 4.64-2.11 8.68-2.76 12.83-.62 3.92-.77 7.93-1.13 11.91l1.08.18c.89-3.95 1.78-7.91 2.81-12.61zm26.3-65.99v-3.79c-4.29 5.35-4.97 9.13-3.84 21.46 1.39-6.45 2.53-11.72 3.84-17.67zm140.1 242.96c.48-2.46.95-4.92 1.62-8.39-5.48 8.81-4.71 18.2-5.85 27.08.29.08.59.16.88.23 1.09-6.07 2.18-12.14 3.35-18.92zM210.07 383.46c-.91-2.29-1.82-4.59-2.73-6.88.96 7.33 1.52 14.79 5.44 20.89.41-.16.81-.32 1.22-.48-1.23-4.31-2.45-8.63-3.93-13.53zM93.62 636.84c-.3-.11-.6-.21-.91-.3-.01 0-.12.25-.09.34 1.94 6.37 3.9 12.73 5.85 19.09-.11-4.89-.81-9.61-1.9-14.19-.4-1.67-1.73-3.03-2.95-4.94zm135.67-131.57c-.11-.05-.23-.14-.34-.13-.06 0-.16.17-.16.25.49 7.13.99 14.27 1.49 21.4.32-.03.64-.05.96-.08.51-7.06 1.2-14.12-1.95-21.44zm82.34 82.86c-2.88 9.66-4.86 19.54-5.37 29.76 1.16-4.79 2.18-9.6 3.13-14.44 1.06-5.4 2.05-10.81 3.07-16.22-.19-.01-.38-.05-.55-.02-.05.01-.07.26-.28.92zm90.96-10.3c.42-1.91.83-3.82 1.25-5.73-.43-.17-.85-.34-1.28-.52l-6.51 17.7c.38.22.75.43 1.13.65 1.73-3.84 3.46-7.66 5.41-12.1zm-193.85-51.52c-.61-4.32-1.22-8.64-1.82-12.95-.31.06-.62.12-.93.19.76 7.94 1.53 15.88 2.29 23.83.18-.02.36-.05.55-.07-.01-3.41-.01-6.81-.09-11zm62.9 1.63c-.37-1.1-.74-2.19-1.12-3.29-.24.05-.48.1-.71.15-.41 4.69-.82 9.39-1.24 14.08 2.54-3.05 4.45-6.14 3.07-10.94zM72.67 643.35c.31.79.63 1.59.94 2.38.25-.09.51-.18.76-.27-1.53-7.6-3.05-15.2-4.58-22.8l-1.1.3c1.3 6.59 2.59 13.18 3.98 20.39zm359.53-8.94c.28-2.36.55-4.72.83-7.08-.37-.07-.75-.15-1.12-.22l-3.03 20.57 1.12.24c.73-4.26 1.45-8.52 2.2-13.51zm-264.02-76.98-6.87-24.06c-.31.13-.62.27-.93.4 2.65 9.07 5.31 18.13 7.96 27.2.17-.06.34-.12.52-.17-.17-.91-.35-1.83-.68-3.37zm-72.47 74.34-2.43-9.79c-1.17 5.19-1.96 10.22 2.76 13.77-.08-1.38-.14-2.36-.33-3.98zM205.3 557.4c-.48-1.29-.95-2.58-1.43-3.87-.57 5.34-1.54 10.55 1.88 15-.14-3.47-.29-6.94-.45-11.13zm119.08-2.12c4.67-3.44 4.22-9.54 5.66-14.66-.36-.17-.72-.34-1.08-.52-1.58 4.85-3.15 9.7-4.58 15.18zm-9.62 54.21c-.73 6.69-1.47 13.39-2.2 20.08.36.04.72.09 1.09.13l2.37-24.91c-.1-.02-.2-.04-.31-.06-.3 1.36-.59 2.72-.95 4.76zm-68.67-116.6c-.46-.99-.92-1.97-1.37-2.96-.21.11-.43.23-.64.34.5 5.47.99 10.94 1.49 16.41.21-.02.41-.03.62-.05-.02-4.36-.02-8.73-.1-13.74zm70.3 50.41c-.06 1.71-.13 3.41-.19 5.12.26.01.51.03.77.04.72-4.45 1.43-8.9 2.15-13.35-.36-.09-.71-.18-1.07-.28-.53 2.59-1.06 5.17-1.66 8.47zm-52.7 24.47c.27-5.08.54-10.16.82-15.24l-.93-.06c-.26 6.3-.52 12.6-.77 18.9.26.01.51.03.77.04.02-.97.06-1.95.11-3.64zm-43.32-164.63c-.71-2.64-1.43-5.27-2.14-7.91-.29.1-.57.21-.86.31l4.02 16.31c.27-.09.54-.18.81-.26-.54-2.6-1.09-5.19-1.83-8.45zm-94.31 231.48-1.47-10.42c-.33.07-.67.15-1 .22l2.55 14.25c.1-.01.19-.03.29-.04-.08-1.12-.15-2.23-.37-4.01zm61-20.11-.81-7.84-.84.12c.25 4.11.49 8.22.74 12.33.31-.02.62-.05.93-.07 0-1.28 0-2.56-.02-4.54z"/><path d="M268.15 193.24c-1.69-1.27-3.2-2.48-4.82-3.4-4.53-2.57-8.34-5.73-11.2-11.03-2.96-5.49-7.32-9.9-10.72-15.09-1.85-2.82-2.96-6.31-3.69-10.03 1.11 1.15 2.22 2.31 3.34 3.46.29-.2.57-.4.86-.61-2.04-3.98-4.09-7.96-6.13-11.94.25-.25.5-.49.74-.74 3.25 4.32 6.5 8.63 9.75 12.95l.39-.21c-2.13-4.89-4.27-9.78-6.4-14.66.16-.1.32-.21.47-.31 1.9 2.14 3.79 4.27 6.16 6.93-.6-2.08-.99-3.47-1.39-4.86.23-.17.45-.35.68-.52 2.55 4.13 5.11 8.27 7.4 11.97.74 2.67 1.36 4.88 2.09 7.51 1.32-1.03 2.09-1.62 2.83-2.21 6.73 9.99 6.13 23.13 11.34 34.58-.88-.9-1.22-1.24-1.7-1.79zM368.97 378.39c-.46.84-.77 1.44-1.47 2.81 8.36-40.61 13.67-81.24 27.46-119.19-1.78 10.02-3.8 19.99-5.3 30.07-2.76 18.57-5.28 37.2-7.73 55.83-.66 5.01-1.72 9.62-4.22 13.88-3.08 5.27-5.74 10.89-8.74 16.6zM303.63 133.38c-1.48 3.57-2.51 7.11-4.23 10.1-1.65 2.88-3.69 5.83-6.15 7.61-4.42 3.2-8.3 6.75-10.69 12.29-.24.56-.85.9-1.35 1.41-1.12-4.28 6.07-31.54 10.02-38.14.13 1.22.23 2.24.32 3.11l11.12-17.16c.42.3.85.6 1.27.9-1.53 3.95-3.05 7.9-4.58 11.85.15.11.3.22.45.32 2.65-3.54 5.3-7.09 7.95-10.63.19.15.37.3.56.45-2.51 4.68-5.01 9.36-7.52 14.04.12.16.25.32.37.48 2.16-2.79 4.31-5.58 6.47-8.37.21.13.42.27.63.4-1.49 3.69-2.99 7.39-4.64 11.34zM398.81 352.62c3.23-4.76 6.3-9.27 9.38-13.78.26.2.52.39.78.59-7.47 28.39-15.87 56.37-26.06 83.56-.57-.19-1.13-.39-1.7-.58 2.73-13.27 5.35-26.57 8.23-39.79 1.34-6.17 3.03-12.25 4.85-18.25 1.19-3.95 2.89-7.68 4.52-11.75zM236.88 42.4c2.03 2.82 3.88 5.43 5.73 8.04.16-.09.31-.18.47-.27-.89-2.41-1.77-4.82-2.66-7.23.28-.23.56-.45.83-.68 2.78 4.32 5.56 8.64 8.35 12.97.13-.53.34-1.44.86-3.61 1.32 2.19 2.42 3.44 2.93 4.97 2.43 7.2 4.7 14.48 7.45 23.08-5.88-3.71-11.07-6.78-16.06-10.28-1.09-.76-1.43-3.01-2.24-4.42-2.55-4.08-5.1-8.16-7.99-12.78 1.28.19 1.82.26 2.94.43-1.91-2.85-3.55-5.3-5.19-7.74.11-.11.21-.22.32-.33l4.2 3.73c-.3-2.65-.49-4.34-.67-6.03-.01-.05.12-.18.19-.18.13.01.25.08.54.33zM414.57 297.1c5.62-12.66 11.14-25.02 17.11-38.39-3.96 14.71-7.57 28.22-11.26 41.71-.4 1.45-1.12 2.91-1.99 4.04-10.99 14.27-22.04 28.49-32.98 42.6 1.48-2.84 2.9-6.19 4.79-9.11 5.46-8.41 11.31-16.46 16.59-25.01 2.97-4.82 5.11-10.34 7.74-15.84zM466.35 662.21c-.6-.83-1.29-1.77-1.16-2.49 3.82-20.51 7.72-41 12.31-61.35-1.76 14.95-3.52 29.89-5.27 44.84.16.04.33.09.49.13.17-.71.34-1.43.52-2.14.2.02.41.04.61.05-.55 6.85-1.1 13.7-1.65 20.65-2.01.11-3.78.21-5.85.31zM254.95 372.22c-.53-5.72-1.14-11.44-1.61-17.19-.14-1.69.12-3.42.19-5.18 1.01-.7 1.93-1.33 3.09-2.12 1.02-2.99 2.13-6.23 3.23-9.47l.49.15c-.27 2.29-.54 4.57-.94 8 1.26-3.25 2.13-5.52 3.01-7.78.24.09.48.17.72.26-.65 3.77-1.3 7.54-2.11 12.22 1.76-1.8 3.02-3.09 5.08-5.21-2.86 7.58-5.38 14.43-8.03 21.21-.69 1.77-1.76 3.33-2.92 5.02-.25.04-.21.07-.2.09zM194.56 263.71c-5.94-6.89-7.64-13.39-5.15-19.34.67.33 1.34.69 2.03.97.14.06.38-.21.58-.34.11.94.22 1.85.44 3.7.98-3.86 1.72-6.76 2.46-9.66h.84c.42 2.35.83 4.69 1.27 7.15.44.13 1.08.32 2.22.66-.86 6.04-1.69 11.92-2.59 18.31-1.09-.73-1.48-1-2.1-1.45zM61.61 642.63c.86 6.54 1.7 12.72 2.61 19.35-1.83-.19-3.07-.32-4.38-.46-.39-10.19-.76-20.17-1.14-30.15l.58-.15c.76 3.68 1.54 7.36 2.33 11.41zM317.52 384.07c2.36-4.98 4.58-9.69 6.79-14.4.32.21.65.42.97.63-5.12 11.24-10.23 22.47-15.35 33.71l-.9-.51c1.28-3.14 2.51-6.31 3.86-9.41 1.44-3.29 2.99-6.51 4.63-10.02zM49.6 643.05c1.44 16.77 1.44 16.77-1.01 18.67v-25.31c.11-.03.22-.05.32-.08.22 2.11.43 4.23.69 6.72zM481.64 648.36c.43-2.56.79-4.78 1.15-6.99-.37 6.81 1.07 13.98-1.75 20.28-.56-.11-1.11-.22-1.67-.34.73-4.2 1.46-8.4 2.27-12.95zM32.75 659.82c.49-6.74.92-13.12 1.35-19.5.13 0 .27 0 .4.01v22.15c-1.03-1.31-1.42-1.81-1.75-2.66zM63.07 602.96c-.73-2.43-1.58-4.81-2.19-7.27-.63-2.55-1.02-5.19-1.52-7.78.3-.09.6-.17.91-.26.98 4.9 1.97 9.81 2.85 15.04-.11.32-.07.29-.05.27zM278.41 125.25c.56-3.74 1.09-7.51 1.62-11.27 2.92 4.47-.5 7.35-1.48 11.05-.2.15-.16.2-.14.22zM55.83 656.39c-.42 2.06-.78 3.78-1.14 5.51l-1.44-.48c.88-3.42 1.77-6.83 2.65-10.25l.57.06c-.19 1.62-.38 3.22-.64 5.16z"/></g></svg>