<svg xmlns="http://www.w3.org/2000/svg" xmlns:xlink="http://www.w3.org/1999/xlink" xml:space="preserve" id="Layer_1" version="1.1" viewBox="-52.05 0 684.34 684.34"><defs><path id="SVGID_3_" d="M0 0h580.24v684.34H0z"/></defs><clipPath id="SVGID_2_"><use xlink:href="#SVGID_3_" overflow="visible"/></clipPath><g clip-path="url(#SVGID_2_)"><path d="M475.53 641.38c-1.8 2.91-3.83 5.65-5.34 8.79-1.45 3.01-2.36 6.43-3.65 10.09-31.55-1.37-63.88-2.77-96.21-4.18l-.03 1.45h16.04c0 .19 0 .37.01.56-.46.03-.92.05-1.38.1-8.73.98-17.46 1.98-26.19 2.93-7.76.84-15.53 1.68-23.3 2.43-8.88.86-17.76 2.06-26.66 2.31-10.09.28-20.19-.18-30.28-.6-7.28-.31-14.55-1.03-21.82-1.66-12.11-1.06-24.24-2-36.33-3.39-6.19-.71-12.31-2.31-18.12-3.45h25.96l-.03-1.43c-47 1.63-93.99 3.25-141.45 4.89C77.43 636.55 66 613.57 48.6 596.2c11.56 8.88 21.67 19.66 28.32 35.02.27-.2.54-.39.82-.59-4.93-23.03-9.86-46.05-14.8-69.08.25-.1.49-.21.74-.31 3.76 14.44 7.48 28.89 11.3 43.3 3.81 14.39 4.48 30.08 11.03 43.38l-8.26-55.68c.35-.09.69-.17 1.04-.26l6.09 35.08c.25-.07.5-.13.75-.2-2.55-16.06-5.09-32.11-7.64-48.17 3.38 8.64 5.36 18.05 10.32 25.53.25-.12.5-.25.75-.37-1.3-5.12-2.37-10.36-3.96-15.33-1.69-5.25-3.84-10.28-5.86-15.35-1.98-4.96-4.05-9.85-6.08-14.78.29-.22.58-.43.87-.65 4.05 8.03 8.09 16.06 12.14 24.1.2-.01.4-.03.61-.04-.06-1.48.02-3-.2-4.44-.24-1.57-.75-3.07-.69-4.87 3.63 6.26 7.26 12.52 10.9 18.78-1.68-10.07-.7-21.39-8.94-28.29.23-.24.45-.48.68-.72l3.96 3.54c-.35-1.66-.63-3-.95-4.53l13.41 26.94.95.03 2.19-29.58.28.03v22.69l.51.12c.13-.41.18-.9.39-1.2 5.04-7.15 3.84-14.39.75-22.16s-5.54-15.94-8.45-24.44c6.93 9.57 10.05 21.33 14.28 32.47 1.3-3.09 2.53-5.98 3.94-9.34-1.12-1.87-2.48-4.13-4.36-7.26 1.6.82 2.46 1.25 3.46 1.76-.21-1.56-.41-3.02-.61-4.47.12-.05.23-.09.35-.14.85 2.82 1.7 5.63 2.45 8.14 2.93-2.06 5.65-3.98 8.89-6.25-3.5-10.23-7.21-21.08-10.93-31.93.17-.12.35-.23.52-.35 5.08 11.31 10.15 22.62 15.67 34.91v-36.89c-4.58-8.18-10.82-15.5-18.49-20.84-7.33-5.1-13.49-3.72-18.84 4.34-.55.84-1.08 1.7-1.63 2.58-2.7-3.14-1.86-8.33 1.57-11.34 3.56-3.13 7.57-2.51 11.44-1.74 9.92 1.97 18.8 6.7 25.63 16.44.19.27.49.41.78.64-.47-4.28-.93-8.49-1.46-13.39-13.92-30.8-28.66-61.89-45.68-91.18 19.59 23.87 34.69 52.04 49.09 81.97.86-26.14 5.55-51.18 4.27-77.64-4.31-5.36-8.77-11.48-13.71-16.92-7.77-8.56-15.87-16.65-23.8-24.97-3.4-3.56-7.16-3.97-11.39-3.01-15.71 3.6-25.94 16.11-33.58 32.71-7.95 17.26-11.86 36.32-14.74 55.73-1.71 11.52-3.01 23.13-4.51 34.69-.08.58-.33 1.13-.59 1.97-3.76-34.47.46-66.83 13.06-97.3 4.6-11.12 10.73-20.68 19.54-27.09 6.8-4.95 14.18-6.39 21.89-6.07.88.04 1.75.11 3.34.21-8.23-9.64-16-18.73-23.76-27.82 11.7 7.37 21.89 17.65 32.67 27.35 6.61-4.24 13.48-7.59 21.01-8.85 7.63-1.28 14.88.32 22.95 3.25-3.84-14.08-7.52-27.58-11.2-41.07.19-.12.37-.24.56-.36 2.78 6.91 5.76 13.7 8.3 20.75 2.71 7.5 4.97 15.25 7.52 22.84.44 1.32 1.21 2.69 2.13 3.49 14.52 12.59 26.81 27.92 36.31 46.71.1.19.31.28.79.7.49-4.79.92-9.37 1.42-13.94.66-5.94 1.49-11.84 2-17.8.16-1.82-.14-3.97-.8-5.6-4.89-12.2-9.92-24.31-14.9-36.45l.8-.65 11.45 17.78c.11-14.41 5.14-28.53.58-42.82 1.07 2.62 2.14 5.25 3.41 8.35 4.7-28.45 12.54-54.98 20.67-82.52-9.2-29.57-18.66-59.97-28.11-90.37.04-.1.08-.2.13-.3 3.48 6.38 7.1 12.65 10.41 19.17 3.43 6.75 6.63 13.69 9.79 20.65 3.1 6.85 6.09 13.78 9 20.76 2.9 6.97 5.62 14.05 8.72 21.82 6.53-25.72 16.03-48.99 26.24-71.8 10.19-22.76 20.77-45.24 34-65.51-21.47 51.58-38.68 105.37-52.82 160.02 7.84 28.7 15.56 56.93 23.27 85.15 2.8-47.81 4.25-95.81 10.51-143.19 0 11.05.2 22.1-.04 33.14-.89 41.43-2.06 82.85-2.82 124.28-.23 12.4.52 24.83.83 37.24.33.04.66.09.99.13.72-4.38 1.49-8.75 2.16-13.14 5.82-38.07 13.12-75.67 22.57-112.56 9.78-38.15 23.56-73.93 40.84-107.57.6-1.16 1.3-2.24 2.49-4.29-29.48 93.74-45.89 190.34-56.94 288.6.46.26.93.53 1.39.79.7-1.38 1.63-2.66 2.05-4.17 6.04-21.52 11.63-43.25 18.1-64.57 7.98-26.31 17.1-52.04 27.99-76.69 2.55-5.77 5.68-11.12 8.34-16.81.93-1.99 1.64-4.37 1.85-6.67 1.28-14.07 2.18-28.2 3.62-42.23 1.64-15.91 3.61-31.77 5.64-47.61.98-7.62 2.42-15.15 3.65-22.73-8.53-8.22-9.48-19.17-7.54-31.33 1.68-10.52 1.07-21.1-.05-31.64-.29-2.71-.58-5.42-.71-8.19 4.26 12.34 5.48 26.44 14.14 36.34-.46-2.3-.62-4.79-1.42-6.88-2.63-6.86-4.43-13.97-4.47-21.61-.08-15.09-.02-30.18.43-45.34 2.62 16.17 5.24 32.34 7.72 47.63 1.77-14.3 3.65-29.5 5.54-44.69.29.04.58.07.87.11.25 7.32.6 14.65.72 21.97.12 7.39.03 14.78.03 20.98 5.8-14.64 12.1-30.52 18.39-46.41l.51.24c-1.42 6.45-2.96 12.86-4.23 19.35-1.77 9-3.26 18.08-5.01 27.08-1.82 9.37-6.5 16.5-11.89 22.95-1.49 1.79-3.23 3.24-2.4 6.93 5.34-5.91 11.51-10.21 15.52-17.67 6.06-11.27 12.15-22.51 18.72-33.44-1.58 4.92-3.08 9.89-4.76 14.75-1.67 4.81-3.52 9.52-5.68 15.3 5.87-5.2 11.06-9.81 16.25-14.41.2.27.4.53.6.8-3.88 5.25-7.62 10.69-11.68 15.71-4.33 5.36-9.24 10.01-13.35 15.6-1.75 2.37-2.2 6.33-3.08 9.64-1.3 4.92-2.03 10.13-3.74 14.8-3.27 8.94-8.89 13.6-17.57 12.44-5.77 33.65-7.93 67.89-10.29 102.32C390.92 165.26 453.6 110.9 536.06 95.98c-12.77 5.12-26.16 9.72-39.09 15.84-27.81 13.16-53.7 31.01-77.19 53.99-15.37 15.04-29.72 31.56-42.67 50-11.36 16.18-21.61 33.35-30.79 51.56-.61 1.21-.96 2.8-1.03 4.24-1.1 24.25-2.12 48.51-3.19 72.77-.7 15.78-1.45 31.55-2.19 47.41 6.29-5.75 12.42-11.27 18.44-16.96.77-.73 1.24-2.31 1.46-3.59 7.31-42.7 17.77-84.16 30.88-124.54 6.29-19.37 13.07-38.48 19.67-57.69.54-1.58 1.36-3.01 2.13-4.46-15.62 56.61-24.33 115.41-35.17 174.05 4.38-3.11 8.4-6 12.44-8.84 22.83-16.03 47.05-27.36 72.93-31.98 9.41-1.68 18.05-6.28 27.23-8.48 2.27-.54 4.55-.99 7.06-.61-5.51 2.94-11.01 5.88-16.84 9 17.16 2.87 33.22 8.22 47.62 19.94 14.48 11.79 25.67 27.15 32.53 47.33-3.79-5.42-7.53-10.91-11.39-16.25-10.78-14.9-23.3-27.07-36.94-37.51-10.43-7.98-21.8-9.81-33.59-8.01-15.49 2.37-30.16 8.84-44.58 15.98-11.11 5.51-21.92 12.01-32.86 18.08-.82.46-1.6 1.04-1.63 1.06-1.09 33.22-2.16 65.74-3.21 97.74 7.47-34.76 16.19-69.55 29.62-102.16-18.22 62.81-27.52 127.94-33.07 194.07.42.14.83.28 1.25.42.62-2.32 1.26-4.63 1.85-6.97 6.27-24.89 12.05-49.99 18.94-74.59 5.43-19.36 11.58-38.48 19.96-56.26.48-1.02.98-2.03 1.68-2.91-10.01 32.1-17.21 65.28-24.49 98.45 3.18-7.73 6.2-15.58 9.59-23.17 3.46-7.74 7.16-15.33 11-22.78 3.8-7.37 7.92-14.48 12.02-21.49-10.91 27.61-21.81 55.21-31.94 80.83.65 22.42 1.23 42.5 1.82 62.78 4.47-8.92 9.18-17.18 12.87-26.11 2.13-5.15 2.61-11.38 3.89-17.11.79-3.54 1.68-7.05 2.91-10.46-1.41 8.51-2.81 17.02-4.28 25.88.98.1 1.83.19 2.75.29 4.95-20.25 13.19-38.22 23.79-54.56-8.38 17.56-15.15 36.07-20.79 55.33 2.03 1.19 4.08 2.39 6.52 3.81 2.42-3.22 4.98-6.64 7.73-9.85-2 3.98-4.19 7.76-6.53 11.77 1.53 1.56 3.06 3.13 4.52 4.62 2.19-6.84 4.34-13.48 6.45-20.14.51-1.62.92-3.28 1.38-4.92.64-.92 1.28-1.84 2.5-3.6-2.72 10.59-5.16 20.1-7.51 29.24 2.09 3.58 3.87 6.62 5.56 9.72-1.95-2.18-3.81-4.42-5.78-6.79a114264 114264 0 0 1-6.86 30.24c1.88-2.07 4.37-4.82 7.03-7.75.69-.12 1.58-.28 2.42-.18-5.94 6.46-10.9 13.4-11.41 24.38.48 1.67 1.14 3.98 1.74 6.07 1.54-3.49 3.16-6.82 4.53-10.3 2.95-7.53 5.78-15.13 8.7-22.99.86-2.28 1.69-4.27 2.51-6.27l-.6-2.79c.7-.44 1.61-.67 2.08-1.36 3.11-4.65 6.13-9.4 9.19-14.09.34-.52.83-.89 1.54-.99-3.3 6.06-6.6 12.12-9.96 18.3.63.96 1.12 1.69 1.76 2.66.58-1 1.02-1.76 1.51-2.51-.31 1.48-.66 2.95-1.23 4.41-.8-.65-1.37-1.3-2.06-2.07-.57 1.5-1.21 2.75-1.54 4.11-.51 2.09-.81 4.25-1.39 6.48-3.37 4.9-4.59 10.73-6.1 16.93 1.73-.55 2.95-.94 3.98-1.13-4.13 3.19-5.7 8.4-4.46 15.33 2.35-5.21 4.5-10.01 6.74-14.97-.99-.24-1.57-.37-2.08-.73.98-.95 2.01-1.51 2.79-2.43 2.14-2.53 4.79-4.9 3.1-9.58 1.13-2.39 2.08-4.63 2.81-6.36-.68-2.32-1.17-4-1.46-5.67.82.91 1.44 1.79 2.06 2.68 3.38-5.49 3.89-7.88 2.76-12.04-1.18 1.35-2.47 2.83-3.77 4.31 1.28-2.55 2.57-5.11 4.04-8.05.54 1.68 1.04 3.21 1.74 5.39 1.42-4.79 2.72-9.18 4.03-13.58-1.93 13.45-4.8 26.66-5.18 41.5 7.83-14.66 14.25-29.31 24.75-39.94-2.9 4.83-5.92 9.56-8.68 14.52-2.83 5.09-5.68 10.23-8 15.7-1.46 3.45-2.01 7.54-2.87 11.38-1.61 7.18-3.14 14.39-4.93 21.41 1.61-9.13 3.43-18.1 5.38-27.68-4.69 5.25-6.99 23.73-7.79 34.14.36-.51.71-1 1.05-1.49v4.32c3.98-7.39 7.63-14.17 11.48-21.3 2.44-1.88 5.23-4.01 8.01-6.14-3.32 4.26-8.16 6.67-9.36 13.68-.17.28-.38.27-.58.35-2.95 5.9-5.7 11.74-8.29 17.23l.71 4.52c1.75-2.44 3.22-4.49 4.8-6.38.27.34.43.53.59.72zm-343.12-33.56.69 20.63.71-.06c-.08-1.32-.17-2.63-.29-4.56.46 1.16.69 1.73.92 2.3l.75-.15c-.16-4.11-.33-8.21-.08-12.09.39 1.46.79 2.92.93 3.46v-27.09c-2.77 4.6-3.1 6.56-3.63 17.56zm299.71-3.12c-1.1-1-2.2-2.01-3.59-3.27-2.63 9.65-1.93 18.43-.03 27.28l.36-8.65c.24-.01.48-.02.72-.02v9.46h.86c.69-8.18 1.37-16.36 2.18-25.17.71-3.36 1.41-6.72 2.12-10.08l-.78-.72c-1.91 1.78-3.82 3.55-5.5 5.12 1.73 2.7 2.89 4.52 3.66 6.05zm-321.94-4.79c2.2-3.53 6.42-5.25 6.02-11.12-.27-4.03-.24-8.09-.43-12.13-.04-.82-.48-1.62-.73-2.43-3.52 5.56-5.56 11.44-5.39 18.35.03 1.24-.34 2.49-.73 3.15-.35-2.63-.69-5.26-1.08-8.21-1.8 4.36-.77 10.26 2.34 12.39zm290.64 2.95c.98 7.73 1.97 15.46 2.84 22.38.61-4.56 1.45-10.03 2.04-15.55.34-3.21.28-6.5.72-10.09.27-3.07.55-6.13.82-9.2.94-5.21 2.79-10.28 1.64-15.67l1.59 3.81c.19-.05.37-.11.56-.16v-24.79c-2.24-1.62-4.7-1.95-5.55.72-1.33 4.18-1.72 8.83-2.91 13.57-.36 1.58-.9 3.14-1.04 4.76-.55 6.27-.97 12.56-1.75 19.12.2 3.61.4 7.21.37 11.42-1.3 11.51-1.03 23.01.31 34.52 1.15-11.72.94-23.46.36-34.84zm18.1-4.81c-.29 1.84-.94 3.73-.8 5.52.5 6.2 1.27 12.36 1.94 18.54.19.03.39.07.58.1.4-5.34.8-10.69 1.6-16.17 2.69-15.47 5.39-30.94 8.08-46.41-1.27 1.12-2.31 2.4-2.86 3.96-2.08 5.87-4.39 11.68-5.85 17.8-1.26 5.33-1.51 11.04-2.69 16.66zM443.19 584c1.43-5.13 2.86-10.27 4.35-15.62-1.86-1.61-3.38-2.93-4.82-4.17-6.47 7.53-8.42 16.47-6.47 28.08.67-.55 1.39-1.13 2.18-1.19.49 1.76.98 3.52 1.58 5.7.82-2.65 1.45-4.39 1.89-6.19.5-1.98.8-4.03 1.29-6.61zm-314.01 14.45-1.98-24.35c.24-.03.49-.06.73-.1.59 3.97 1.28 7.91 1.74 11.9.45 3.92.67 7.88.95 11.35 2.47-6.21 5.87-12.64 2.85-20.47-2.6-6.74-5.38-13.26-10.91-16.98-5.01 7.34-4.86 16.83.3 26.37.63-1.17 1.24-2.32 1.85-3.47-1.16 4.71-1.7 9.21.75 14.09 1.05 5.69 2.09 11.37 3.14 17.06.23-5.03 3.73-9.89.58-15.4zm96.13-105.99 4.21 2.8c-1.05-6.72-2.07-13.3-3.1-19.89-.28-.15-.56-.31-.84-.46-2.22 4-4.45 8.01-6.46 11.63 2.01 2.35 3.49 4.1 4.54 5.89-1.18-.66-2.37-1.32-4.08-2.27.84 3.97 1.53 7.25 2.5 11.83.32 14.17 3.32 29.07 7.98 44.02 2.68-4.97 5.22-9.67 7.72-14.31-.09-.79-.09-1.45-.24-2.04-1.61-6.25-3.6-12.38-4.77-18.75-1.16-6.36-2.69-12.11-7.02-16.17-.47-.44-.59-1.5-.44-2.28zm149.71 33.99c-.05-.35-.09-.71-.14-1.06-8.72 34.74-11.12 70.44-10.7 106.65.7-.58 1.06-1.27 1.1-2 .43-6.88.92-13.75 1.19-20.64.88-22.69 2.12-45.32 6.12-67.56.9-5.01 1.7-10.05 2.57-14.33-1.14 16-1.96 32.06-3.5 48-1.45 14.99-2.45 29.94-1.95 45.04 0 .08.26.14.75.39.36-3.86.53-7.65 1.08-11.35 3.45-23.5 7-46.98 10.49-70.48 2.15-14.5 4.76-28.93 6.2-43.55 1.64-16.7 2.2-33.57 3.19-50.37.04-.62-.35-1.28-.36-2.39.22-.69.59-1.36.64-2.07 1.76-23.48 3.5-46.97 5.24-70.46.25-3.43.48-6.86.79-11.23-8.5 6.35-16.27 12.15-23.84 17.8-3.86 30.69-7.64 60.68-11.41 90.66.25.05.5.1.75.14 1.75-5.01 3.5-10.02 5.24-15.03-4.77 33.46-8.8 66.86-9.89 100.68 6.01-23.53 11.61-47.15 17.84-70.51 3.68-13.8 7.82-27.48 14.4-39-1.94 8.75-4.01 17.47-5.79 26.27-3.12 15.43-6.12 30.9-9.02 46.39-.64 3.4-.65 6.97-.99 10.01zm-122.29-93.5c1.87 5.14 3.73 10.28 5.81 16.02.41-5.53.42-10.39 1.17-15.07 2.23-13.81 1.57-27.36-1.39-40.86-6.2-28.25-12.26-56.54-18.5-84.78-1.52-6.89-3.51-13.61-5.44-21-3.59 16.02-4.6 31.69-4.76 47.5-.12 11.61-2.71 22.21-8.1 31.73-.82 1.45-.83 3.65-1.36 6.19 11.12-11.51 12.46-28.46 18.45-42.75.05.81.15 1.2.08 1.55-3.17 17.12-6.2 34.17-5.8 52.04.24 10.53-2.72 20.1-11.11 25.04 3.3 19.22 6.59 38.33 9.9 57.64 1.31-1.1 2.76-2.31 4.06-3.4l-10.46-45.86c10.61 24.07 17.08 50.28 25.26 75.69.88-5.66 1.79-11 2.52-16.38.59-4.35 2.1-9.14 1.25-13.06-3.54-16.37-7.76-32.5-11.84-48.68-1.5-5.96-3.31-11.79-4.98-17.68l.96-.54c4.7 12.04 9.4 24.09 14.28 36.66zm47.71-48.12c-4.23 14.71-8.46 29.42-12.55 43.65 7.01 1.53 13.42 2.93 20.27 4.42 3.07-4.45 6.44-9.33 10-14.5v-12.35c.13-.01.26-.03.39-.04.6 2.86 1.2 5.71 1.83 8.74 4.14-4.97 8.13-9.67 12.01-14.5.65-.8 1.13-2.16 1.2-3.3.69-11.56 1.28-23.13 1.89-34.7.7-13.24 1.33-26.49 2.1-39.72.8-13.67 1.73-27.32 2.68-42.14-16.55 33.43-28.96 68.13-39.82 104.44zm-139-7.88c-1.85-5.76-3.54-11.62-5.64-17.22-.73-1.96-2.29-3.94-3.85-4.78-3.4-1.82-6.98-3.27-10.59-4.24-10.91-2.92-21.3-.4-31.19 5.25 7.96 7.61 16.2 14.79 23.79 22.94 7.61 8.18 14.8 17.06 21.75 26.14 6.85 8.94 13.17 18.53 20.11 28.38-4.87-19.02-9.59-37.45-14.38-56.47zm60.27-43.1c3.8-16.43 7.62-32.86 11.38-49.32.29-1.28.49-2.85.16-4.04-4.3-15.87-8.7-31.69-13.2-48-.36 1.26-.65 2.05-.82 2.88-5.06 24.42-10.12 48.85-15.12 73.29-.6 2.92-1.72 6.41-.99 8.88 2.79 9.44 6.23 18.58 9.43 27.82-.01-16.88 2.31-33.17 5.83-49.37.4 16.54.8 33.08 1.2 49.36.66-3.48 1.36-7.17 2.13-11.5zM168.3 490.64c.74-11.21 1.33-22.44 2.28-33.62.44-5.2.59-9.84-2.45-14.17-5.36-7.65-10.36-15.7-15.6-23.49-3.04-4.53-6.24-8.89-9.37-13.33l-.51.39c3.86 32.91 7.72 65.81 11.57 98.61 5.37 1.87 9.93 4.57 12.86 11.74.44-9.17.82-17.28 1.22-26.13zm150.63-6.1v-5.34c-9.93 14.51-16.9 30.53-24.21 46.03 2.66 9.6 5.23 18.87 7.8 28.15.37-.09.75-.19 1.12-.28v-36.63c2.67 14.54 2.63 29.18 1.57 43.82-.42 5.85.56 10.95 3.17 15.76 5.76-7.77 6.4-17.75 8.39-27.22v4.9c.17-.01.33-.02.5-.02.54-22.81 1.09-45.63 1.66-69.17zm-103.26-14.03c.99 4.09 1.97 8.17 2.9 11.99 2.43-3.48 4.84-6.93 7.19-10.29-.53-10.25-5.71-17.88-9.62-26.4 2.37 3.17 4.73 6.35 7.01 9.4-.38-7.8-.61-15.56-1.17-23.29-.56-7.69-1.47-15.33-2.2-22.79-8.64-1.48-14.27-8.24-15.68-18.6-.69-5.11-.94-10.32-1.43-15.97-.26.82-.44 1.15-.47 1.5-.8 12.6-1.58 25.19-2.35 37.79-.05.75-.11 1.68.17 2.25 3.91 7.97 6.5 16.61 8.13 25.76 3.04-7.13 5.98-14.04 8.92-20.94l.45.39c-2.53 9.81-5.06 19.62-7.44 28.86 1.96 7.06 3.73 13.4 5.59 20.34zm44.99 2.3c-1.18 6.96-2.44 13.91-3.51 20.9-.44 2.91-1.18 6.17-.55 8.81 1.03 4.33 2.93 8.37 4.72 12.35 1.18 2.63 2.82 4.93 4.48 7.77 1.64-5.08 3.59-9.26 4.28-13.75.71-4.56.23-9.43.17-14.16-.03-2.16-.41-4.31-.46-6.47-.42-17.87-.86-35.74-1.18-53.61-.15-8.56.08-17.14-.15-25.7-.16-5.98-.83-11.93-1.27-17.89-.28.03-.56.05-.84.08-.06 1.5-.17 3-.18 4.5-.13 17.88-.68 35.72-3.04 53.41-1.02 7.65-1.64 15.39-2.47 23.76zm87.62-19.19c2.45-20 4.89-40 7.47-61.06-5.88 5.76-11.01 10.8-16.11 15.79-.47 18.98-.94 37.6-1.39 55.78 2.61 3.56 4.98 6.79 7.43 10.12.86-6.71 1.71-13.33 2.6-20.63zm-42.63.7c-7.09 13.26-14.09 26.61-21.35 39.73-2.05 3.7-2.7 7.49-2.57 11.76.13 4.39.22 8.78.33 13.17 1.1-.37 1.43-.81 1.7-1.3 5.7-10.48 11.25-21.1 17.18-31.38 1.92-3.33 2.83-6.6 2.76-10.54-.04-2.1-.01-4.21-.01-6.31.31.01.62.03.93.04v10.41c10.25-14.98 11.18-19.59 7.15-34.9-2.04 3.06-3.99 5.95-6.12 9.32zM176 457.77c-1.04 22.25-2.09 44.51-3.09 65.77 3.74 4.43 6.68 7.92 9.82 11.65.26-3.62.5-6.79.7-9.97.74-11.7 1.15-23.46 2.31-35.1.87-8.69.57-16.58-4.22-23.53-1.99-2.89-3.6-6.2-5.52-8.82zm16.16 5.82c.29-.41.8-.8.82-1.23.54-12.49 1.04-24.98 1.5-36.56-5.06-17.15-14.51-29.65-22.8-44.32.25 1.46.32 1.94.42 2.41 3.52 15.33 7.3 30.58 10.48 46.02 2.38 11.47 4.64 22.89 9.58 33.68zm98.31-3.81c4.68-7.77 9.37-15.54 14.07-23.33-5.8-1.72-11.9-3.61-18.35-2.43-.48 1.59-.9 2.86-1.24 4.17-1.82 6.97-3.3 14.12-5.52 20.89-2.26 6.88-.75 13.17.48 20.18 3.6-6.68 6.94-12.86 10.56-19.48zm-104.6 76.74v4.02c3.26 3.79 6.21 7.2 8.84 10.25 2.57-21.35-.88-60.14-6.29-68.81-.84 17.94-1.68 35.89-2.55 54.54zm153.23-63.36c-.26-.28-.51-.55-1.03-1.12.33 26.45-1.11 52.41.86 78.88 4.98-9.97 4.95-9.97 5.06-15.74.26-13.29.58-26.57.81-39.85.04-2.38.23-4.98-.41-7.12-1.47-4.96-3.41-9.71-5.29-15.05zm-61.43 87.11c-1.41 3.36-2.97 6.64-4.18 10.11-.87 2.49-2.06 5.43-1.71 7.84 1.05 7.27 2.79 14.38 4 20.26.94-1.65 1.84-3.22 2.73-4.78.5.63.99 1.26 1.49 1.88 1.85-7.35 3.71-14.69 5.51-22.06.2-.82.25-1.82.07-2.64-1.37-6.34-2.81-12.66-4.3-19.34-1.22 2.86-2.35 5.51-3.61 8.73zm-99.15-7.59c-1.67-2.31-3.34-4.62-5.43-7.5-1.01 20.72-1.15 40.65.9 60.9 1.07-.31 2.1-.6 3.37-.97.93-12.93 1.86-25.74 2.79-38.63.4-1 .91-2.14 1.32-3.33 1.5-4.34-.5-7.24-2.95-10.47zm149.39-90.19c-1.84 2.86-3.69 5.71-5.37 8.31.66 12.37 1.32 24.61 1.96 36.61 2.1-4.95 4.36-10.14 6.5-15.42.44-1.08.54-2.45.57-3.69.1-4.34.12-8.68.14-13.02.02-5.68 0-11.36 0-17.34-1.34 1.59-2.42 2.87-3.8 4.55zm-5-32.42c-2.34 3.62-4.68 7.23-7.1 10.97 3.48 2.95 6.68 5.67 10.64 9.03 1.72-3.07 3.46-6.19 5.21-9.32.39.33.79.66 1.18.99v-25.17c-3.34 4.53-6.49 8.81-9.93 13.5zm-79.78 139.64c.54-1.94 1.85-4.14 1.5-5.77-1.85-8.51-4.12-16.87-6.36-25.74-2.28 5.51-4.45 10.63-6.5 15.83-.36.92-.52 2.32-.24 3.24 2.14 7.06 4.41 14.07 6.78 21.54 1.73-3.15 3.21-5.86 4.82-9.1zm7.63-10.76c-1.55-9.16-3.09-18.33-4.64-27.49.23-.08.46-.15.68-.23 1.94 8.2 3.88 16.4 5.82 24.61.26.1.51.2.77.3.99-3.89 3.32-8.16 2.71-11.59-1.74-9.78-4.67-19.23-7.24-29.2-2.07 4.28-3.94 8.15-5.81 12.03 2.46 11.73 4.89 23.36 7.32 34.98.16-.05.32-.09.48-.14-.01-.89-.01-1.78-.09-3.27zm-109.9-56.62c.2 3.04.31 6.09.61 9.12.27 2.75.46 5.59 1.16 8.18 1.89 6.92 4.14 13.68 6.04 20.59 2.06 7.51 3.89 15.13 5.82 22.7.18-.05.36-.1.55-.15-2.27-18.28-4.55-36.57-6.59-52.98-3.25-4.04-5.44-6.77-7.58-9.43 0 .36 0 .87-.01 1.97zm15.76 11.33c-.15.02-.41.01-.43.07-.05.23-.04.5 0 .74 2.46 14.88 4.93 29.77 7.39 44.65l1.35 8.14.61-.18c.43-12.85.86-25.71 1.29-38.71-3.27-4.81-6.56-9.61-10.21-14.71zm38.52-48.33c-.09 1.9-.18 3.8-.27 5.53 1.95 3.57 3.8 6.92 5.96 10.88.52-6.73.98-12.54 1.43-18.35.22-2.89 1.09-6 .54-8.64-1.46-7.01-3.53-13.82-5.35-20.71-.27.06-.55.13-.82.19-.49 10.13-.98 20.26-1.49 31.1zm40.93 1.73-3.61 3.61c1.35 7.16 2.79 14.14 3.95 21.2.85 5.18 2.29 9.46 6.49 11.74 1.6.87 2.82 2.86 4.31 4.44 0-.57.07-.97-.01-1.32-3.25-13.29-6.51-26.57-9.81-39.84-.05-.16-.63-.11-1.32.17zm56.87 67.93c-.26-1.47-.51-2.93-.88-5.03-2.48 5.43-4.68 10.25-6.82 14.94 1.31 6.12 2.58 12.05 3.81 17.81 2.42-3.69 4.71-7.16 7.15-10.87-1.04-5.24-2.12-10.73-3.26-16.85zm-144.76 46.66 1.38 4.54c-1.87-18.77-3.17-37.66-9.13-55.8-.3 7.19-.6 13.81-.81 20.44-.04 1.34.13 2.79.5 4.05 2.62 8.74 5.32 17.45 8.06 26.77zm183.76 1.73v-11.67c-2.35 4.52-4.08 9.17-5.61 13.92-1.05 3.26-2.15 6.59-2.63 10.02-.38 2.66-.2 5.72 2.3 7.55.41-2.21.74-4.04 1.08-5.86.08.03.17.05.25.08v9.31c.47.78 1.23 2.01 1.99 3.25.24-.04.48-.09.72-.14.63-8.56 1.27-17.13 1.9-26.46zm-89 16.99c.29 1.51.59 3.01 1.07 5.48 1.86-5.49 3.42-10.11 4.99-14.73h1.3c-1.36-6.57-2.72-13.14-4.09-19.71-.25.01-.5.01-.74.02-1.91 5.54-3.82 11.07-5.61 16.26 1.06 4.37 2.01 8.22 3.08 12.68zm-40.19-4.57c.09 1.32.17 2.64.31 4.62 1.73-3.41 3.17-6.26 5.08-10.02-2.33-10.23-4.82-21.11-7.3-32-.29.09-.57.17-.86.26-.05.86-.15 1.73-.14 2.59.17 11.4-.38 22.91 2.91 34.55zM341 590.84c.26 1.26.52 2.52.79 3.78.34-.04.68-.08 1.01-.11v-46.84c-3.87 11.05-4.03 11.06-3.6 24.05.21 6.18 1.16 12.33 1.8 19.12zm-124.21-79c.06.24.08.52.2.72.1.16.3.21 1.19.77-2.85-15.39-5.58-30.13-8.31-44.88-.23.08-.45.16-.68.24-.44 6.86-.88 13.72-1.3 20.2 2.96 7.68 5.81 15.09 8.9 22.95zm-3.07 34.74c1.6 5.75 3.19 11.51 5.04 18.18 1.54-4.03 2.67-6.97 3.99-10.4-2.35-7.21-4.8-14.74-7.26-22.27l-.84.06c-.35 4.61-.7 9.21-.93 14.43zm85.26 23.11c-.23-1.19-.46-2.37-.79-4.05-2.72.61-5.21 1.16-8.02 1.79 1.7 9.52 5.77 16.64 9.14 24.21l1.11-.27c-.48-7-.95-14-1.44-21.68zm-15.37 20.41c.26 3.46.31 6.96.83 10.35.7 4.53 1.76 8.97 2.77 13.99 4.23-7.89 4.27-7.91 2.65-16.04-1.17-5.86-2.48-11.67-3.72-17.5l-.88.18c-.51 2.8-1.01 5.59-1.65 9.02zm-193.88 4.61c1.72 5.92 3.45 11.84 5.17 17.76.4.01.81.03 1.21.04.47-2.89 1.93-6.25 1.23-8.57-2.48-8.19-5.7-16.02-8.64-23.99-.37.18-.73.35-1.1.53-1.1 4.9 1.27 9.1 2.13 14.23zm53.53-149.52c-.38 10.71-.51 21.45-1.24 32.13-.49 7.2.93 13.4 3.89 18.9l-2.27-65.18h-.37c-.01 4.46-.01 8.92-.01 14.15zm62.65-91.46c-1.42-4.98-2.83-9.96-3.9-13.7-2.83 14.85 3.87 25.21 13.68 33.68-.28-2.04-.63-4.13-1.52-5.76-2.55-4.68-5.32-9.17-8.26-14.22zm-85.62 256.72c.73-2.7 2.42-5.66 2.03-8.07-1.26-7.65-3.3-15.1-5.04-22.62-.39.12-.77.25-1.16.37.58 3.99 1.16 7.98 1.84 12.68-.28.6-.94 2-1.55 3.3.65 5.65 1.28 11.11 2 17.3.83-1.18 1.27-1.8 1.88-2.96zm83.72-93.67c-.84-2.97-1.68-5.95-2.51-8.92-.2 9.51-3 19.12.81 28.11h.84c.17-3.1.33-6.2.5-9.3l.26.03c.35 5.56.69 11.12 1.04 16.68.41-8.7 1.46-17.43-.94-26.6zm7.52 57.03c.47 2.01.93 4.02 1.65 7.11 1.8-4.61 3.25-8.35 4.71-12.09-1.64-6.05-3.23-11.96-4.89-18.11-.55 7.77-1.06 15.11-1.47 23.09zm45.57 3.39.82-5.19c.3.84.49 1.38.98 2.76 1.77-6.15-1.45-9.81-2.61-14.53-3.6 7.27-4.38 18.47-1.64 23.39.83-2.06 1.59-3.95 2.45-6.43zm-18.97 21.72c-.43-1.34-.86-2.69-1.26-3.95-3.24 8.17-2.62 15.86 1.76 24.08.83-2.74 2.18-5.02 1.99-7.07-.37-4.21-1.58-8.31-2.49-13.06zm-105.92-38.37c-.79-2.54-1.57-5.07-2.59-8.36-2.4 1.88-4.35 3.41-5.96 4.67 3.83 5.93 7.47 11.58 11.25 17.43-.88-4.4-1.75-8.77-2.7-13.74zm86.8 40.18c-.28.66-.75 1.28-.81 1.97-.48 5.81-.89 11.62-1.29 17.43-.04.6.1 1.22.16 1.93h1.74c1.83-7.63 3.62-15.11 5.53-23.09-1.99.63-3.42 1.08-5.33 1.76zm9.01-32.84c-.14-.93-.28-1.87-.57-3.83-1.39 3.36-2.58 5.82-3.45 8.46-.55 1.66-1.18 3.82-.78 5.32 1.06 3.9 2.68 7.56 4.18 11.61.38-4.68.82-8.96 1.03-13.25.14-2.58-.1-5.19-.41-8.31zm-52-34.38c-.71-.52-1.41-1.03-2.36-1.72v8.37c2.73 3.16 5.34 6.18 8.24 9.53.15-3.19.27-5.82.4-8.44-2.06-2.56-4-4.97-6.28-7.74zm239.81 74.02c.1 9.66-3.48 19-1.69 28.82 4.27-10.28 3.32-21.22 2.48-32.2-.26.91-.52 1.83-.79 3.38zm-229.99-53.89c2.6 3.88 5.19 7.77 7.79 11.65.2-.2.41-.4.61-.6v-6.83c-2.5-3.9-5.16-8.04-7.82-12.18l-.6.48c.01 2.28.01 4.56.02 7.48zm57.56-35.85c.97-2.32 1.93-4.64 3.08-7.41l-7.57-8c-.17.15-.34.31-.52.46 1.08 5.93 2.16 11.87 3.41 18.73.72-1.76 1.03-2.54 1.6-3.78zm-57.57 46.42v10.87c2.47-1.27 4.26-2.19 6.44-3.3-2.06-5.08-4.03-9.91-5.99-14.74-.15.05-.29.1-.44.15-.01 2.1-.01 4.2-.01 7.02zm222.25-28.14c-.98 4.05-1.95 8.11-2.92 12.13 2.02.29 3.78.54 5.92.84-.3-6.09-.59-12.15-.89-18.21l-.51-.12c-.46 1.62-.91 3.23-1.6 5.36zm-138.54 4.97c-.13-1.26-.21-2.52-.39-3.76-.18-1.22-.47-2.41-.91-4.63-1.72 7.09-7.06 12.26-2.43 20.64 1.38-4.48 2.49-8.08 3.73-12.25zM433.2 566.1c-.39 1.82-.79 3.64-1.16 5.47-.37 1.82-.75 3.65-1.05 5.49-.27 1.67-.42 3.37-.67 5.42 2.95-7.64 5.72-14.79 8.62-22.3-1.04-.35-2.49-.84-4.2-1.42-.51 2.65-.93 4.7-1.54 7.34zm-256.29 55.09v-14.26c-.54-.04-1.12-.12-1.69-.1-.27.01-.53.21-1.34.57.58 7.45 1.17 14.96 1.75 22.47.42-.04.85-.07 1.27-.11 0-2.62 0-5.24.01-8.57zm78.95-15.63c-.47-1.97-.95-3.94-1.5-6.25-.9 1.39-1.58 2.44-2.27 3.5 2.07 6.79 3.44 13.8 6.66 19.73.25-.12.49-.25.74-.37-1.14-5.35-2.29-10.7-3.63-16.61zm-110.94-3.08c.54 1.02 1.08 2.05 1.62 3.07l.81-.66c-1.29-9.15-2.01-18.49-5.78-26.81 1.04 7.95 2.08 15.91 3.35 24.4zm-5.32-30.83c-.09-.37-.19-.74-.28-1.11.09 11.19-1.09 22.47 1.88 33.3.5-.74.75-1.48.7-2.19-.35-4.94-.76-9.87-1.14-14.8-.36-4.89-.72-9.78-1.16-15.2zm154.51-6.27c1.35-.09 2.71-.17 4.32-.28-.7-3.52-1.3-6.55-1.9-9.59l-.87-.18c-1.79 3.25-3.59 6.49-5.38 9.74l.7.82c.88-.15 1.75-.31 3.13-.51zm-73.45 20.59-1.82 13.19c2.09-.52 3.98-.98 6.7-1.65-1.65-4.3-3.06-7.94-4.88-11.54zm5.96 18.28c-.07-.58-.13-1.15-.22-1.95-2.1 4.67-3.35 16.96-1.92 21.25 1.38-6.57 4.18-12.11 2.14-19.3zm5.99-25.14c-.42-1.22-.84-2.43-1.32-3.84v23.09c1.07-6.21 3.95-12.22 1.32-19.25zm-130.2 12c-1.61-4.63-3.23-9.25-4.84-13.88l-.57.3c.81 5.95 1.63 11.91 2.44 17.86l.92.15c.69-1.28 1.38-2.57 2.05-4.43zm148.39 20.38c-.26-.46-.52-.91-.85-1.47-1.49 4.12-.6 12.14 2.24 17.16.55-1.35 1.14-2.87.94-4.2-.56-3.68-1.46-7.28-2.33-11.49zm-108.84 23.45.33 6.19c.43-.06.87-.11 1.3-.17-.6-9.26-1.2-18.52-1.81-27.78-.41.05-.83.09-1.24.14.46 6.98.92 13.95 1.42 21.62zm298.16 4.8c.05.93.1 1.87.2 3.65.87-1.8 1.37-2.84 1.9-3.94.32.65.58 1.17 1.19 2.42v-15.26l-1.08-.18c-.74 4.24-1.46 8.48-2.21 13.31zm-332.45-21.58c-.26 1.06-.92 2.27-.72 3.16 1.45 6.24 3.08 12.42 4.66 18.62.34-.11.68-.22 1.02-.32-.1-1.3-.03-2.67-.33-3.89-1.41-5.73-2.93-11.43-4.63-17.57zm327.49 4.25c.78-3.72 1.57-7.43 2.26-10.72-1.03-1.79-1.73-3.02-2.65-4.61-.45 7.02-.87 13.47-1.28 19.91h.61c.29-1.37.58-2.75 1.06-4.58zm-107.56-88.5v3.36l.85.09c.9-7.02 1.81-14.05 2.71-21.07-.3-.06-.6-.12-.91-.19-2.17 5.38-2.99 11.11-2.65 17.81zm-64.95-2.17c1.07-2.06 2.14-4.13 3.17-6.12-2-3.01-3.73-5.61-5.46-8.21l-.41.29c.85 4.52 1.7 9.04 2.7 14.04zm-138.28 83.78c.21 3.15.3 6.32.65 9.45.33 2.98.93 5.92 1.41 8.87.18-.03.36-.06.53-.09-.56-8.41-1.12-16.82-1.69-25.23-.31.03-.62.05-.93.08.01 2.11.01 4.22.03 6.92zm305.8-20.29c1.26-1.16 2.51-2.32 3.64-3.36.3-3.87.59-7.59.88-11.31-1.82 3.86-3.36 7.77-4.73 11.77-.33.93-.09 2.17.21 2.9zm-111.7-146.2v11.29c1.65-2.72 3.13-5.14 4.93-8.1-1.77-1.37-3.32-2.57-4.93-3.19zm97.25 147.67 4.2-16.86c-.26-.1-.51-.2-.77-.3-2.95 5.1-4.53 10.72-3.43 17.16zm-7.19 21.55c.06.82.12 1.64.2 2.68 2.31-2.89 2.98-12.74 1.03-17.92-.46 5.38-.85 9.98-1.23 15.24zm-75.46-4.23c.67 2.44 1.35 4.88 2.02 7.32.19-.05.39-.11.58-.16-.54-6.03-1.07-12.07-1.61-18.1-.35.02-.71.03-1.06.05 0 3.42 0 6.85.07 10.89zm128.48 18.82c-.26-1.3-.52-2.6-.86-4.33-1.81 4.91-3.66 9.26-1.83 15.39 1.06-4 1.93-7.26 2.69-11.06zm-313.25-13.7c-.22-3.11-.45-6.21-.74-10.24-2.09 3.29-.96 14.57 1.19 18.37-.12-2.66-.23-5.05-.45-8.13zm316.78-14.21c-.55 3.35-1.09 6.71-1.74 10.68 3.78-4.25 3.7-9.38 4.31-15.35-1.14 1.94-1.79 3.04-2.57 4.67zm-29.26-4.7c.43 2.51.85 5.03 1.28 7.54.82-2.57.72-5.19 1.35-7.49.95-3.46 1.17-3.36-2.11-5.07-.23 1.53-.42 2.94-.52 5.02zm-165.69-8.96c-.44 4.18-.88 8.36-1.26 11.92 1.29 2.25 2.17 3.77 3.21 5.58-.61-5.92-1.18-11.45-1.95-17.5zm-160.39 49.52c-.8-3.36-1.61-6.73-2.41-10.09l-.86.27c.38 4.21.77 8.42 1.15 12.63.49.09.97.17 1.46.26.23-.83.46-1.65.66-3.07zm-23.78-27.41c-.91-6.32-.58-13.06-4.59-18.3 1.46 6.25 2.92 12.5 4.59 18.3zm362.08 1.52c-.88 2.74-1.75 5.49-2.81 8.79 3.66-2.02 5.06-6.01 4.48-11.85-.6.99-1.06 1.76-1.67 3.06zm-240.47-8.63c-1.74 3.44-3.04 7-2.37 11.77 2.98-4.16 3.79-8.39 2.37-11.77zm259.66 10.03c.1-.73.2-1.46.34-2.44-4.24 5.83-4.62 7.93-2.12 11.95.55-3.07 1.09-6.01 1.78-9.51zm-105.35 40.4h4.42v-.38h-25.03v.39c6.68-.01 13.36-.01 20.61-.01zM98.86 617.92l1.57-3.7c-.31-1.78-.57-3.27-.93-5.35-1.57 3.99-3.92 7.07-1.51 11.29.3-.65.55-1.17.87-2.24zm23.53-1.8c.07-1.98.15-3.96.24-6.47-3.06 4.62-3.2 8.42-.81 12.74.1-1.9.21-3.79.57-6.27zm-11.24-10.07c-.64-1.29-1.28-2.57-1.91-3.86l-.97 1.03c.39 2.96.77 5.93 1.23 9.46 1.12-1.86 1.9-3.16 2.79-4.62-.2-.4-.52-1.04-1.14-2.01zm285.78-.45v-11.3c-.17 0-.33-.01-.5-.01-.26 6.7-.51 13.39-.77 20.09.27.03.54.05.82.08.15-2.71.3-5.41.45-8.86zm-115.99 3.62c.9.76 1.81 1.52 3.4 2.86-.77-3.93-1.3-6.68-1.84-9.43-.27-.01-.54-.01-.81-.02-.34 2.06-.68 4.11-.75 6.59zM98.87 621.18c.22 1.56.43 3.13.66 4.8 4.06-2.6 1.38-6.25 1.11-9.59-.56 1.4-1.13 2.8-1.77 4.79zm221.46-74.51v1.5c.22.04.44.08.66.11l1.95-15.61c-.37-.07-.75-.15-1.12-.22-.5 4.54-.99 9.09-1.49 14.22zm76.01 89.5v3.75c.26.02.51.04.77.05.31-5.72.62-11.44.92-17.15-.23-.03-.46-.06-.69-.08-.33 4.24-.66 8.49-1 13.43zm51.9 2.34c.34 2.06.67 4.13 1.01 6.19l.79-.12c-.17-4.35-.33-8.71-.5-13.06l-.66.03c-.23 2.11-.46 4.22-.64 6.96zM198.04 502.5c-.28-3-.55-6-.83-9-.16.01-.32.03-.49.04v13.24c.18 0 .36.01.54.01.25-1.22.5-2.43.78-4.29zm-87.2 112.45c.13 1.84.25 3.69.38 5.53l.65.15c.57-1.64 1.15-3.28 1.75-5-.48-1.32-.91-2.52-1.72-4.75-.45 1.9-.66 2.74-1.06 4.07zm172.19-2.13-2.54-2.15-.38.5 4.02 8.97c.28-.11.56-.22.85-.33-.54-2.2-1.08-4.4-1.95-6.99zm-179.19-.54c.44 1.78.87 3.56 1.31 5.34.18 0 .37 0 .55.01.16-3.02.32-6.03.47-9.05-.41-.17-.83-.33-1.24-.5-.41 1.2-.81 2.4-1.09 4.2zm9.06-6.87c.27.8.55 1.6.96 2.79v-11.22c-1.15 2.18-1.82 3.44-2.49 4.7.56 1.25 1 2.22 1.53 3.73zm-12.25-5.9c.09.57.19 1.14.36 2.16 2.26-2.03 3.36-3.97 1.13-8.12-.67 2.29-1.12 3.84-1.49 5.96zm13.93 24.21c-.1-1.63-.19-3.26-.29-4.89l-1.17.12.57 10.81c.29-.02.58-.04.86-.07 0-1.77 0-3.55.03-5.97zm309.98 10.67c-.09-.59-.17-1.17-.26-1.76l-.18.06v13.34c.17 0 .33-.01.5-.01-.01-3.69-.01-7.37-.06-11.63zm-303.85 3.62c-.41-3.77-.83-7.53-1.24-11.3-.28.06-.56.11-.84.17l1.32 12.8.61-.09c.04-.34.08-.68.15-1.58zm151.51-116.74c-.22 2.58-1.04 5.29 1.11 7.83v-11.57c-.13-.02-.25-.04-.38-.05-.23 1.07-.46 2.14-.73 3.79zm-62.64-.83c.46 3.52.93 7.03 1.5 11.36.68-2.11 1.11-3.47 1.61-5.02-.99-2.26-1.98-4.55-3.11-6.34zm252.18 131.64c.36-3.79.71-7.57 1.07-11.36-.27-.04-.54-.07-.81-.11l-1.29 12.68c.17.04.34.07.51.11.1-.31.2-.62.52-1.32zm-16.14-22.9.27 3c.15 0 .3.01.45.01.63-2.69 1.27-5.38 1.9-8.08-.47-.18-.95-.36-1.42-.54-.42 1.67-.85 3.34-1.2 5.61zm-4.86-7.22c-.17-.89-.35-1.78-.52-2.67l-.74.06c-.26 2.88-.51 5.77-.77 8.65.27.06.53.12.8.19.42-1.87.83-3.74 1.23-6.23zm-12.38 22.21.63.99c.19-.08.39-.17.58-.25-.24-3.14-.48-6.28-.71-9.42-.1-.01-.2-.01-.3-.02-.14 2.72-.26 5.45-.2 8.7zm-228.25-39.42c.18.26.37.53 1.05 1.53l-.87-12.11-.24.03c-.01 3.32-.01 6.63.06 10.55zm-11.32-22.57c-.5-.83-1-1.67-1.5-2.5-.26.18-.52.36-.78.55l1.11 6.52.84-.06c.12-1.3.24-2.6.33-4.51zM56.57 621.68c8.25 7.54 15.46 16.05 21.17 26.53-8.84-10.25-17.68-20.49-26.57-30.8 1.73 1.36 3.48 2.73 5.4 4.27z"/><path d="M477.92 625.21s.21 0 .31.01c.1 3.41.1 6.83.1 10.54 2.25-1.9 4.64-3.93 7.02-5.95.06.11.12.22.18.34-3.21 3.68-6.42 7.35-9.81 11.13-.35-.09-.51-.28-.7-.87 3.44-4.55 2.41-10.11 2.9-15.2zM187.06 657.74h8.16v.25h-13.85c0-.08 0-.16-.01-.24 1.81 0 3.61 0 5.7-.01z"/></g></svg>