<svg xmlns="http://www.w3.org/2000/svg" xmlns:xlink="http://www.w3.org/1999/xlink" xml:space="preserve" id="Layer_1" version="1.1" viewBox="-52.05 0 684.34 684.34"><defs><path id="SVGID_39_" d="M0 0h580.24v684.34H0z"/></defs><clipPath id="SVGID_2_"><use xlink:href="#SVGID_39_" overflow="visible"/></clipPath><g clip-path="url(#SVGID_2_)"><path d="M479.7 646.98c.77.94 1.55 1.87 2.47 2.99 4.31-5.82 8.6-11.61 12.88-17.4l.75.57c-3.29 5.92-6.59 11.84-9.88 17.76.08.13.16.27.25.4 1.15-.94 2.31-1.87 3.46-2.81l.6.42c-.65 1.36-1.3 2.73-2.31 4.83 12.73-14.2 24.85-27.88 39.22-38.97 14.31-11.04 29.11-21.22 45.76-27.98-33.92 20.53-63.38 46.46-86.85 79.73.19.3.38.59.57.89 1-.62 2.18-1.05 2.98-1.89 3.99-4.19 7.79-8.6 11.85-12.73 3.41-3.46 7.07-6.64 10.62-9.95.27.3.55.6.82.91-2.06 2-4.16 3.95-6.15 6.02-2.06 2.15-4.01 4.42-5.62 7.15.75-.48 1.49-.97 2.24-1.45.15.16.3.33.45.49-3.65 3.75-7.29 7.5-10.94 11.25.24.4.47.8.71 1.21 2.35-1.25 5.03-2.08 7-3.83 7.21-6.41 14.18-13.12 21.3-19.6-6.56 7.55-13.12 15.11-19.64 22.62h8.02c.05.38.11.76.16 1.15-3.58.84-7.13 2.17-10.75 2.44-15.44 1.14-30.9 2.69-46.36 2.79-83.53.53-167.07.7-250.61.91-27.63.07-55.27.2-82.89-.3-20.79-.38-41.56-1.6-62.33-2.74-4.45-.24-8.84-1.76-13.25-2.69.04-.35.08-.69.11-1.04h11.22c.23-.29.47-.58.7-.87-6.27-9.28-12.55-18.56-18.82-27.84.28-.27.57-.54.85-.82 2.76 3.13 5.62 6.17 8.24 9.43 2.72 3.37 5.21 6.94 8.07 10.78-2.58-10.84-7.85-19.38-15.19-26.8 1.89 1.34 3.77 2.68 6.44 4.57-5.29-14.41-13.06-26.36-19.97-38.79.36-.24.71-.48 1.07-.72 7.66 11.99 15.6 23.8 22.9 36.04C56.9 644.88 63.3 657.04 71.42 668c-4.96-17.6-11.87-34.05-22.37-48.62.26-.21.53-.42.79-.63 1.82 2.22 3.68 4.42 5.46 6.67 1.8 2.28 3.59 4.58 5.29 6.94 1.76 2.45 3.42 4.99 5.12 7.48.27-.13.53-.26.8-.4-7.21-16.86-14.42-33.71-21.62-50.57.12-.1.25-.19.37-.29.9 1.4 1.83 2.77 2.68 4.2.93 1.55 1.79 3.14 2.67 4.72 8.93 16.06 16.35 32.88 22.84 50.2 2.41 6.42 5.8 12.42 8.75 18.61.41-.2.82-.39 1.23-.59-4.43-11.29-8.85-22.58-13.28-33.86.23-.15.46-.29.69-.44 5.68 6.92 7.98 16.14 13.51 23.69-2.64-9.16-5.46-17.86-7.63-26.73-2.19-8.93-3.74-18.03-5.17-27.19 3.84 9.56 6.93 19.44 12.62 28.91 2.68 9.61 5.6 20.06 8.25 29.57.5-4.79 1.45-10.51 1.56-16.24.06-3.07-1.13-6.26-2.14-9.26-5.32-15.8-10.76-31.56-16.14-47.34-.46-1.36-.76-2.78-.62-4.36 4.06 8.39 8.12 16.78 12.17 25.17.33-.09.66-.19.99-.28-1.14-4.58-1.85-9.35-3.5-13.71-7.62-20.13-15.51-40.15-23.31-60.21-.53-1.37-1.09-2.73-1.64-4.09.27-.16.54-.31.8-.47 8.26 15.97 16.52 31.95 24.88 48.12-2.18-15.36-4.33-30.54-6.49-45.71.28-.05.57-.11.85-.16 5.73 28.01 8.21 56.77 16.62 83.46.93-27.24 1.87-55.14 2.83-83.37-3.89-.73-7.35-1.37-10.89-2.03h7.09c-.15-.49-.3-.99-.5-1.67 1.21.29 2.23.54 3.78.91v-58.7c-1.01-.09-2.37-.2-3.72-.32-.08-.22-.15-.43-.23-.65 4.04-1.58 8.08-3.17 12.83-5.02-4.33-2.05-8.7-1.92-12.83-2.12-4.38-.22-8.81.61-13.51.38 6.15-2.63 12.29-5.25 17.76-7.59-6.56-3.53-13.44-7.25-20.35-10.92-1.73-.92-3.52-1.76-5.34-2.43-5.91-2.17-7.3-1.63-10.73 3.88.05-4.31 4.52-8.91 9.83-9.94 9.47-1.84 18.71-.28 27.9 2.14 1.24.33 2.56.36 4.19.58 0-6.41-.48-12.31.12-18.08.76-7.36-3.26-13.15-4.7-19.76-.15-.7-1.15-1.31-1.87-1.74-12.6-7.55-25.22-15.07-39.49-18.62-1.97-.49-3.95-.92-5.88-2.17 4.5.3 9 .53 13.49.93 4.63.42 9.28.78 13.85 1.61 4.44.81 8.86 1.9 13.14 3.37 4.35 1.49 8.51 3.61 12.91 5.51-1.54-5.13-4.26-8.24-8.99-10.3-9.79-4.28-16.84-12.59-24.96-21.03 3.55.68 6.17 1.17 9.48 1.81-6.06-7.18-12.81-11.43-20.95-13.44 4.92.3 9.84.59 14.76.89.2-.35.4-.71.59-1.06l-13.17-11.91c-.17.18-.34.37-.51.55 1.25-.08 2.49-.15 3.89-.24l-7.7-9.05c.09-.22.19-.43.28-.65 2.36.72 4.71 1.44 7.07 2.15l.53-.62c-2.97-3.82-5.95-7.64-8.98-11.54.33.07.73.15 1.14.23.4.08.8.14 1.81.33-2.13-1.48-3.74-2.59-5.35-3.71.06-.2.13-.4.19-.61 1.82.57 3.64 1.15 5.89 1.86-2.49-3.69-4.71-6.98-7.2-10.68 1.66.48 2.94.86 4.22 1.23l.22-.31c-1.45-1.1-2.9-2.19-5.09-3.84l4.32.44c-1.29-1.02-2.22-1.75-3.23-2.54.58-.68.92-1.09 1.02-1.21-.82-1.17-1.63-2.31-2.43-3.45.25-.17.5-.34.76-.51-2.1-1.97-4.2-3.95-6.31-5.92l.36-.54c1.75.97 3.49 1.94 5.24 2.91l.48-.63-3.39-2.13c.26-.37.51-.75.77-1.12.98.26 1.95.51 3.73.98-1.06-1.77-1.76-2.93-2.86-4.77 1.84 1.62 3.15 2.76 4.81 4.22-.54-2.34-.97-4.18-1.39-6.02l.72-.33c1.44 3.26 2.87 6.53 4.6 10.46l.65-3.47c1.52 4.44 3 8.74 4.79 13.97.53-2.5.86-4.05 1.34-6.33 1.26 4.95 2.36 9.27 3.56 14 .73-1.68 1.29-2.96 1.85-4.24l.76.12 2.46 13.85c.96-2.38 1.65-4.11 2.39-5.94 1 5.28 1.96 10.4 3.11 16.43.99-3.48 1.75-6.12 2.5-8.76 1.55 5.21 1.68 10.63 4.73 15.51 1.15-1.58 2.04-2.81 3.3-4.53 1.47 5.4 2.81 10.31 4.35 15.96 1.14-1.7 1.78-2.65 2.42-3.61.17.06.33.13.5.19-.89 4.36-1.79 8.72-2.43 11.85 2.33 3.83 4.07 6.68 6.1 10.02.17-.82.32-1.16.31-1.5-.22-7.94-.4-15.87-.75-23.8-.07-1.53-.58-3.17-1.29-4.52-13.13-24.64-25.13-50-40.57-73.19-5.99-8.99-12.25-17.78-18.52-26.87 12.54 11.8 22.53 25.68 31.68 40.21 9.17 14.57 17.84 29.48 26.94 44.2C85.37 241.95 63.93 167.7 35.5 95.73c17.25 33.41 29.88 68.92 41.85 104.73 11.98 35.84 21.14 72.57 29.92 109.6 13.59-.79 26.63.47 38.93 6.31.2-.24.46-.44.43-.53-3.89-11.57-8.36-22.89-15.55-32.63-5.74-7.76-13.05-11.99-22.72-9.16-.41.12-.86.14-1.28.15-.18 0-.35-.18-.75-.39 6.52-3.41 12.74-1.65 18.83.65 7.93 3 13.58 9.29 18.89 15.84 6.88 8.49 11.34 18.38 13.55 29.32.55 2.69.08 5.61-.66 8.62 1.61 3.43 3.23 6.86 4.84 10.29.29-.08.59-.15.88-.23-3.82-48.71-7.92-97.39-13.94-146.35-10.13-5.39-19.23-12.41-26.77-22.6 4.01 1.07 7.46 1.99 11.45 3.06-3.42-7.55-6.64-14.66-9.94-21.94 2.48 1.14 4.79 2.2 7.1 3.26.16-.15.33-.3.49-.46-3.78-5.77-7.57-11.54-11.74-17.91 3.49 1.68 6.47 3.1 9.75 4.67-2.78-9.5-7.06-17.25-16.4-20.81l15.97 3.1c-3.7-7.41-7.06-14.15-10.36-20.75 2.06 1.52 4.38 3.24 6.7 4.96.17-.11.34-.22.51-.32-1.7-2.84-3.4-5.68-5.43-9.08 1.99.67 3.54 1.18 5.83 1.95-2.35-2.93-4.3-5.35-6.25-7.78.07-.14.15-.28.22-.42 1.25.65 2.51 1.31 4.02 2.09-2.72-5.41-5.27-10.48-8.04-15.97 1.88.99 3.46 1.83 5.04 2.66.14-.1.27-.21.41-.31-2.46-3.65-4.92-7.31-7.71-11.45l5.14 1.63c-1.89-3.03-3.64-5.84-5.68-9.11 1.5.56 2.55.95 3.61 1.34.28-.16.56-.33.85-.49-.97-1.93-1.93-3.85-2.89-5.76h2.04c-1.59-2.56-2.92-4.72-4.5-7.25l2.23.29c-.88-1.73-1.7-3.31-2.82-5.5 1.22.63 1.89.98 2.9 1.5-1.79-4.57-3.47-8.89-5.16-13.21.2-.11.4-.23.59-.34 2.39 4.58 4.78 9.16 7.27 13.95.2-1.59.39-3.05.7-5.44.95 4.2 1.71 7.55 2.46 10.9l.56-.03c.26-1.28.53-2.57.89-4.31 1.34 5.25 2.55 10.02 3.88 15.24.43-2.62.78-4.75 1.14-6.88l.45.03c.76 4.91 1.52 9.81 2.35 15.16.95-1.96 1.7-3.52 2.46-5.07.16.03.31.07.47.1v12.21c1.5-1.96 2.54-3.32 4.25-5.56-.32 5.63-.57 10.26-.83 14.88.18-.02.36-.04.54-.05.19 2.18.37 4.36.59 6.82 1.24-2.08 2.46-4.12 3.69-6.16.22.02.44.05.65.07v21.76c.43.26.85.52 1.28.78.91-1.7 1.82-3.39 2.74-5.09.35.29.71.57 1.06.86-.68 2.09-1.37 4.18-2.36 7.23 2.28-2.66 3.98-4.64 6.14-7.17-3.37 9.31-1.71 18.21-2.02 27.01.31.12.62.24.92.36 2.1-2.94 4.2-5.89 6.9-9.66-1.2 8.01-2.25 15.08-3.46 23.16 2.42-3.18 4.27-5.61 6.44-8.47-.86 7.73-1.65 14.8-2.43 21.88.21.11.43.22.64.33 1.64-2.17 3.28-4.33 4.93-6.5-1.94 13.33-1.92 27.29-10.9 37.74 5.29 53.65 10.53 106.91 15.84 160.8 8.06 2.94 14.97 8.91 20.87 16.17 5.87 7.23 9.32 15.83 11.64 25.09-.27-4.62-.5-9.25-.81-13.87-1.93-28.22-3.83-56.44-5.9-84.65-.12-1.69-1.33-3.52-2.48-4.86-5.21-6.12-10.57-12.1-15.88-18.12.25-.32.49-.64.74-.96 1.9 1.16 3.8 2.32 6.62 4.03-3.51-8.48-6.63-16.02-9.76-23.56.14-.12.28-.25.42-.37 1.91 1.79 3.82 3.59 5.73 5.38l.7-.55c-2.44-4.08-4.87-8.16-7.52-12.6 1.84.58 3.38 1.07 4.92 1.55.18-.2.37-.4.55-.61-3.89-6.35-7.79-12.7-11.47-18.71 3.13 1.79 6.85 3.93 10.89 6.24-1.83-8.86-4.78-16.78-9.44-24.14 2.47 1.74 4.94 3.48 7.42 5.22.24-.17.47-.34.71-.51-2.15-4.04-4.3-8.08-6.64-12.47 1.59.91 2.97 1.7 4.36 2.5l.74-.8c-2.4-2.68-4.81-5.35-7.23-8.06.96.18 1.99.37 3.46.64-.76-1.98-1.43-3.75-2.39-6.24 2.45 1.95 4.31 3.42 6.88 5.46-1.49-5.27-2.75-9.72-4.15-14.66 1.11-.87 2.3-1.81 3.73-2.93-.76-1.78-1.79-4.19-3.02-7.06 1.25.55 2.2.96 3.81 1.66-1.67-2.82-3-5.07-4.82-8.15 1.67 1.01 2.58 1.57 3.95 2.39-.88-2.63-1.61-4.79-2.34-6.96.16-.08.33-.15.49-.23.99 1.55 1.98 3.1 2.97 4.66l.96-.24c-.41-5.38-.82-10.75-1.25-16.45.66 1.48 1.24 2.8 1.84 4.16.85-2.58 1.65-5.02 2.45-7.45.08.03.16.05.25.08l-1.35 15.72c.23.05.46.1.68.14.63-2 1.25-3.99 1.88-5.99l.45.09v13.86c.14.02.28.05.42.07.61-1.62 1.21-3.25 2.01-5.4v8.9c1.02-1.38 1.66-2.25 2.83-3.83-.31 3.78-.55 6.77-.88 10.86 1.44-2.5 2.39-4.12 3.84-6.63-.72 6.12-1.32 11.19-1.91 16.27.19.07.39.14.58.2 1.33-2.14 2.67-4.28 4.39-7.06v21.96c1.59-2.43 3.02-4.62 5-7.64-.85 7.07-1.58 13.11-2.3 19.15.23.08.46.17.69.25l2.4-2.88c.2.08.4.15.6.23-.54 5.45-1.08 10.9-1.7 17.19 3.09-3.82 5.58-6.92 8.08-10.01-2.41 8.6-3.9 17.18-3.98 26.8 3.12-2.77 5.69-5.04 8.9-7.9-2.24 6.52-4.18 12.15-6.12 17.79.2.13.39.27.59.4 2.6-4.25 5.2-8.49 7.89-12.89.27.48.45.66.43.8-1.99 10.66-3.76 21.38-6.09 31.96-1.68 7.59-5.78 13.78-12.06 18.37 5.49 72.95 8.92 146 17.5 218.66l8.69-8.33c-1.43.17-2.21.27-3.87.47 1.67-1.1 2.6-1.71 3.83-2.51.35-5.74.59-11.71 1.1-17.64 4.8-56.19 3.1-112.51 3.29-168.8.01-1.5.03-2.99.07-4.49.01-.45.1-.9.15-1.35.34-.01.68-.02 1.01-.02 1.79 56.07 3.57 112.14 5.23 164.19 2.25-28.05 6.27-59.94 11.69-91.61 2.34-13.7 2.68-27.4 1.91-41.22-1.16-20.92-2.18-41.84-3.29-62.76-.08-1.49-.34-2.96-1.03-3.92l-11.86-10.84c.12-.22.23-.43.35-.65.68.13 1.37.25 2.74.5-2.27-4.35-4.26-8.18-6.51-12.5 1.79 1.04 3.09 1.79 5.12 2.98-1.91-4.08-3.46-7.4-5.23-11.2 1.27.23 2.13.38 3.55.64-2.55-3.41-4.83-6.45-7.08-9.46 1.77.71 3.77 1.52 6.11 2.46-1.84-4-3.57-7.74-5.36-11.61.83.18 1.72.38 3.14.69-1.27-2.46-2.34-4.54-3.91-7.59 1.9.88 2.89 1.33 4.37 2.01-1.19-1.77-2.12-3.16-3.32-4.94 1.14.15 1.88.25 2.84.38l-3.18-5.07c.24-.02.47-.03.71-.05 0-1.27.26-2.61-.06-3.78-.44-1.58-1.32-3.03-2.26-5.06 1.2.16 1.89.25 2.82.37-.77-2.3-1.52-4.53-2.5-7.43l3.08 4.07.31-.37c.93 2.39 1.86 4.78 3.11 7.96.35-1.95.54-3.03.73-4.12.79 4.13 1.55 8.14 2.47 12.95.64-2.13 1.02-3.43 1.41-4.73h.44c.25 3.28.51 6.55.78 10.01.62-.87 1.13-1.58 2.15-3 .23 5.34.42 9.85.64 15.16 1.42-1.78 2.29-2.86 3.49-4.37v14.61c.18.08.36.16.53.24.82-1.57 1.65-3.14 2.47-4.71.25.04.5.09.75.13-.45 3.77-.9 7.55-1.44 12.03 1.31-2.05 2.32-3.61 3.73-5.82-.59 9.23.05 17.89-3.18 26.16-.67 1.72-.22 3.98-.1 5.98.76 12.97 1.58 25.94 2.31 37.86 7.17-79.3 22.21-157.51 56.29-230.48-7.38 20.41-14.76 40.82-21.75 60.18 5.14 7.61 9.57 14.24 14.1 20.79.67.96 1.76 1.65 2.76 2.28 4.98 3.18 9.22 7.16 12.25 12.51.76 1.35 1.67 2.59 2.62 4.05-.79-8.81-1.55-17.31-2.31-25.8l.52-.15c1.44 3.71 2.87 7.43 4.31 11.14.19-.07.38-.15.57-.22-1.2-5.6-2.4-11.2-3.6-16.81.18-.11.36-.21.55-.32 1.01 1.35 2.02 2.7 3.04 4.05.26-.04.53-.07.79-.11-.63-6.15-1.26-12.3-1.94-18.98.77 1.16 1.37 2.06 1.96 2.96.62.93 1.23 1.86 2.39 3.63-.84-3.46-1.46-5.97-2.28-9.38.96 1.3 1.43 1.94 2.19 2.97-.55-3.29-1.03-6.14-1.51-9 .12-.03.25-.07.37-.1.61 1.11 1.23 2.23 1.84 3.34.18-.05.35-.09.53-.14-.21-2.98-.43-5.97-.64-8.95.14-.06.27-.11.41-.17.41 1.01.83 2.01 1.51 3.68v-11.99c.63 1.51.88 2.1 1.19 2.85.46-.46.8-.8 1.37-1.36v14.47c.3-.1.6-.2.9-.29.53 1.47 1.05 2.95 1.57 4.4.5-1.23 1.1-2.69 1.7-4.16.22.05.43.11.65.16l-1.83 12.04c.9-.78 1.7-1.48 2.98-2.59-.85 5.36-1.61 10.21-2.47 15.6 1.44-.88 2.48-1.51 3.88-2.36-.45 1.91-.83 3.49-1.24 5.21l5.07-3.09c-2.01 6.3-4.01 12.57-6.2 19.45 3.14-2.13 5.65-3.83 7.74-5.25-1.61 5.59-3.31 11.47-5 17.35.31.18.63.35.94.53.64-.3 1.28-.61 2.46-1.17-1.1 3.51-2.03 6.47-3.2 10.18 3.61-3.32 6.74-6.19 9.84-9.05l-9.52 25.57c3.08-2.52 5.38-4.4 7.77-6.35-1.06 14.5-7.07 31.54-15.38 43.41 1.99 13.27-1.19 27.26 2.91 41.23 1.87-3.76 3.32-7.2 5.19-10.36 7.63-12.86 17.29-23.58 30.22-30.43 6.44-3.41 13.32-5.48 20.66-3.89 2.9.63 5.36 2.13 6.69 5.34-4.64-4.84-10.26-6.2-16-3.82-3.78 1.57-7.69 4.15-10.28 7.4-15.23 19.14-26.03 40.9-32.35 65.08-.9 3.43-.91 7.12-1.43 11.51 6.35-6.38 12.2-11.83 17.52-17.83 2.28-2.57 3.43-6.26 5.06-9.47.71-1.41 1.3-2.88 2.46-4.13-1.33 3.89-2.67 7.79-4.25 12.41 10.43-5.04 20.72-6.87 31.49-4.91-9.87-1.26-16.39 5.32-23.13 11.19-2.58 2.25-5.04 4.8-7.08 7.59-1.8 2.47-3.19 5.37-4.33 8.26-5.05 12.77-9.94 25.6-14.87 38.42-.4 1.05-.97 2.17-.94 3.24.4 11.72.91 23.45 1.42 35.98 1.98-2.91 3.48-5.1 5.35-7.84-.12 1.03-.05 1.41-.2 1.62-4.37 6.21-4.54 13.26-4.19 20.65.68 14.37.88 28.76 1.29 43.15.03 1.11.13 2.22.22 3.54l13.92-15.59c.18.19.37.37.55.56-4.15 5.62-8.31 11.23-12.58 17 3.1 4.2 5.94 8.06 8.88 12.04 2.5-3.48 4.92-6.86 7.34-10.23.27.19.54.37.81.56-2.24 3.82-4.49 7.64-6.68 11.37 2.76 4.58 5.42 9 8.16 13.55 2.98-4.83 6.07-9.82 9.07-14.66-2.26-45.9-8.23-91.09-16.95-135.91 10.85 46.54 19.84 93.43 24.43 141.46 2.79-.75 4.35-1.77 4.51-4.61.29-5.32.79-10.64 1.27-16.85-1.96 1.76-3.11 2.79-4.26 3.82 5.07-5.83 4.72-13.2 5.44-20.26 4.13-40.07 9.05-80.02 16.78-119.53 3.65-18.64 6.63-37.43 9.93-56.15.06-.32.19-.62.68-.87-10.82 61.38-21.18 122.81-22.66 183.69 6.19-29.79 12.73-61.23 19.27-92.68l.68.15-16.59 93.08c.23.11.46.23.69.34.74-1.02 1.51-2.01 2.21-3.06 3.67-5.53 7.42-10.99 10.92-16.64 1.46-2.36 2.53-5.03 3.49-7.68 7.98-21.84 15.23-44.01 25.39-64.88 2.22-4.56 4.71-8.96 7.07-13.44.23.13.46.26.7.39-1.36 2.9-2.71 5.81-4.09 8.7-9.77 20.4-17.29 41.79-24.35 63.36-2.48 7.59-6.16 14.29-10.69 20.65-2.77 3.89-4.99 8.23-7.72 12.54-.83 1.26-1.6 2.29-1.91 3.45-1.89 7-3.97 13.96-5.4 21.06-1.07 5.31-1.26 10.82-1.91 16.91 1.86-2.78 3.53-4.72 4.57-6.98 2.25-4.9 3.87-10.14 6.32-14.91 2.84-5.54 4.97-10.83 1.04-16.72l3.3 3.72c5.2-22.82 15.84-42.72 27.77-62.06-.25.71-.45 1.45-.75 2.14-7.25 16.69-15.75 32.8-21.02 50.43-1.01 3.37-2.09 6.72-2.98 10.13-.41 1.58-.44 3.27-.63 4.91.3.18.61.36.91.53 1.4-1.72 2.8-3.45 4.56-5.62-.9 3.15-1.99 5.77-2.32 8.5-.32 2.63.14 5.37.29 8.62 5.02-8.65 9.99-16.27 13.97-24.43 2.06-4.23 2.54-9.39 3.4-14.2 1.28-7.19 2.26-14.43 3.32-21.27 1.48 9.64-2.16 19.34-2.47 30.06 10.92-17.51 24.86-30.92 40.68-42.28-5.42 5.37-10.99 10.59-16.24 16.15-5.28 5.6-10.24 11.53-15.35 17.34 4.6 26.19 6.34 52.38 7.81 78.78 17.03-42.14 41.48-78.37 73.35-108.95-26.98 29.9-45.62 65.35-60.97 103.16 21.9-11.24 44.03-21.46 66.65-26.65 8.54-8.96 16.34-17.15 24.14-25.34.28.27.56.55.84.82l-12.74 17.23c10.03-2.24 19.63-4.39 29.23-6.54.01.14.01.28.02.43-9.3 3.11-18.6 6.21-27.9 9.31-3.37 1.12-5.57 3.68-7.61 6.6-9.63 13.75-17.86 28.4-25.24 43.6-.2.4-.3.86-.41 1.19 7.61-.58 15.22-1.16 23.35-1.77 13.25-14.72 28.59-27.17 46.24-36.32-13.36 9.53-25.77 20.2-36.41 33.46h19.93v.51c-4.48.34-8.95.67-13.43 1.01-5.2.4-9.61 1.96-13.28 6.53-9.05 11.28-17.56 22.93-24.31 36.04 4.19-4.73 8.18-9.68 12.61-14.12 4.52-4.53 9.48-8.57 14.46-12.5-7.78 9.51-15.55 19.02-23.33 28.52l.51.54c8.22-2.28 16.43-4.57 24.65-6.85.09.33.17.66.26.99-5.14 1.91-10.29 3.79-15.41 5.75-3.74 1.44-7.48 2.9-11.15 4.53-4.26 1.89-7.89 4.62-10.09 9.16-5.41 11.15-10.88 22.27-16.29 33.42-.47.97-.61 2.11-.58 3.45 15.28-18.87 31.22-36.78 52.96-47.34-19.56 12.84-34.56 30.69-48.53 49.67-.61.83-.92 1.91-1.04 3.16 5.22-4.79 9.92-10.17 16.64-12.54-3.47 3.61-7.02 7.06-10.29 10.78-1.74 1.98-3.12 4.37-4.42 6.72-.36.65.17 1.86.16 3.13-4.09 4.56-5.34 10.12-6.53 15.74l7.51-11.64c-.38-1.44-.63-2.76-.88-4.09zM193.74 528.77c-.24 2.86-2.69 5.68 0 8.91.98-2.11 1.86-3.99 2.95-6.32-1.04-1.05-2.04-2.05-3.05-3.57.93-3.35-.61-5.94-1.96-8.56-3.54 4.32-3.33 8.57-.28 12.82.78-1.27 1.57-2.56 2.34-3.28zm-85.78-102.1v11.53c1.29.43 2.55.86 3.98 1.35v-8.53c-1.5-1.9-2.65-3.35-3.44-5 .95.4 1.89.8 3.23 1.36-1.67-5.02.78-10.93-4.47-15.23 0 3.66-.11 6.51.04 9.34.09 1.61.6 3.19.66 5.18zm76.35 86.65c1.2 3.1 2.4 6.2 3.8 9.79 1.01-2.38 1.79-4.22 2.53-5.98-2.55-6.66-5.01-13.08-7.47-19.5l-.84.24c.36 4.18.71 8.36.57 12.81.26 10.42.52 20.84.79 31.82 1.93-1.13 3.03-1.78 3.97-1.99-1.45 1.18-2.89 2.36-4.34 3.55.24.25.49.5.73.74.43 2.21.85 4.43 1.38 7.16 2.54-4.14 4.85-7.91 7.11-11.58-.59-1.42-1.05-2.53-1.51-3.63-.64.3-1.11.52-1.29.24 1.71-4.56-.92-7.98-2.4-11.9-.8.7-1.31 1.14-1.47 1.29-.16-1.65-.23-3.36-.49-5.04-.42-2.78-.96-5.54-1.07-8.02zm155.06 13.48c-.49 1.86-.97 3.72-1.56 5.98 1.52 3.28 3.13 6.76 5.11 11.05 1.33-9.8 4.35-17.82 8.69-25.22 2.12-3.61 1.18-6.48-.86-10.72-2.99 4.37-5.63 8.04-8.07 11.86-1.34 2.09-2.36 4.42-3.5 6.1 1.73-3.94 3.46-7.88 5.38-12.26-1.75.86-3.02 1.49-4.3 2.11-.08-.17-.17-.33-.25-.5 3.49-2.65 6.98-5.3 10.5-7.98-1.91-4.38-3.76-8.62-5.66-12.97-7.79 6.8-8.71 8.83-8.93 18.56-.07 2.98-.45 5.96-.38 8.93.07 2.81.54 5.6.92 9.3 1.29-2.18 2.05-3.47 2.91-4.24zm-183.26-6.43c-.24 6.83 1.72 11.61 7.26 17.36-.8-2.95-1.51-5.54-1.78-7.96 2.17 6.22 4.34 12.45 6.51 18.67.15-1.45.04-2.82-.19-4.16-1.38-8.33-2.91-16.63-4.14-24.98-1.67-11.34-2.61-22.88-8.46-31.67 0 4.89-.15 10.93.05 16.96.17 5.12.73 10.24.75 15.78zM503.36 559c4.29-5.75 8.57-11.51 12.86-17.26-.1-.26-.19-.53-.29-.79-7.24 1.02-14.47 2.03-21.44 3.01-3.19 6.17-6.08 11.75-9.1 17.6 1.4.94 2.63 1.78 3.08 2.08 5.33-1.61 9.95-3 14.19-4.13-3.99 1.72-7.99 3.45-12.33 5.33 2.19 1.87 4.01 3.42 6.33 5.4 2.18-3.85 4.23-7.47 6.7-11.24zM293.92 407.17c5.68 6.24 11.36 12.49 17.15 18.86 4.49-13.19 8.94-26.27 13.3-39.09-6.5-8.97-16.1-13.01-23.46-9.78-1.47 6.59-2.92 13.51-4.56 20.38-.77 3.23-1.91 6.37-2.86 8.97-.1-1.13-.52-2.36-.25-3.38 2.59-9.83 5.3-19.63 7.83-28.88 7.43-3.46 12.91.81 18.64 4.34-4.29-6.43-7.08-14.31-15.24-16.62 2.24-2.26 4.8-2.17 8.25.4 6.33 4.71 9.42 11.79 12.25 19.04 1 2.57 1.85 5.21 2.77 7.82.44-5.19.78-10.27.31-15.26-.27-2.82-1.53-5.71-2.95-8.18-3.76-6.55-7.77-12.95-11.84-19.28-2.22-3.45-2.68-6.61.05-9.97.68-.83 1.01-1.97 1.59-3.14-1.03-2.15-2.01-4.21-3.31-6.92-.54 1.36-.78 1.94-1 2.54-8.07 22.07-13.88 44.86-19.07 67.84-5.95 26.33-12.57 52.52-14.97 79.62-1.47 16.61-1.37 33.21-.86 50.72 2.62-11.74 4.92-22.64 7.51-33.47 2.58-10.8 5.43-21.52 8.16-32.28l.79.24c-3.11 15.69-6.23 31.37-9.34 47.06.31.07.62.13.93.2l1.17-.96c-.71 2.58-1.94 5.21-2.1 7.92-.8 13.52-1.31 27.05-1.93 40.58 1.44-3.51 2.34-7.14 3.57-10.64 2.58-7.39 6.34-14.49 7.8-22.1 3.43-17.88 5.79-35.99 8.59-54-5.2-9.82-10.38-19.62-15.57-29.42.36-.23.71-.46 1.07-.69 4.99 8.25 9.97 16.51 15.1 25.01 2.68-12.07 5.27-23.74 7.88-35.48-5.05-6.69-9.97-13.21-15.16-20.09-2.01 9.22-3.87 17.77-5.73 26.33-.37-.75-.47-1.45-.36-2.1 1.52-8.77 3.06-17.54 4.64-26.3 0-.04.5.03 1.21.16zm-16.99-123.62c13.96-.51 24.98 6.7 35.64 15.32-2.03-9.71-5.03-18.88-10.03-27.21-5.19-8.65-12.55-14.05-22.13-15.97 9.96-.38 18.83 2.81 26.93 9.2-.73-9.1-1.41-17.58-2.1-26.05.21-.02.42-.04.63-.05.78 8.8 1.57 17.6 2.3 25.83 4.76 5.68 9.25 11.06 13.18 15.74v-33.34c-6.06-6.12-10.35-12.96-13.22-20.77-3.53-9.6-7.08-19.2-10.47-28.86-5.04-14.36-9.91-28.79-14.98-43.14-.87-2.48-2.32-4.72-3.51-7.07-4.35 13.81-8.37 27.34-11.29 41.13-4.31 20.33-8.17 40.79-11.59 61.32-2.56 15.36-4.19 30.9-6.12 46.38-1.34 10.71-2.85 21.41-3.61 32.17-.58 8.3-.12 16.68-.12 25.03l1 .06c5.64-27.36 12.74-54.25 22.99-80.15-1.1 4.33-2.2 8.66-3.26 12.79 3.2-.79 6.21-1.54 9.76-2.36zm-110.06 103c-1.03-10.63-2.26-21.25-3.04-31.9-.71-9.72-3.04-18.71-8.73-26.77-16.71-2-30.9-12.47-47.29-17.13.18 1.09.23 1.65.37 2.19 4.25 16.32 8.94 32.53 12.66 48.98 7.42 32.85 14.36 65.82 21.38 98.77 1.59 7.46 3.45 15 3.8 22.58.28 6.08 2.25 10.92 5.54 16.48-.64-22.01-1.26-43.19-1.87-64.38.53 1.26.84 2.56 1.11 3.88 2.3 10.95 2.81 22.06 2.73 33.24-.01 1.6-.11 3.39.51 4.76 1.83 4.08 3.99 7.99 5.95 11.85-.71-7.94-.87-16.26-2.3-24.33-1.95-10.99-1.59-22.5-5.29-33.23l1.13-.38c-2.45-17.65-4.89-35.16-7.41-53.32 8.13 29.28 11.3 59.01 16.48 88.33 1.58-.17 2.64-.28 3.73-.4.55-.7 1.06-1.34 1.79-2.27-.09.81-.14 1.22-.2 1.76 1.98.51 3.97 1.01 6.11 1.56-.19-1.76-.36-3.11-.48-4.46-1.03-11.78-2.04-23.56-3.08-35.34-1.18-13.3-2.36-26.57-3.6-40.47zm95.63 64.16c.71 5.28 1.42 10.56 1.99 14.88 3.85-24.31 7.82-49.41 11.85-74.89-1.78-2.5-3.87-5.44-5.96-8.38.15-.12.29-.24.44-.37 2.18 1.98 4.35 3.96 6.8 6.18 4.27-15.07 10.52-28.91 17.86-42.23-1.73 6.34-3.72 12.57-5.56 18.86-5.08 17.33-7.77 35.19-10.46 53.06-.64 4.28-1.75 8.52 1.87 12.47.84-8.93 4.93-17.04 3.73-26.12.33.23.8.57 1.15.81 8.59-26.35 12.71-54.24 24.38-79.7-1.19-2.24-2.4-4.67-3.73-7.03-6.52-11.55-14.38-21.81-24.94-29.5-4.8-3.5-9.81-3.51-15.19-1.08-1.16 4.53-2.62 8.99-3.41 13.59-3.15 18.38-6.24 36.78-9 55.23-.81 5.38-.87 10.98-.55 16.44.34 5.82 1.57 11.58 2.34 17.38 1.13 8.63 2.2 17.27 3.41 26.86 1.04-4.62 1.84-8.27 2.68-11.91.84-3.63 1.72-7.25 2.59-10.87l1.04.12c-4.67 18.34-6.02 36.85-3.33 56.2zm200.26 98.1c3.69 1.86 7.38 3.72 11.14 5.62 1.67-.99 3.25-2.28 5.04-2.93 3.23-1.17 4.85-3.74 6.39-6.71 8.55-16.47 17.57-32.62 29.27-48.08-23.92 7.95-46.47 16.95-67.48 29.92.5 5.93.95 11.3 1.39 16.48 4.78 1.88 9.31 3.65 14.25 5.7zm-282.24-68.69c-.3 4.99 1.27 9.38 3.58 13.65 1.7 3.16 2.98 6.59 4.38 9.94 1.38 3.31 2.65 6.66 3.51 8.81 5.54-5.32 11.22-10.77 16.76-16.09-.7-8.48-1.3-16.49-2.07-24.49-.14-1.4-.72-2.93-1.53-4.06-2.42-3.37-4.89-6.74-7.64-9.8-3.65-4.05-13.51-6.95-19.89-1.33 1.54 7.47.31 15.75 6.17 22.12l-1.11.6-1.92-3.15c-.18.13-.37.25-.55.38.05.96.12 1.92.31 3.42zm253.69 22.32c-.87-17.46-2.83-34.78-5.9-52.61-1.53 2.38-2.56 4.27-3.84 5.93-5.37 6.97-7.26 14.66-6.75 23.83.78 13.86.23 27.81.26 41.72 0 1.19.13 2.38.21 3.85 2.07-1.65 3.8-3.04 5.54-4.42-3.32 4.92-5.97 9.87-5.54 15.6 5.33-2.93 10.89-5.99 17.01-9.36-.29-7.38-.63-15.63-.99-24.54zM240.7 473.53c.19 20.21.37 40.43.56 60.64h1.01c.11-1.8.09-3.62.37-5.39 3.08-19.56 6.26-39.1 9.31-58.66.91-5.85 2.5-11.84 2.07-17.61-1.24-16.58-3.37-33.09-5.14-49.63-.2-1.83-.38-3.65-.6-5.47-.21-1.77-.47-3.54-.71-5.31-.24.02-.48.03-.71.05-2.27 22.8-4.53 45.6-6.84 68.8 1.05-.46 1.34-.59 1.45-.63-.26 4.32-.5 8.44-.77 13.21zm78.04-28.7c-1.17-1.97-2.35-3.93-4.06-6.79-2.64 16.94-5.1 32.76-7.51 48.26 4.64 4.61 8.86 8.79 13.27 13.17 2.78-6.79 5.25-13.38 8.17-19.74 1.85-4.03 2.19-8.13.63-11.95-3.1-7.66-6.79-15.04-10.5-22.95zm-130.54-29.2c-4.49-3.43-8.98-6.88-15.23-6.28 1.14 11.36 2.24 22.24 3.36 33.39 5.51-3.4 10.76-3.96 16.28-.95 5.18 2.83 8.47 7.44 11.37 12.63-.16-5.6-.52-11.08-1-16.55-.22-2.47-.02-4.88-2.04-7.07-4.35-4.73-8.27-9.9-12.74-15.17zm-19.47-44.59c1.36 12.32 2.73 24.65 4.12 37.26 13.14-5.55 22.26-1.12 28.56 12.08v-6.2c-1.04-.38-1.9-.69-2.58-.94-11.15-22.31-23.45-40.47-30.38-44.83.07.74.12 1.42.28 2.63zm147.2 63.65c4.87 9.34 9.73 18.68 14.32 27.49-.54-21.94-1.09-44.69-1.65-67.44l-1.11-.09c-.3.54-.71 1.04-.9 1.62-3.86 11.96-7.72 23.93-11.49 35.92-.17.57.37 1.39.83 2.5zm99.06 37.06c-3.44 7.84-6.9 15.67-10.28 23.53-.38.88-.59 2.06-.38 2.96 2.3 9.71 4.7 19.39 7.14 29.38 1.01-.06 2.01-.12 3.29-.19.49-19.41.97-38.56 1.45-57.86-.33.66-.63 1.24-1.22 2.18zM313.4 496.79c-2.01-2.34-4.02-4.68-6.24-7.25l-6.99 52.13c6.53-12.25 13-24.38 19.56-36.69-2.06-2.68-4.04-5.26-6.33-8.19zm118.22 75.33c-1.56 4.51 1.31 7.66 2.73 10.97 3.46-4.42 6.93-8.78 10.3-13.21.78-1.03 1.78-2.29 1.81-3.47.17-6.74.08-13.48.08-20.51h-6.68c-2.68 8.42-5.44 17.04-8.24 26.22zm-219.8-35.86v-15.37l-1.38-.72c-3.97 3.51-7.93 7.02-11.9 10.54 4.29 13.13 8.39 25.64 12.48 38.15h.83c0-10.64 0-21.28-.03-32.6zm-40.11-26.44c-.26-2.35-.52-4.7-.79-7.05.13-.03.27-.05.4-.08 1.3 4.56 2.61 9.12 3.91 13.69l1.02-.09c-.66-13.93-1.32-27.85-1.92-40.7-3.98-2.77-7.11-4.96-10.79-7.52 3.44 20.51 6.75 40.3 10.07 60.09.21-.03.42-.07.62-.1-.82-5.89-1.66-11.76-2.52-18.24zm282.92 90.24 20.19-34.78c-2.4.91-5.22 1.13-6.81 2.73-9.39 9.41-17.46 19.9-22.22 33.36 1.56 1.85 3.14 3.73 4.81 5.71 1.44-2.5 2.62-4.54 4.03-7.02zm-201.07-64.35c1.03-5.39 2.37-10.73 3-16.17.63-5.42.49-10.93.82-16.4.33-5.51 2.54-10.66 1.37-16.57-1.01-5.1-.21-10.61-.21-15.94-.3.01-.6.01-.9.02-4.2 23.61-9.72 51.8-6.25 77.69.77-4.44 1.44-8.24 2.17-12.63zm-42.98-22.34c-.5-4.69-1.01-9.37-1.51-14.06-.32-.14-.64-.29-.96-.43-5.1 5.7-10.19 11.4-15.32 17.13 1.75 4.53 3.35 8.67 4.87 12.59l13.51-11.2c-.17-.99-.37-2.21-.59-4.03zm-106.5 62.83c1.46 7.73 2.91 15.46 4.37 23.19 1.89-11.14 1.54-22.04-.8-32.93-1.17-5.46-1.53-11.11-2.26-16.67l1.12-.24c1.19 3.68 2.37 7.37 3.8 11.81v-24.23c-2.05-1.12-4.01-2.19-6.23-3.4v42.47zm370.04 18.4c-.72 1.71-1.45 3.42-2.04 4.83 11.62-4.84 16.02-16.49 22.54-26.83-3.3-2.43-6.23-4.58-9.84-7.23-3.4 8.4-6.49 16.03-9.57 23.66.23.1.45.19.68.29.97-.55 1.94-1.09 2.9-1.64.12.21.23.43.35.64-1.59 1.96-3.16 3.91-5.02 6.28zm-363.65-87.36v-10.29c-2.74-.7-5.11-1.3-8-2.03.41 11.63.8 22.82 1.2 34.01 2.48 1.07 4.51 1.93 6.79 2.91 0-8.3 0-16.1.01-24.6zm339.76 74.36c7.43-7.82 14.85-15.65 22.44-23.64-1.59-1.08-2.83-1.93-3.85-2.62-8.03 3.63-15.1 8.06-19.99 14.47-.51 5.48-.93 10.11-1.43 15.42 1.08-1.38 1.81-2.31 2.83-3.63zm-334.36-54.61c.17 1.8.33 3.61.46 5.02 3.88 2.54 7.39 4.84 11.68 7.64-2.91-9.55-3.65-18.95-8.71-27.19.83.46 1.44.8 2.3 1.28-1.07-4.7-2.06-9.09-3.08-13.54l-2.68-.65c0 9.11 0 17.96.03 27.44zm263.78-4.97v12.53c.45.07.9.15 1.36.22 4.74-15.52 10.12-30.72 18.71-43.8-.39-2.48-.69-4.33-1.04-6.59-.73.74-1.2 1.05-1.46 1.5-3.79 6.75-7.76 13.39-11.24 20.31-2.46 4.88-4.24 10.13-6.33 15.83zm-234.36 51.94c.13-2.17.25-4.35.43-7.45-3.56-2.32-7.33-4.77-11.28-7.35.93 9.13 6 16.81 3.14 25.54-.94.3-1.68.53-2.07.66l6.29 23.56c.39-1.26.67-2.11.92-2.97 1.69-5.86 1.84-11.25-3.63-15.25-1.07-.78-1.72-2.23-2.56-3.36.22-.21.44-.42.67-.63 1.57 1.39 3.13 2.79 5.24 4.66-.88-9.43-1.67-17.85-2.46-26.27l.75-.09 3.63 17.8.38-.09c.14-2.7.29-5.42.55-8.76zm-27.05-152.98-1.86-3.21c-.23.29-.45.58-.68.86v9.71c6.32 4.82 7.07 12.91 10.82 19.14.51-1.83.98-3.55 1.46-5.27l.74.12 1.86 15.54.42-.09.66-3.68.82-.03 2.37 5.67c.13-2.27.15-4.49-.41-6.55-1.29-4.77-2.46-9.65-4.42-14.13-1.51-3.45-4.16-6.34-6.26-9.51-1.77-2.69-3.5-5.45-5.52-8.57zm-11.86-75.08c-.44-1.11-.87-2.23-1.48-3.78-.66 12.42.5 31.09 5.38 36.69l.74-5.18c.88 3.63.43 7.48 1.54 10.72 1.11 3.23 3.79 5.85 5.78 8.74l.3-.24c-4.05-15.48-8.08-30.96-12.26-46.95zm113.8 170.25v-9.56c-7.25 4.23-8.62 6.85-7.17 15.07 1.48 8.39 3.33 16.7 5.02 25.05.18-.01.36-.02.53-.02.54-9.96 1.07-19.92 1.62-30.54zm-110.16-22.09c.28-.33.83-.68.82-.99-.3-5.26-.58-10.52-1.08-15.77-.22-2.31-.91-4.56-1.37-6.81-2.5-.28-4.51-.5-6.46-.72v22.72c2.78.54 5.19 1 8.09 1.57zm281.42 82.87c-1.24-1.5-2.49-2.99-3.78-4.54-1.24 1.05-2.15 1.82-3.2 2.72v12.37c3.25 2.61 6.57 5.26 9.92 7.95.49-1.51 1.02-3.09 1.51-4.69.49-1.61.94-3.23 1.38-4.77-1.92-3-3.73-5.83-5.83-9.04zm-254.98-45.95c-1.8 6.36-1.12 7.94 4.46 10.58 2.14 1.01 4.24 2.11 6.51 3.24.52-4.01 1.06-7.85 1.51-11.69.39-3.38-1.06-5.52-4.16-6.07-3.33-.6-6.23.14-8.32 3.94zm270.53 15.55c1.04-.5 2.08-1.01 3.3-1.59-.74-4.19-1.49-8.39-2.42-13.63-4.71 3.7-8.81 6.92-12.83 10.09 1.29 4.07 2.38 7.5 3.44 10.87 2.85-1.89 5.5-3.63 8.51-5.74zm-282.17-56.71c-.26-3.66-.52-7.32-.79-11.06-2.3-1.56-4.51-3.06-7.32-4.96v21.32c2.68.82 5.56 1.71 8.84 2.71-.25-2.65-.47-5.02-.73-8.01zm111.76-10.99c1.72-19.28 3.43-38.55 5.15-57.83-3.65 15.63-10.84 80.63-7.92 88.2.92-9.91 1.83-19.82 2.77-30.37zm150.71 54.23c-.77.82-1.89 1.5-2.26 2.5-2.53 6.76-3.93 13.67-1.61 20.38 2.91-5.61 6.11-11.66 9.2-17.78 1.15-2.27 1.48-4.56-.02-5.39-1.41-3.39-2.42-5.8-3.81-9.13-.89 3.1-1.59 5.21-2.05 7.39-.1.53.56 1.26.55 2.03zm-255.41-21.3c.31 6.21.63 12.41.97 19.08 4.13-6.16 9.22-7.32 15.55-4.63-4.36-7.2-10.41-11.92-16.53-17.46-.01 1.3-.01 1.86.01 3.01zm318.86 51.07c4.65-3.18 9.29-6.35 14.69-10.04-5.79-2.48-11.06-4.75-16.72-7.18v18.63c.74-.53 1.18-.84 2.03-1.41zM197 556.88l-3.12-13.97-1.33-.09c-2.15 4.61-4.31 9.21-6.61 14.13 4.46 4.01 8.48 7.62 12.5 11.23.19-.25.38-.49.58-.74-.66-3.31-1.31-6.64-2.02-10.56zm-40.59-14.78c.19 9.55 4.39 17.81 8 26.98.55.17 1.65.51 3.4 1.04-1.2-12.82-5.72-23.52-10.96-33.94-.28.09-.57.17-.85.26.11 1.68.22 3.37.41 5.66zm170.08-11.83c.73-.99 1.45-1.98 2.59-3.53-1.9-4.59-3.89-9.41-5.89-14.22-.29.05-.58.1-.88.15-1.38 7.29-2.77 14.58-4.15 21.87.25.11.5.22.76.33 1.06-.99 2.13-1.98 3.19-2.96.13.1.25.21.38.32-1.09 2.03-2.18 4.06-3.34 6.21.26 1.02.55 2.12.96 3.68 2.23-4.11 4.2-7.76 6.38-11.85zm-206.91 24.02c1.47 7.65 2.94 15.3 4.58 23.77.49-6.89.92-13.04 1.36-19.22l-1.85-2.58h1.9c.14-2.46.28-4.71.44-7.43-2.68-2.59-5.57-5.39-8.46-8.18-.3.17-.6.35-.9.52.93 4.19 1.87 8.38 2.93 13.12zm192.68 49.28c3.31-14.45 6.63-28.91 9.94-43.36-.35-.09-.69-.17-1.04-.26-8.82 17.09-9.73 36.13-12.19 54.79l.81.21c.77-3.62 1.53-7.23 2.48-11.38zm5.05-79.56 4.11-14.52c-.33-.1-.65-.21-.98-.31-7.69 14.99-11.43 31.33-14.33 48.96 6.01-11.01 8.71-22.24 11.2-34.13zm83.81 42.64c-.69-1.26-1.38-2.52-2.21-4.03-3.68 1.74-7.12 3.36-10.86 5.13 3.71 4.36 7.35 8.65 11.23 13.21 1.36-3.6 2.58-6.84 3.75-9.92-.6-1.45-1.11-2.7-1.91-4.39zm-.89-63.07c-.27-.9-.54-1.81-1.14-3.84-3.79 8.07-7.14 15.22-10.28 21.91 1.85 3.41 3.26 5.99 4.69 8.62 2.29-7.64 4.54-15 6.67-22.4.34-1.17.16-2.49.06-4.29zM198.91 552.1c1.72 4.3 3.48 8.58 5.14 12.91.75 1.96 1.91 2.77 4.14 2.36-3.44-11.29-6.81-22.34-10.26-33.65-1.29 2.32-2.43 4.36-3.61 6.46 1.51 3.85 2.98 7.63 4.59 11.92zm-91.71 61.66c-1.45-9.3-2.91-18.61-4.36-27.91.97 13.37-2.67 26.86.74 40.17 1.21-1.38 2.36-2.7 3.63-4.14 0-2.22 0-4.85-.01-8.12zm74.23-160.34c3.88-2.17 7.95-2.38 12.54-.97-8.21-9.63-12.55-11.59-17.35-7.83.31 3.33.63 6.83.99 10.69 1.28-.62 2.32-1.13 3.82-1.89zm115.55 108.26c-.67 4.75-1.33 9.49-2 14.24.24.05.47.09.71.14 3.94-14.42 7.88-28.84 11.61-42.5-6.01 7.5-9.8 16.8-10.32 28.12zm-163.53 61.33 1.98 8.75c-.51-14.95.39-30.02-4.93-44.36-.19 3.04-.44 6.12-.14 9.14.86 8.64 1.95 17.26 3.09 26.47zm61.83-51.13c-.56 1.59-1.12 3.17-1.86 5.27 1.8 5.06 3.7 10.4 5.61 15.75.35-.13.69-.26 1.04-.39l-1.11-6.89c.13-.04.26-.09.39-.13.6 1.58 1.19 3.15 1.84 4.86 1.39-11.33-.49-18.33-5.4-20.26-.09.44-.18.89-.51 1.79zm238.3-40.77c-5.42 2.7-10.32 6.13-13.77 11.48-.63.98-.88 2.25-1.39 3.61 4.16-.99 7.69-1.83 11.48-2.73 1.59-3.9 3.2-7.85 4.77-11.83.05-.09-.43-.41-1.09-.53zM328.21 355.35c-.13-3.18-.1-6.38-.45-9.53-.3-2.67-1.33-5.25-1.52-7.91-.27-3.83-.07-7.69-.07-11.81-2.18 3.09-4.13 5.85-6.02 8.53 1.3 3.8 2.63 7.65 3.93 11.52 1.26 3.74 2.49 7.5 3.73 11.25.14-.05.27-.1.41-.14-.01-.48-.01-.93-.01-1.91zm-16.84 209.26c1.69-7.1 3.38-14.2 5.07-21.31-5.92 9.51-12.8 35.08-11.65 41.77 2.34-7.09 4.44-13.49 6.58-20.46zm33.46-232.35c-3.54 6.19-7.08 12.38-10.52 18.38-1.39-.26-2.28-.43-3.17-.59-.3 6.54-.59 12.77-.91 19.92.76-2.13 1.15-3.39 1.65-4.61 4.42-10.66 8.86-21.31 13.27-31.97.16-.41 0-.97-.32-1.13zm99.88 253.84c.5-4.29.99-8.59 1.49-12.88l-.91-.24c-3.17 4.52-6.34 9.04-9.5 13.54 1.29 2.4 2.33 4.32 3.47 6.43 1.9-1.64 3.5-3.03 5.4-4.66 0-.24 0-.92.05-2.19zm-212 2.48v3.7c.21-.01.41-.02.62-.04l2.79-70.59c-.32-.01-.63-.03-.95-.04-2.49 22.03-2.15 44.19-2.46 66.97zm-77.99-3.29c-.31-.9-.61-1.79-.92-2.69-.18.06-.36.11-.54.17.26 1.29.51 2.59.77 3.88-.33-.01-.65-.01-.98-.02 0 2.77-.63 5.74.12 8.26 2.07 6.92 4.72 13.64 7.25 20.75.97-10.59-1.93-20.29-5.7-30.35zm235.45-24.7c5.6-3.93 6.88-9.03 3.71-15.35-.06-.12-.24-.18-.42-.32-2.87 5.53-5.79 10.96-8.49 16.52-.64 1.32-.54 3.05-.78 4.6.3.11.6.23.9.34 1.6-1.8 3.19-3.61 5.08-5.79zm10.01-38.45c-1.25 4.01-2.5 8.01-3.93 12.58 3.98-2.4 7.31-4.39 10.72-6.45-1.26-4.63-2.49-9.14-3.96-14.56-1.1 3.28-1.87 5.6-2.83 8.43zm-11.43 84.54c.32.57.65 1.14 1.22 2.15 1.27-3.59 2.41-6.82 3.67-10.39-2.96-2.85-5.78-5.56-9.11-8.77-.68 8.91-.68 8.91 3.11 14.75.36.57.64 1.19 1.11 2.26zm-283.7 33.48c1.31 5.94 2.62 11.89 3.92 17.83l.64-.15-1.52-33.47c-.68.94-1.21 1.67-1.42 1.95.4 2.5.69 4.38 1.14 7.2-1.9-1.74-2.96-2.71-4.68-4.28.68 4.11 1.2 7.24 1.92 10.92zm24.45-142.37c2 1.22 4 2.44 6.44 3.92-.72-3.91-1.66-7.31-1.91-10.77-.33-4.61-2.7-7.11-6.64-8.75.67 5.13 1.32 10.09 2.11 15.6zm339.17 114.45c-1.64 1.98-3.28 3.96-4.7 5.68 1.64 2.22 2.81 3.79 4.05 5.47 3.58-7.06 7.24-14.27 10.89-21.48-.19-.17-.37-.34-.56-.5-3.12 3.49-6.23 6.99-9.68 10.83zm-352.85 4.68c.33 10.24.66 20.48 1 30.73l1.49-.06c-1.29-16.92.26-33.93-2.52-50.81 0 6.49 0 12.99.03 20.14zm31.22-106.36c.8.64 1.6 1.28 2.41 1.93.27-.2.54-.39.82-.59-.77-6.53-5.45-11.42-6.73-18.44-1.63 3.86-2.89 6.81-4.03 9.51 2.54 2.6 4.84 4.95 7.53 7.59zm166.37-87.42c-.34 1.97-.68 3.94-1.01 5.9.1-.01.21-.01.31-.02 4.69-12.42 9.38-24.84 14.34-37.96-.13-.2-.78-1.27-1.73-2.81-4.06 11.88-7.89 23.12-11.91 34.89zm-39.71 41.87v4.07c2.04-9.78 3.81-19.53 5.55-29.29.64-3.58.73-7.09-1.77-10.6-1.28 11.98-2.52 23.59-3.78 35.82zm64.52 96.26c2.11-4.24 6.25-8.13 1.32-13.62h4.04c-1.63-3.04-3.75-4.11-6.87-3.11v19.4c.33-.56.83-1.39 1.51-2.67zm-15.66-60.04c.41 1.59.82 3.18 1.23 4.75 7.1-6.16 5.93-14.39 6.4-23.04-1.54 3.4-2.8 5.99-3.9 8.67-1.23 3.02-2.32 6.1-3.73 9.62zm31.17 60.42c2.16-3.8 4.31-7.61 6.34-11.18-.32-2.75-.61-5.19-.92-7.82-7.45 8.4-7.95 10.17-5.42 19zm-18.95-82.89v14.23c.28.07.55.15.83.22 1.67-1.9 3.35-3.8 5.03-5.71-.28-4.61-2.81-9.15-5.78-10.33-.01.34-.04.69-.08 1.59zm-215.41 86.09c-.45-3.02-.9-6.03-1.36-9.05.15 11.02-1.47 22.19 2.23 32.86.37-.03.75-.07 1.12-.1-.62-7.7-1.25-15.4-1.99-23.71zm135.93-1.12c.47 1.51.93 3.02 1.4 4.54l.66-.18c1.18-11.6 2.37-23.2 3.55-34.79l-.88-.12c-1.55 9.99-3.1 19.98-4.73 30.55zm162.35-1.42c-.38-.87-.76-1.73-1.35-3.07-1.19 6.23-6.14 11.93.21 17.47 2.65-5.36 2.97-8.62 1.14-14.4zm-71.4-18.16c2.84-7.24 5.77-14.45 8.43-21.76.51-1.4-.09-3.24-.17-4.88l-.81-.09c-1.6 4.68-3.27 9.34-4.79 14.06-1.52 4.72-2.89 9.49-4.33 14.23.18.07.35.14.53.21.28-.48.55-.95 1.14-1.77zm17.24-34.72c-.81 1.46-1.62 2.92-2.41 4.33.52 2.11.99 4.04 1.57 6.4 1.57-1.92 2.86-3.49 4.11-5.03-.66-4.29-1.29-8.36-2.02-13.1-2.07 3.45-3.8 6.33-5.53 9.22l.77.56c1.45-1.95 2.9-3.89 4.34-5.84.12.08.25.16.37.24-.31.94-.62 1.87-1.2 3.22zm-40.46 35.03c-1.11 3.04-3.06 5.79-2.68 9.37 3.72-6.27 9.6-11.53 8.45-20.01-.35-.17-.71-.35-1.06-.52-1.54 3.54-3.08 7.09-4.71 11.16zm33.31-41.94c.3 2.06.6 4.13.91 6.19 7.68-14.95 7.68-14.95 6.56-18.81-2.47 4.17-4.84 8.18-7.47 12.62zm-209.39 46.7c-.35-1.4-.71-2.79-1.08-4.26-2.54-1.18-4.91-2.28-7.52-3.5 1.75 8.16 2.62 9.92 9.25 10.98-.19-.95-.37-1.82-.65-3.22zM295.64 169l12.39 17.58c.45-.32.89-.65 1.34-.97-2.24-3.91-4.15-8.11-6.84-11.63-1.75-2.29-4.65-3.59-6.89-4.98zM135.81 558.39c1.23.36 2.47.71 4.56 1.32-2.87-4.35-1.77-9.97-7.3-11.78-.23 3.01-.46 5.9-.69 8.84 1.21.57 2.09.98 3.43 1.62zm225.54 3.23c-.13-.46-.25-.92-.64-2.31-1.98 6.09-7.15 9.73-6.19 17.02 3.15-4.82 8.23-7.65 6.83-14.71zm68.48 32.34-2.85 11.11.46.09c2.71-3.34 5.42-6.69 8.18-10.09-1.13-1.39-2.22-2.73-3.48-4.27-.86 1.13-1.46 1.92-2.31 3.16zm1.47 24.05c1.24-3.91 2.48-7.81 3.76-11.84.4.47.63.74.96 1.14.54-2.33 1.02-4.45 1.51-6.57-.28-.15-.56-.29-.84-.44-1.71 2.68-3.23 5.52-5.17 8-2.49 3.15-3.32 6.2-.22 9.71zm-65.51-73.74c.08.33.16.66.31 1.3 6.41-5.14 1.7-11.53 2.12-17.21-2.4 4.86-2.86 10.04-2.43 15.91zm-227.83-42.99c1.67-3.21 3.34-6.43 4.8-9.23-2.82-1.44-5.09-2.6-7.25-3.7.74 4.03 1.51 8.27 2.45 12.93zm268.78 54.89c1.15-2.21 2.3-4.42 3.44-6.64-.2-.23-.41-.45-.61-.68-3.16 1.87-6.33 3.74-9.61 5.68.63 1.64.97 2.54 1.48 3.86 1.77-.69 3.34-1.3 5.3-2.22zm14.84-7.21c-.81.75-1.62 1.5-3.19 2.95 3.07.91 5.22 1.55 7.58 2.25.92-2.58 1.69-4.75 2.79-7.83-2.72.91-4.77 1.6-7.18 2.63zm-63.99-11.84c.38-1.03.76-2.07 1.13-3.07-.3-1.68-.62-3.42-.93-5.16-.23-.05-.46-.11-.69-.16-1.84 4.62-3.69 9.23-5.53 13.85.28.22.55.44.83.66 1.71-1.89 3.42-3.75 5.19-6.12zm10.35 42.73c-.19 1.75-.39 3.5-.68 6.13 4.12-5.37 6.6-10.34 4.79-17.8-1.58 4.28-2.84 7.69-4.11 11.67zm92.33 23.41 8.61-18.63c-.29-.17-.59-.33-.88-.5-3.66 6.61-7.31 13.21-11.41 20.62 1.78-.51 2.65-.76 3.68-1.49zM124.51 502.74c-1.13-.44-2.27-.88-3.9-1.52 1.23 4.9 2.3 9.17 3.36 13.44.33-.04.66-.09.98-.13.01-3.85.01-7.7-.44-11.79zm319.83 31.91c-1.14 2.77-2.28 5.55-3.53 8.61h5.94c-.31-3.72-.6-7.23-.96-11.57-.65 1.37-.93 1.95-1.45 2.96zm-115.01 13.99v-2.46l-.94-.21c-1.27 5-2.53 10.01-3.95 15.6 5.69-3.1 4.68-8.03 4.89-12.93zm-198.83-28.7-.78-5.65c-.2 7.1-2.82 14.31.58 21.19.37-.02.73-.04 1.1-.05-.28-4.96-.56-9.92-.9-15.49zm227.7 66.13c1.09-3.74 2.18-7.47 3.28-11.21-.29-.13-.59-.26-.88-.39-2.01 3.73-4.03 7.47-5.84 10.83 1.01 1.98 1.63 3.2 2.39 4.7.41-1.47.7-2.43 1.05-3.93zm54.11-9.85c-.13-.18-.25-.36-.39-.53-.05-.06-.24-.08-.24-.08-.48 1.6-.94 3.2-1.4 4.76 1.81 2.19 3.49 4.23 5.21 6.33 1.78-2.67 1.55-4.78-.59-6.8-.94-.89-1.55-2.18-2.59-3.68zM206.59 595.3c-.7-2.24-1.41-4.47-2.16-6.86-1.69 6.56.29 12.29 3.14 17.9-.29-3.48-.59-6.97-.98-11.04zm267.15 46.1-1.75-2.28c-1.92 4.51-3.67 8.61-5.44 12.77.71.79 1.23 1.38 1.72 1.93 1.81-4.14 3.52-8.07 5.47-12.42zM174.38 367.88c.64.5 1.28.99 1.92 1.49l.35-.41c-2.98-4.03-5.95-8.06-8.93-12.09-.22.16-.45.32-.67.48l.77 6.07c2.26 1.49 4.27 2.8 6.56 4.46zm287.29 270.15c.73-1.46 1.47-2.92 2.39-4.76-1.9.98-3.24 1.67-4.86 2.5-2.78 6.73-2.81 7-1.08 9.7 1.15-2.34 2.27-4.65 3.55-7.44zm-69.04-152.25c-.9 2.06-1.8 4.12-2.71 6.18.19.1.38.21.57.31 2.52-3.79 5.04-7.57 7.57-11.38-.39-1.26-.78-2.5-1.23-3.95-1.4 2.92-2.71 5.64-4.2 8.84zm-4.48 124.37c-.9-1.84-1.8-3.69-3.01-6.17-.63 5.1-.84 9.24 3.92 12.55-.25-2.4-.43-4.19-.91-6.38zm11.8-1.45c-.28 1.09-.56 2.19-.93 3.65.82 2.07 1.73 4.36 2.81 7.08 2.83-4.81.47-8.26-1.06-11.82-.17.23-.36.47-.82 1.09zm-228.89-11.83c-.21-2.25-.41-4.5-.62-6.76-.24-.01-.47-.01-.71-.02-.64 1.15-1.27 2.3-1.75 3.17.92 4.34 1.77 8.35 2.62 12.37.17-.01.34-.03.5-.04.01-2.7.01-5.4-.04-8.72zm27.2-1.79c-.31-1.06-.61-2.11-.92-3.17l-.82.24c1.94 7.67 3.87 15.34 5.81 23 .34-.09.67-.19 1.01-.28-1.67-6.41-3.34-12.84-5.08-19.79zm170.79-46.78c-1.02.8-2.04 1.59-2.86 2.23v9.95c.32.06.64.12.96.17.77-4.11 1.55-8.23 1.9-12.35zM190.8 564.33c-1-1.22-2.01-2.43-3.01-3.65-.2.2-.4.39-.61.59 1.54 4.15 3.09 8.29 4.69 12.58 2-3.53 1.3-6.41-1.07-9.52zm92.82 2.66c-.04 1.03-.11 2.07-.1 3.1.01 1.01.11 2.01.17 3.02.32 0 .63.01.95.01l2.28-18.96c-.23-.04-.46-.07-.69-.11-.83 4.12-1.66 8.24-2.61 12.94zm55.17-1.45c-2.45 3.09-2.49 6.69-1.37 10.59 1.3-4.22 2.59-8.45 3.89-12.67-.33-.15-.66-.3-1-.46-.42.71-.84 1.41-1.52 2.54zm-11.51 35.92v-2.24c-2.21 6.12-1.45 12.31-1.48 18.48l1.53.03c0-5.26 0-10.51-.05-16.27zm45.15-.45c-.54-.53-1.08-1.05-1.63-1.59-1.1 3.85-1.41 7.54 2.01 10.71 0-2.93 0-5.84-.38-9.12zm2.06-6.22.51-7.6c-.26-.07-.51-.13-.77-.2-1.09 3-2.17 6.01-3.32 9.18 1.14.83 2.05 1.48 3.24 2.34.14-1.37.23-2.26.34-3.72zm-19.55-85.59c-2.13-4.68-4.25-9.35-6.38-14.03l-.96.51c2.5 5.49 5.01 10.97 7.51 16.46.16-.06.32-.13.47-.19-.17-.75-.34-1.5-.64-2.75zm49.44 90.62c-.35-1.51-.69-3.03-1.24-5.43-2.32 6.58-2.01 8.07 2.05 11.65-.28-2.04-.53-3.84-.81-6.22zm-245.83-20.74c-.98-3.63-1.96-7.26-3.13-11.56-2.58 5.75.66 8.72 3.13 11.56zm177.81-83.18c-.31 1.12-.61 2.23-.92 3.35.26.12.52.24.78.37l7.12-9.67c-.21-.15-.41-.3-.62-.45-2.01 2.01-4.01 4.03-6.36 6.4zm-10.17 15.03c.62 1.55 1.25 3.1 1.87 4.65.21-.08.42-.16.63-.23v-10.07c-.19-.05-.38-.09-.57-.14-.72 1.78-1.45 3.56-1.93 5.79zm-191.35 70.61c2.38-1.93 2.02-4.75-1.84-8.11.44 2.67.87 5.34 1.84 8.11zm194.56-19.19c0-.22.02-.45.01-.67 0-.05-.1-.08-.15-.13-1.92 3.35-4.3 6.5-4.4 11.25 3.26-2.94 4.25-6.27 4.54-10.45zm-.85 17.78.36-4.14c-.31-.06-.62-.11-.93-.17-.92 3.92-1.85 7.84-2.77 11.75.45.13.89.25 1.34.38.61-2.43 1.21-4.85 2-7.82zm122.54 41.15c-.22-1.04-.44-2.09-.76-3.61-1.47 1.04-2.48 1.76-3.65 2.59 1.1 1.84 2.04 3.42 3.36 5.63.46-1.94.71-3.01 1.05-4.61zm11.32 44.12-.12 1.32c1.82-3.84 4.96-7.26 3.08-12.18-.94 3.45-1.86 6.92-2.96 10.86zm-16.62-34.21c.62.18 1.75.59 1.78.51.4-1 1.05-2.18.84-3.1-.38-1.61-1.33-3.06-2.45-5.47-.18 3.13-.3 5.36-.17 8.06zM257.8 511.62c-.1.67-.25 1.34-.29 2.02-.04.56.04 1.14.07 1.71.35.02.7.03 1.05.05.5-4.98 1-9.96 1.49-14.94-.24-.03-.48-.07-.72-.1-.48 3.56-.97 7.14-1.6 11.26zm113.9 48.7-4.2 8.61c2.77-2.2 6.01-4.15 4.2-8.61zm-10.3 32.11v-6.41l-1.18-.06-1.08 9.85c.31.06.62.13.93.19.41-1 .83-2.01 1.33-3.57zm-17.97 5.37c.21.62.42 1.24.66 1.96 2.35-4.59 2.34-7.92-.11-8.95-.21 2.19-.42 4.33-.55 6.99zm101.23 10.6v4.97c1.66-1.26 2.74-2.08 3.88-2.94-1.19-1.62-2.22-3.02-3.48-4.74-.18 1.1-.26 1.64-.4 2.71zM374.2 494.03c-.57.24-1.15.48-1.94.81.37 3.03.71 5.9 1.06 8.77.14-.01.29-.01.43-.02.32-3.22.65-6.44.45-9.56zm47.78 61.94c-.44-.1-.89-.21-1.6-.37.76 2.35 1.42 4.35 2.3 7.07.9-2.44 1.51-4.12 2.14-5.82-1-.35-1.71-.6-2.84-.88zm-310.85-82.19c.27 2.69.53 5.38.8 8.08.01-3.41 2.23-6.97-.56-11.19-.14 1.52-.19 2.04-.24 3.11zm53.41 110.7c.31 1.01.61 2.01 1.2 3.95.95-2.38 1.59-3.98 2.29-5.73-1.69-.5-2.76-.81-3.98-1.17.16.96.28 1.7.49 2.95zm192.12 20.78-.75-5.55c-.34.03-.68.06-1.03.1-.53 2.92.07 5.79 1.27 8.64.17-.89.34-1.78.51-3.19zm-146.22-26.94c-.28-1.32-.55-2.63-.87-4.13-.81-.36-1.64-.72-2.46-1.08-.17.18-.33.36-.5.54 1.16 2.26 2.33 4.51 3.49 6.77.15-.08.3-.15.46-.23-.04-.46-.07-.91-.12-1.87zm135.78-9.89c-.44-.09-1.22-.34-1.27-.24-.98 2.33-1.88 4.7-2.79 7.07.31.14.63.29.94.43 1.11-2.26 2.21-4.53 3.12-7.26zm-217.6 48.96c.14.23.27.46.58.97l-1.51-12.74c-.14.01-.29.02-.43.04.39 3.76.77 7.53 1.36 11.73zm256.34-2.15c-.15-.13-.29-.27-.45-.38-.04-.03-.21.07-.21.11-.12 2.18-.22 4.36-.35 6.91 3.56-1.8 2.23-4.09 1.01-6.64zm-38.47-56.07 1.29 4.19c.31-.08.62-.15.93-.23-.29-2.36-.59-4.71-.88-7.07l-.51.06c-.26.85-.52 1.7-.83 3.05z"/><path d="M437.2 270.49c-.9 2.24-1.94 4.32-3.27 6.95 1.27-.36 2.07-.59 3.16-.91-1.69 2.56-3.26 4.92-5.09 7.68 1.11-.12 1.79-.2 2.86-.31-1.74 2.43-3.31 4.64-5.18 7.25 1.69-.57 3.01-1.01 4.47-1.5-2.74 4.8-5.37 9.41-8.41 14.74 2.62-.62 4.34-1.03 6.4-1.52-2.82 3.96-5.41 7.59-8.37 11.75 2.15-.59 3.54-.97 5.39-1.48-2.51 4.44-4.74 8.38-7.21 12.75 1.67-.74 2.9-1.29 4.13-1.83.14.13.27.26.41.39-1.49 2.14-2.97 4.28-4.66 6.71.94-.19 1.65-.33 3.31-.66l-7.71 13.22c.69-.06 1.16-.11 1.62-.15.19.28.38.55.56.83-4.35 3.52-8.7 7.03-13.16 10.64-.91-10.16-1.82-20.26-2.73-30.36.35-.09.7-.19 1.06-.28.89 1.89 1.79 3.78 2.68 5.67.17-.06.34-.13.51-.19.39-6.65.77-13.31 1.16-19.96.16-.06.31-.11.47-.17.96 2.31 1.91 4.62 3.12 7.54.32-6.51.61-12.35.95-19.19.97 2.85 1.66 4.87 2.35 6.9.16-.02.31-.03.47-.05v-10.26c1.04 1.57 1.56 2.36 2.43 3.66.87-5.88 1.65-11.24 2.5-16.99.48 1.7.86 3.06 1.47 5.24.51-3.21.88-5.52 1.25-7.83l.45-.12c.26.99.53 1.99.9 3.38 1.53-3.75 2.96-7.26 4.38-10.76.22.07.44.14.67.2.03.7.07 1.4.12 2.45 1.56-3.37 2.99-6.46 4.61-9.95.14.98.22 1.52.37 2.52 1.34-1.54 2.5-2.88 3.51-4.04-.67 2.55-1.39 5.21-1.95 8.04zM502.34 633.86c6.19-6.34 12.22-12.5 15.31-15.67-6.35 6.79-15.55 16.62-24.75 26.46-.08-.08-.17-.16-.25-.24 3.18-3.46 6.35-6.92 9.69-10.55z"/></g></svg>